<?xml version="1.0" standalone="no"?>
<!DOCTYPE svg PUBLIC "-//W3C//DTD SVG 1.1//EN" "http://www.w3.org/Graphics/SVG/1.1/DTD/svg11.dtd" >
<svg xmlns="http://www.w3.org/2000/svg" xmlns:xlink="http://www.w3.org/1999/xlink" version="1.1">
<metadata>
Created by FontForge 20170731 at Mon Jan  2 15:55:13 2017
 By Aleksey,,,
(URW)++,Copyright 2016 by (URW)++ Design &#38; Development
</metadata>
<defs>
<font id="URWDINW05-Bold" horiz-adv-x="1106" >
  <font-face 
    font-family="URWDINW05-Bold"
    font-weight="700"
    font-stretch="normal"
    units-per-em="2048"
    panose-1="1 0 0 0 0 0 0 0 0 0"
    ascent="1638"
    descent="-410"
    x-height="1062"
    cap-height="1462"
    bbox="-212 -502 2750 2140"
    underline-thickness="102"
    underline-position="-358"
    unicode-range="U+0020-FB04"
  />
<missing-glyph horiz-adv-x="410" 
d="M41 0v1462h328v-1462h-328zM328 41v1380h-246v-1380h246z" />
    <glyph glyph-name="uniFB00" unicode="ff" horiz-adv-x="1367" 
d="M181 826h-118v236h118v90q0 178 85 251q39 33 101 46t186 13h114v-218h-50q-93 0 -113 -19q-25 -23 -25 -96v-67h148v-236h-148v-826h-298v826zM827 826h-118v236h118v90q-2 173 84 251q39 33 101.5 46t186.5 13h132v-218h-68q-94 0 -113 -19q-25 -23 -25 -96v-67h216
v-236h-216v-826h-298v826z" />
    <glyph glyph-name="uniFB01" unicode="fi" horiz-adv-x="1300" 
d="M181 826h-118v236h118v90q0 178 85 251q39 33 101 46t186 13h132v-218h-68q-93 0 -113 -19q-25 -23 -25 -96v-67h217v-236h-217v-826h-298v826zM862 1197v281h298v-281h-298zM862 0v1062h298v-1062h-298z" />
    <glyph glyph-name="uniFB02" unicode="fl" horiz-adv-x="1367" 
d="M181 826h-118v236h118v90q0 178 85 251q39 33 101 46t186 13h132v-218h-68q-93 0 -113 -19q-25 -23 -25 -96v-67h217v-236h-217v-826h-298v826zM856 1462h298v-1007q0 -126 38 -170t147 -44h30v-241h-43q-165 0 -264 27q-115 32 -160.5 133.5t-45.5 324.5v977z" />
    <glyph glyph-name="uniFB03" unicode="ffi" horiz-adv-x="1946" 
d="M181 826h-118v236h118v90q0 178 85 251q39 33 101 46t186 13h114v-218h-50q-93 0 -113 -19q-25 -23 -25 -96v-67h148v-236h-148v-826h-298v826zM827 826h-118v236h118v90q-2 173 84 251q39 33 101.5 46t186.5 13h132v-218h-68q-94 0 -113 -19q-25 -23 -25 -96v-67h216
v-236h-216v-826h-298v826zM1508 1197v281h298v-281h-298zM1508 0v1062h298v-1062h-298z" />
    <glyph glyph-name="uniFB04" unicode="ffl" horiz-adv-x="2013" 
d="M181 826h-118v236h118v90q0 178 85 251q39 33 101 46t186 13h114v-218h-50q-93 0 -113 -19q-25 -23 -25 -96v-67h148v-236h-148v-826h-298v826zM827 826h-118v236h118v90q-2 173 84 251q39 33 101.5 46t186.5 13h132v-218h-68q-94 0 -113 -19q-25 -23 -25 -96v-67h216
v-236h-216v-826h-298v826zM1503 1462h298v-1007q0 -126 38 -170t146 -44h30v-241h-43q-164 0 -263 27q-115 32 -160.5 133.5t-45.5 324.5v977z" />
    <glyph glyph-name=".notdef" horiz-adv-x="410" 
d="M41 0v1462h328v-1462h-328zM328 41v1380h-246v-1380h246z" />
    <glyph glyph-name="glyph1" horiz-adv-x="0" 
 />
    <glyph glyph-name="glyph2" horiz-adv-x="410" 
 />
    <glyph glyph-name="space" unicode=" " horiz-adv-x="410" 
 />
    <glyph glyph-name="exclam" unicode="!" horiz-adv-x="711" 
d="M233 428l-46 1034h339l-47 -1034h-246zM207 0v287h300v-287h-300z" />
    <glyph glyph-name="quotedbl" unicode="&#x22;" horiz-adv-x="950" 
d="M136 846l-23 616h312l-23 -616h-266zM549 846l-23 616h312l-23 -616h-266z" />
    <glyph glyph-name="numbersign" unicode="#" 
d="M209 603l26 187h-155l26 186h157l50 345h246l-49 -345h165l50 345h247l-50 -345h158l-27 -186h-158l-26 -187h157l-27 -186h-158l-46 -331h-247l46 331h-165l-46 -331h-248l47 331h-156l27 186h156zM456 603h166l26 187h-166z" />
    <glyph glyph-name="dollar" unicode="$" 
d="M-16 263l240 153q39 -67 96 -102q85 -52 228 -52q225 0 225 150q0 83 -62 121q-31 19 -61.5 28.5t-183.5 45.5q-200 48 -301 135q-117 100 -117 297q0 343 359 404v224h307v-230q218 -46 321 -221l-233 -148q-51 71 -113.5 103t-151.5 32t-138 -36.5t-49 -102.5
q0 -77 57.5 -119.5t215.5 -80.5q137 -33 194.5 -54t112.5 -56q145 -94 145 -318q0 -235 -147 -333q-86 -58 -214 -81v-300h-307v295q-310 39 -423 246z" />
    <glyph glyph-name="percent" unicode="%" horiz-adv-x="1981" 
d="M69 999v138q0 102 17.5 160t61.5 100q47 47 114 67.5t171 20.5q111 0 182 -24t117 -78q65 -75 65 -246v-138q0 -100 -17.5 -158.5t-61.5 -101.5q-47 -46 -113.5 -66.5t-171.5 -20.5q-112 0 -182.5 24t-116.5 78q-36 42 -50.5 97t-14.5 148zM547 1028v81q0 105 -26 149.5
t-88 44.5t-88 -44.5t-26 -149.5v-81q0 -102 23 -143q28 -51 91 -51q62 0 88 44.5t26 149.5zM1185 325v138q0 101 17.5 159t61.5 101q47 47 113.5 67.5t172.5 20.5q111 0 181.5 -24t116.5 -79q65 -75 65 -245v-138q0 -101 -17.5 -159.5t-61.5 -101.5q-47 -46 -113.5 -66.5
t-171.5 -20.5q-112 0 -182.5 24t-116.5 78q-36 42 -50.5 97t-14.5 149zM1663 353v81q0 106 -26 150.5t-88 44.5t-88 -44.5t-26 -150.5v-81q0 -105 26 -149.5t88 -44.5t88 44.5t26 149.5zM620 0l465 1462h276l-464 -1462h-277z" />
    <glyph glyph-name="ampersand" unicode="&#x26;" horiz-adv-x="1615" 
d="M464 804q-93 115 -124 178.5t-31 139.5q0 165 118.5 263.5t315.5 98.5q237 0 358 -117q100 -98 100 -239q0 -115 -71 -212.5t-228 -195.5l193 -233q68 92 108 229h291q-85 -270 -219 -433l246 -283h-367l-87 104q-102 -78 -238 -122t-277 -44q-221 0 -332 105
q-114 108 -114 293q0 193 166 340q64 57 192 128zM719 930q103 52 145 94.5t42 96.5q0 59 -38.5 91.5t-109.5 32.5t-112.5 -33t-41.5 -89q0 -34 24 -74.5t91 -118.5zM651 588q-92 -48 -138 -83q-95 -71 -95 -166q0 -147 185 -147q80 0 144 22.5t150 81.5z" />
    <glyph glyph-name="quotesingle" unicode="'" horiz-adv-x="537" 
d="M136 846l-23 616h312l-23 -616h-266z" />
    <glyph glyph-name="parenleft" unicode="(" horiz-adv-x="929" 
d="M829 -132l-220 -137q-138 183 -220 334q-151 283 -151 641q0 272 81 485t290 489l220 -137q-113 -190 -178 -335q-47 -107 -74 -241.5t-27 -260.5q0 -283 115 -533q61 -133 164 -305z" />
    <glyph glyph-name="parenright" unicode=")" horiz-adv-x="929" 
d="M100 1543l220 137q139 -183 220 -334q151 -283 151 -640q0 -273 -81 -485.5t-290 -489.5l-220 137q111 186 178 336q46 105 73.5 240t27.5 262q0 283 -115 532q-63 137 -164 305z" />
    <glyph glyph-name="asterisk" unicode="*" 
d="M553 942l-163 -269l-225 167l198 238l-290 60l70 253l284 -97l-16 294h284l-16 -294l284 97l70 -253l-290 -60l198 -238l-225 -167z" />
    <glyph glyph-name="plus" unicode="+" 
d="M93 605v235h331v345h257v-345h332v-235h-332v-342h-257v342h-331z" />
    <glyph glyph-name="comma" unicode="," horiz-adv-x="604" 
d="M69 -385l99 668h329l-157 -668h-271z" />
    <glyph glyph-name="hyphen" unicode="-" horiz-adv-x="949" 
d="M142 594v256h664v-256h-664z" />
    <glyph glyph-name="period" unicode="." horiz-adv-x="605" 
d="M145 0v287h315v-287h-315z" />
    <glyph glyph-name="slash" unicode="/" horiz-adv-x="819" 
d="M18 -40l491 1543h294l-491 -1543h-294z" />
    <glyph glyph-name="zero" unicode="0" 
d="M86 551v360q0 170 25 266q41 157 161 240q97 68 280 68q184 0 282 -68q102 -71 143.5 -184.5t41.5 -321.5v-360q0 -172 -25 -266q-41 -157 -160 -240q-98 -68 -282 -68q-183 0 -280 68q-102 71 -144 185t-42 321zM709 577v308q0 197 -33.5 271.5t-123.5 74.5
q-101 0 -135 -108q-21 -70 -21 -238v-308q0 -197 33.5 -271.5t122.5 -74.5q103 0 136 108q21 70 21 238z" />
    <glyph glyph-name="one" unicode="1" 
d="M424 0v1137l-225 -92l-98 240l431 177h207v-1462h-315z" />
    <glyph glyph-name="two" unicode="2" 
d="M64 0v203l410 491q39 47 91 124t73 118q39 80 39 161q0 133 -136 133q-54 0 -86 -19.5t-54 -64.5q-26 -53 -33 -110l-289 21q24 428 472 428q252 0 360 -141q78 -102 78 -264q0 -163 -98 -321q-40 -62 -67.5 -97t-155.5 -182l-193 -224h512v-256h-923z" />
    <glyph glyph-name="three" unicode="3" 
d="M348 649v242h107q97 0 148 44t51 129q0 167 -141 167q-137 0 -159 -156l-279 21q11 173 96 264q115 125 358 125q229 0 339 -116q98 -103 98 -290q0 -114 -34 -184t-113 -122q73 -48 106 -92q76 -97 76 -263q0 -441 -468 -441q-293 0 -415 160q-67 90 -78 247l295 36
q23 -189 185 -189q87 0 126 51q43 56 43 144q0 102 -58.5 162.5t-156.5 60.5h-126z" />
    <glyph glyph-name="four" unicode="4" 
d="M637 0v251h-576v189l447 1022h332l-421 -960h218v326h281v-326h127v-252h-127v-250h-281z" />
    <glyph glyph-name="five" unicode="5" 
d="M133 665l64 797h762v-256h-501l-26 -277q12 2 18 4q70 16 123 16q228 0 338 -123q50 -55 71.5 -138.5t21.5 -218.5q0 -137 -24 -222.5t-78 -142.5q-121 -127 -372 -127q-221 0 -333.5 100t-124.5 307l295 35q20 -188 169 -188q156 0 156 220q0 138 -36.5 194.5
t-126.5 56.5q-107 0 -166 -84z" />
    <glyph glyph-name="six" unicode="6" 
d="M566 941q14 1 74 5q46 3 119.5 -22t118.5 -59q92 -71 120 -199q16 -76 16 -201q0 -152 -26 -240t-87 -143q-117 -105 -346 -105q-256 0 -372 127q-48 53 -68.5 134.5t-20.5 217.5q0 142 26.5 238.5t101.5 228.5l305 539h351zM557 703q-97 0 -129 -71q-22 -50 -22 -165
q0 -134 32 -185t116 -51q94 0 126 71q22 50 22 165q0 132 -32 184t-113 52z" />
    <glyph glyph-name="seven" unicode="7" 
d="M200 0l435 1206h-520v256h847v-186l-427 -1276h-335z" />
    <glyph glyph-name="eight" unicode="8" 
d="M217 775q-96 103 -96 292q0 218 103 318t329 100q241 0 344 -117q87 -98 87 -302q0 -187 -96 -291q74 -53 106 -132.5t32 -210.5q0 -239 -106 -341q-63 -61 -148.5 -87.5t-219.5 -26.5q-185 0 -282 52q-102 56 -146.5 149t-44.5 254q0 131 31.5 209.5t106.5 133.5z
M555 1248q-80 0 -109.5 -39.5t-29.5 -145.5q0 -107 29.5 -148t107.5 -41q77 0 106.5 41t29.5 147q0 105 -29.5 145.5t-104.5 40.5zM555 637q-93 0 -128.5 -44t-35.5 -160q0 -114 35 -158t126 -44q92 0 127 44t35 158t-35 159t-124 45z" />
    <glyph glyph-name="nine" unicode="9" 
d="M545 570q-26 -1 -37 -1q-166 0 -268 66q-89 58 -122 162q-26 81 -26 225q0 150 29 234q80 229 432 229q252 0 366 -120q50 -53 71.5 -129.5t21.5 -206.5q0 -139 -18 -212t-81 -192l-334 -625h-351zM554 1231q-81 0 -115.5 -48t-34.5 -162q0 -113 34.5 -161.5t114.5 -48.5
q93 0 125 70q22 49 22 140q0 111 -34 160.5t-112 49.5z" />
    <glyph glyph-name="colon" unicode=":" horiz-adv-x="605" 
d="M145 0v287h315v-287h-315zM145 780v287h315v-287h-315z" />
    <glyph glyph-name="semicolon" unicode=";" horiz-adv-x="604" 
d="M69 -385l99 668h329l-157 -668h-271zM179 780v287h315v-287h-315z" />
    <glyph glyph-name="less" unicode="&#x3c;" 
d="M462 735l469 -212v-272l-801 389v191l801 388v-271z" />
    <glyph glyph-name="equal" unicode="=" 
d="M129 420v225h847v-225h-847zM129 799v225h847v-225h-847z" />
    <glyph glyph-name="greater" unicode="&#x3e;" 
d="M644 735l-469 213v271l801 -388v-191l-801 -389v272z" />
    <glyph glyph-name="question" unicode="?" horiz-adv-x="1181" 
d="M458 419v81q0 135 33.5 203t151.5 171q80 70 108.5 116t28.5 105q0 64 -40 101t-109 37q-80 0 -125.5 -50.5t-79.5 -178.5l-292 48q35 183 125 286q128 149 377 149q252 0 364 -133q92 -108 92 -277q0 -148 -98 -262q-42 -48 -158 -144q-74 -60 -103.5 -106.5
t-29.5 -103.5v-42h-245zM432 0v287h300v-287h-300z" />
    <glyph glyph-name="at" unicode="@" horiz-adv-x="1939" 
d="M1236 1020h180l-97 -449q-17 -80 -17 -120q0 -73 67 -73q85 0 151 83q89 113 89 293q0 229 -134 370q-74 79 -189 122q-134 51 -283 51q-288 0 -467 -182q-196 -200 -196 -556q0 -318 161 -467q83 -76 200 -115q155 -52 326 -52q247 0 483 96l70 -172
q-260 -123 -568 -123q-286 0 -498 94q-408 182 -408 728q0 290 115 507q121 230 349 342q192 93 430 93q266 0 478 -110q204 -105 293 -308q63 -144 63 -311q0 -316 -205 -478q-126 -99 -288 -99q-95 0 -147.5 35t-75.5 114q-133 -148 -278 -148q-127 0 -199 77.5t-72 214.5
q0 227 139 405q126 161 308 161q70 0 113.5 -24.5t80.5 -84.5zM1034 849q-91 0 -158 -138q-55 -114 -55 -227q0 -94 67 -94q88 0 162 123t74 235q0 46 -24.5 73.5t-65.5 27.5z" />
    <glyph glyph-name="A" unicode="A" horiz-adv-x="1276" 
d="M897 274h-511l-86 -274h-341l529 1462h305l530 -1462h-341zM822 525l-180 569l-181 -569h361z" />
    <glyph glyph-name="B" unicode="B" horiz-adv-x="1300" 
d="M164 0v1462h576q152 0 230 -26q121 -41 179 -144q55 -95 55 -229q0 -201 -125 -299q68 -57 91 -92q59 -95 59 -261q0 -231 -136 -334q-56 -43 -129 -60t-197 -17h-603zM476 869h242q85 0 125 31q49 39 49 140q0 92 -40 131.5t-134 39.5h-242v-342zM476 251h269
q85 0 124 33q48 42 48 151q0 98 -40 140.5t-132 42.5h-269v-367z" />
    <glyph glyph-name="C" unicode="C" horiz-adv-x="1270" 
d="M897 432l295 -35q-5 -87 -21 -139q-89 -281 -508 -281q-204 0 -316 69q-119 73 -167.5 190.5t-48.5 332.5v319q0 178 28 274q49 164 188 249q113 69 316 69q308 0 429 -171q69 -97 77 -263l-289 -20q-12 104 -63 152t-150 48q-75 0 -120.5 -27t-70.5 -87
q-30 -73 -30 -248v-271q0 -207 48 -284.5t176 -77.5q139 0 191 88q28 46 36 113z" />
    <glyph glyph-name="D" unicode="D" horiz-adv-x="1370" 
d="M164 0v1462h511q142 0 233 -23.5t161 -78.5q93 -73 131.5 -179t38.5 -290v-319q0 -129 -14.5 -205t-50.5 -143q-64 -117 -183.5 -170.5t-315.5 -53.5h-511zM479 251h137q182 0 242 69q66 75 66 276v270q0 201 -66 276q-60 69 -242 69h-137v-960z" />
    <glyph glyph-name="E" unicode="E" horiz-adv-x="1192" 
d="M166 0v1462h923v-256h-611v-340h516v-256h-516v-354h621v-256h-933z" />
    <glyph glyph-name="F" unicode="F" horiz-adv-x="1120" 
d="M166 0v1462h909v-256h-594v-351h496v-256h-496v-599h-315z" />
    <glyph glyph-name="G" unicode="G" horiz-adv-x="1349" 
d="M704 579v241h532v-253q0 -161 -22 -252t-78 -163q-71 -92 -179.5 -133.5t-277.5 -41.5q-212 0 -327 69q-122 73 -171.5 190.5t-49.5 332.5v319q0 178 29 275q49 163 192 248q115 69 323 69q316 0 440 -171q71 -98 79 -263l-289 -20q-13 104 -67 152t-159 48
q-79 0 -127 -27t-74 -86q-32 -74 -32 -248v-272q0 -207 51 -284.5t187 -77.5q126 0 183 63.5t57 203.5v81h-220z" />
    <glyph glyph-name="H" unicode="H" horiz-adv-x="1390" 
d="M164 0v1462h315v-596h432v596h315v-1462h-315v610h-432v-610h-315z" />
    <glyph glyph-name="I" unicode="I" horiz-adv-x="643" 
d="M164 0v1462h315v-1462h-315z" />
    <glyph glyph-name="J" unicode="J" horiz-adv-x="1008" 
d="M536 1462h316v-883q0 -186 -11.5 -272.5t-43.5 -145.5q-99 -184 -378 -184q-138 0 -243.5 44t-219.5 147l173 206q132 -143 255 -143q107 0 137 115q15 58 15 230v886z" />
    <glyph glyph-name="K" unicode="K" horiz-adv-x="1260" 
d="M168 0v1462h312v-589l430 589h369l-484 -602l505 -860h-365l-344 647l-111 -146v-501h-312z" />
    <glyph glyph-name="L" unicode="L" horiz-adv-x="1119" 
d="M164 0v1462h315v-1206h617v-256h-932z" />
    <glyph glyph-name="M" unicode="M" horiz-adv-x="1671" 
d="M164 0v1462h294l377 -785l378 785h294v-1462h-302v875l-269 -555h-201l-269 555v-875h-302z" />
    <glyph glyph-name="N" unicode="N" horiz-adv-x="1457" 
d="M164 0v1462h306l518 -936v936h305v-1462h-306l-518 936v-936h-305z" />
    <glyph glyph-name="O" unicode="O" horiz-adv-x="1369" 
d="M131 560v342q0 174 31 271q49 158 192 244q113 68 331 68t331 -68q123 -74 173 -189.5t50 -325.5v-342q0 -175 -30 -271q-50 -158 -193 -244q-113 -68 -331 -68t-331 68q-123 74 -173 189.5t-50 325.5zM924 586v290q0 200 -52.5 277.5t-186.5 77.5q-81 0 -128.5 -26
t-75.5 -84q-35 -76 -35 -245v-290q0 -200 52.5 -277.5t186.5 -77.5q80 0 128 26t76 84q35 76 35 245z" />
    <glyph glyph-name="P" unicode="P" horiz-adv-x="1235" 
d="M479 509v-509h-315v1462h500q176 0 267 -32q131 -46 191 -152t60 -291q0 -166 -44 -259q-56 -120 -163.5 -169.5t-310.5 -49.5h-185zM474 762h192q111 0 157.5 51.5t46.5 173.5t-46.5 173t-157.5 51h-192v-449z" />
    <glyph glyph-name="Q" unicode="Q" horiz-adv-x="1369" 
d="M1029 53q-67 -41 -147 -58.5t-197 -17.5q-218 0 -331 68q-123 74 -173 189.5t-50 325.5v342q0 174 31 271q49 158 192 244q113 68 331 68t331 -68q123 -74 173 -189.5t50 -325.5v-342q0 -121 -12 -194t-43 -139l133 -105l-149 -178zM785 245l-189 147l149 179l171 -133
q8 56 8 148v290q0 200 -52.5 277.5t-186.5 77.5q-81 0 -128.5 -26t-75.5 -84q-35 -76 -35 -245v-290q0 -199 52 -277t186 -78q55 0 101 14z" />
    <glyph glyph-name="R" unicode="R" horiz-adv-x="1314" 
d="M481 582v-582h-315v1462h555q162 0 248 -29q122 -42 179.5 -139t57.5 -262q0 -188 -61.5 -286.5t-202.5 -138.5l316 -607h-350l-274 582h-153zM476 824h219q100 0 145 37q54 44 54 156q0 106 -46.5 150t-157.5 44h-214v-387z" />
    <glyph glyph-name="S" unicode="S" horiz-adv-x="1175" 
d="M22 233l240 152q41 -68 97 -102q84 -52 223 -52q228 0 228 175q0 89 -62 129q-30 20 -60.5 29.5t-182.5 47.5q-202 50 -300 136q-117 101 -117 305q0 218 133 325q134 107 364 107q349 0 488 -239l-233 -148q-96 135 -261 135q-90 0 -139.5 -42.5t-49.5 -119.5
q0 -84 57.5 -129t215.5 -84q140 -35 195 -55t110 -56q144 -95 144 -326q0 -221 -120 -325q-138 -120 -412 -120q-253 0 -411 99q-87 54 -147 158z" />
    <glyph glyph-name="T" unicode="T" horiz-adv-x="1138" 
d="M411 0v1206h-388v256h1091v-256h-388v-1206h-315z" />
    <glyph glyph-name="U" unicode="U" horiz-adv-x="1396" 
d="M158 1462h315v-915q0 -160 31 -221q26 -52 70 -73.5t124 -21.5q86 0 131.5 25t69.5 86q24 59 24 205v915h315v-915q0 -168 -19 -249q-36 -152 -171 -242q-116 -79 -350 -79t-350 78q-134 91 -171 243q-19 81 -19 249v915z" />
    <glyph glyph-name="V" unicode="V" horiz-adv-x="1257" 
d="M490 0l-492 1462h315l316 -1045l315 1045h315l-492 -1462h-277z" />
    <glyph glyph-name="W" unicode="W" horiz-adv-x="1910" 
d="M409 0l-373 1462h315l216 -1042l266 1042h244l266 -1042l216 1042h315l-373 -1462h-283l-263 965l-263 -965h-283z" />
    <glyph glyph-name="X" unicode="X" horiz-adv-x="1214" 
d="M427 777l-408 685h345l271 -459l243 459h330l-411 -728l437 -734h-345l-300 507l-271 -507h-330z" />
    <glyph glyph-name="Y" unicode="Y" horiz-adv-x="1122" 
d="M407 0v527l-450 935h333l275 -625l273 625h335l-451 -935v-527h-315z" />
    <glyph glyph-name="Z" unicode="Z" horiz-adv-x="1172" 
d="M109 0v207l585 999h-556v256h911v-207l-585 -999h614v-256h-969z" />
    <glyph glyph-name="bracketleft" unicode="[" horiz-adv-x="929" 
d="M294 -201v1813h497v-216h-194v-1383h194v-214h-497z" />
    <glyph glyph-name="backslash" unicode="\" horiz-adv-x="819" 
d="M802 -40h-294l-491 1543h294z" />
    <glyph glyph-name="bracketright" unicode="]" horiz-adv-x="929" 
d="M635 1612v-1813h-497v216h194v1383h-194v214h497z" />
    <glyph glyph-name="asciicircum" unicode="^" 
d="M553 1115l-183 -353h-354l449 709h176l448 -709h-354z" />
    <glyph glyph-name="underscore" unicode="_" horiz-adv-x="963" 
d="M-51 -384v203h1065v-203h-1065z" />
    <glyph glyph-name="grave" unicode="`" horiz-adv-x="1024" 
d="M672 1186h-222l-282 324h332z" />
    <glyph glyph-name="a" unicode="a" horiz-adv-x="1098" 
d="M669 650v35q0 163 -156 163q-116 0 -198 -102l-205 144q140 195 434 195q300 0 386 -190q37 -82 37 -264v-631h-233l-18 56q-89 -79 -280 -79q-187 0 -272 73q-46 40 -66 102t-20 163q0 191 85 263t311 72h195zM669 454h-157q-83 0 -118 -30t-35 -101q0 -68 34 -95.5
t120 -27.5q102 0 136 51q20 30 20 116v87z" />
    <glyph glyph-name="b" unicode="b" horiz-adv-x="1163" 
d="M139 0v1462h298v-436q105 59 222 59q242 0 335 -157q63 -105 63 -321v-153q0 -236 -78 -344q-51 -69 -127.5 -101t-194.5 -32q-98 0 -154 18t-117 70l-18 -65h-229zM760 477v108q0 138 -38.5 200.5t-122.5 62.5q-162 0 -162 -204v-227q0 -203 161 -203q97 0 135 85
q27 61 27 178z" />
    <glyph glyph-name="c" unicode="c" horiz-adv-x="984" 
d="M754 319l220 -123q-128 -219 -420 -219q-263 0 -374 174q-74 117 -74 350v55q0 259 92 380q113 149 347 149q291 0 411 -219l-220 -124q-36 58 -74.5 82t-95.5 24q-103 0 -139 -97q-23 -63 -23 -167v-112q0 -131 42.5 -194.5t129.5 -63.5q110 0 178 105z" />
    <glyph glyph-name="d" unicode="d" horiz-adv-x="1163" 
d="M795 0l-18 65q-10 -8 -16 -13q-87 -75 -256 -75q-156 0 -241 56q-103 68 -137 210q-21 85 -21 211v153q0 236 78 345q97 133 317 133q89 0 169 -29l56 -30v436h298v-1462h-229zM403 585v-108q0 -139 38.5 -201t123.5 -62q161 0 161 203v227q0 204 -162 204
q-96 0 -134 -85q-27 -60 -27 -178z" />
    <glyph glyph-name="e" unicode="e" horiz-adv-x="1127" 
d="M406 455v-26q0 -223 198 -223q73 0 120.5 26t86.5 87l220 -124q-68 -117 -174.5 -167.5t-286.5 -50.5q-182 0 -282 61q-118 72 -158 224q-24 91 -24 227v68q0 262 88 380q58 78 146 112q94 36 232 36q249 0 357 -122.5t108 -405.5v-102h-631zM404 657h352v26
q0 89 -46 137t-131 48q-97 0 -141 -64q-34 -51 -34 -123v-24z" />
    <glyph glyph-name="f" unicode="f" horiz-adv-x="721" 
d="M181 826h-118v236h118v90q0 178 85 251q39 33 101 46t186 13h132v-218h-68q-93 0 -113 -19q-25 -23 -25 -96v-67h217v-236h-217v-826h-298v826z" />
    <glyph glyph-name="g" unicode="g" horiz-adv-x="1163" 
d="M727 35q-91 -58 -227 -58q-238 0 -331 156q-63 106 -63 321v153q0 236 78 345q96 133 320 133q171 0 262 -83l29 60h229v-1021q0 -256 -101 -377q-123 -148 -384 -148q-301 0 -415 219l221 124q36 -63 77.5 -88.5t105.5 -25.5q128 0 172 102q24 55 26 159zM403 585v-109
q0 -138 38.5 -200t123.5 -62q161 0 161 203v227q0 204 -162 204q-96 0 -134 -85q-27 -60 -27 -178z" />
    <glyph glyph-name="h" unicode="h" horiz-adv-x="1173" 
d="M137 0v1462h298v-440q65 38 112.5 50.5t121.5 12.5q265 0 341 -205q31 -83 31 -274v-606h-298v587q0 128 -36 185.5t-116 57.5q-82 0 -119 -61.5t-37 -197.5v-571h-298z" />
    <glyph glyph-name="i" unicode="i" horiz-adv-x="579" 
d="M140 1197v281h298v-281h-298zM140 0v1062h298v-1062h-298z" />
    <glyph glyph-name="j" unicode="j" horiz-adv-x="591" 
d="M152 1062h298v-1012q0 -204 -30 -297q-32 -99 -96.5 -147.5t-187.5 -65.5q-76 -11 -219 -11v241q84 0 124 11.5t67 44.5q44 54 44 194v1042zM152 1197v281h298v-281h-298z" />
    <glyph glyph-name="k" unicode="k" horiz-adv-x="1102" 
d="M139 0v1462h298v-848l336 448h339l-368 -451l379 -611h-325l-232 396l-129 -163v-233h-298z" />
    <glyph glyph-name="l" unicode="l" horiz-adv-x="645" 
d="M135 1462h298v-1007q0 -126 38 -170t147 -44h30v-241h-43q-165 0 -264 27q-115 32 -160.5 133.5t-45.5 324.5v977z" />
    <glyph glyph-name="m" unicode="m" horiz-adv-x="1704" 
d="M137 0v1062h224l21 -75q83 98 251 98q189 0 284 -120q82 120 282 120q271 0 344 -205q30 -83 30 -274v-606h-298v575q0 107 -17 162q-29 93 -118 93q-73 0 -104.5 -63t-31.5 -208v-559h-298v569q0 116 -18 172q-29 89 -116 89q-92 0 -121 -105q-16 -57 -16 -171v-554
h-298z" />
    <glyph glyph-name="n" unicode="n" horiz-adv-x="1173" 
d="M137 0v1062h223l25 -81q53 57 116 80.5t162 23.5q270 0 347 -205q31 -83 31 -274v-606h-298v572q0 110 -19 165q-33 93 -130 93q-88 0 -123.5 -62.5t-35.5 -216.5v-551h-298z" />
    <glyph glyph-name="o" unicode="o" horiz-adv-x="1147" 
d="M106 452v159q0 234 89 341q111 133 379 133q249 0 358 -110.5t109 -363.5v-159q0 -235 -89 -342q-111 -133 -379 -133q-249 0 -358 110.5t-109 364.5zM743 474v115q0 141 -38.5 200t-130.5 59q-110 0 -145 -82q-25 -60 -25 -177v-115q0 -142 38.5 -201t131.5 -59
q109 0 144 82q25 60 25 178z" />
    <glyph glyph-name="p" unicode="p" horiz-adv-x="1163" 
d="M139 -461v1523h229l29 -59q106 82 260 82q156 0 242 -56q102 -67 137 -210q21 -85 21 -212v-153q0 -236 -78 -344q-50 -69 -127 -101t-194 -32q-113 0 -221 57v-495h-298zM760 476v109q0 138 -38.5 200.5t-122.5 62.5q-162 0 -162 -204v-227q0 -203 161 -203q97 0 135 85
q27 60 27 177z" />
    <glyph glyph-name="q" unicode="q" horiz-adv-x="1163" 
d="M726 -461l1 495q-109 -57 -222 -57q-155 0 -241 56q-102 67 -137 210q-21 85 -21 211v153q0 236 78 345q50 69 127.5 101t193.5 32q155 0 261 -82l29 59h229v-1523h-298zM403 585v-109q0 -138 38.5 -200t123.5 -62q161 0 161 203v227q0 204 -162 204q-96 0 -134 -85
q-27 -60 -27 -178z" />
    <glyph glyph-name="r" unicode="r" horiz-adv-x="816" 
d="M137 0v1062h227l38 -67q53 51 97 70.5t107 19.5q109 0 236 -70l-128 -246q-76 60 -140 60q-73 0 -106 -75t-33 -243v-511h-298z" />
    <glyph glyph-name="s" unicode="s" horiz-adv-x="1018" 
d="M38 195l219 125q42 -66 86.5 -89t131.5 -23q188 0 188 114q0 43 -28 63.5t-95 27.5q-142 15 -196.5 26t-106.5 35q-145 67 -145 263q0 165 96 253q103 95 302 95q157 0 260.5 -52.5t169.5 -165.5l-220 -125q-36 62 -78 86.5t-111 24.5q-66 0 -102 -26.5t-36 -76.5
q0 -46 33 -65.5t129 -28.5q223 -21 309 -80q100 -70 100 -257q0 -204 -143 -280q-117 -62 -314 -62q-343 0 -449 218z" />
    <glyph glyph-name="t" unicode="t" horiz-adv-x="721" 
d="M163 826h-116v236h116l18 297h280v-297h212v-236h-212v-371q0 -126 38 -170t146 -44h25v-241h-36q-153 0 -240.5 19.5t-136.5 65.5q-51 48 -72.5 138.5t-21.5 261.5v341z" />
    <glyph glyph-name="u" unicode="u" horiz-adv-x="1152" 
d="M131 1062h298v-572q0 -110 18 -165q30 -93 124 -93q80 0 113 63t33 216v551h298v-1062h-201l-38 89q-30 -43 -63 -65q-72 -47 -208 -47q-269 0 -344 205q-30 82 -30 274v606z" />
    <glyph glyph-name="v" unicode="v" horiz-adv-x="1049" 
d="M381 0l-358 1062h303l199 -706l200 706h302l-357 -1062h-289z" />
    <glyph glyph-name="w" unicode="w" horiz-adv-x="1600" 
d="M355 0l-311 1062h303l153 -704l194 704h212l194 -704l153 704h303l-311 -1062h-258l-187 616l-187 -616h-258z" />
    <glyph glyph-name="x" unicode="x" horiz-adv-x="1021" 
d="M347 543l-324 519h336l179 -289l170 289h322l-346 -520l339 -542h-336l-191 307l-177 -307h-323z" />
    <glyph glyph-name="y" unicode="y" horiz-adv-x="1051" 
d="M371 27l-350 1035h301l206 -715l195 715h303l-369 -1119q-57 -176 -124 -276q-39 -61 -99.5 -90.5t-163.5 -39.5q-81 -8 -178 -8v241q114 0 158 22q54 27 101 173z" />
    <glyph glyph-name="z" unicode="z" horiz-adv-x="992" 
d="M66 0v187l434 636h-396v239h765v-187l-434 -636h464v-239h-833z" />
    <glyph glyph-name="braceleft" unicode="{" horiz-adv-x="929" 
d="M480 729q62 -29 90 -81q18 -33 22.5 -69t4.5 -156v-170q0 -159 27 -206q30 -49 128 -49h50v-199h-121q-135 0 -205.5 18.5t-112.5 64.5q-43 47 -56 112.5t-13 229.5v219q0 97 -3.5 122.5t-20.5 44.5q-28 31 -108 31h-18v176h18q80 0 108 32q17 19 20.5 44t3.5 122v172
q0 164 13 229.5t56 112.5q42 47 112 65t206 18h121v-199h-50q-98 0 -126.5 -46.5t-28.5 -208.5v-123q0 -124 -5 -161t-25 -71q-23 -37 -87 -74z" />
    <glyph glyph-name="bar" unicode="|" 
d="M424 -201v1813h257v-1813h-257z" />
    <glyph glyph-name="braceright" unicode="}" horiz-adv-x="929" 
d="M449 729q-64 37 -87 74q-20 34 -25 71.5t-5 160.5v123q0 93 -6 136t-22 70q-29 49 -127 49h-50v199h121q136 0 206 -18t112 -65q43 -47 56 -112.5t13 -229.5v-172q0 -97 3.5 -122t20.5 -44q28 -32 108 -32h18v-176h-18q-80 0 -108 -31q-17 -19 -20.5 -44.5t-3.5 -122.5
v-219q0 -164 -13 -229.5t-56 -112.5q-42 -46 -112.5 -64.5t-205.5 -18.5h-121v199h50q98 0 126.5 46.5t28.5 208.5v170q0 119 4.5 155.5t22.5 69.5q27 51 90 81z" />
    <glyph glyph-name="asciitilde" unicode="~" 
d="M253 548l-174 38q35 145 87 212q80 102 219 102q54 0 92.5 -12t101.5 -50q109 -65 153 -65q72 0 127 119l168 -51q-38 -120 -87 -181q-89 -109 -222 -109q-57 0 -100 16t-133 72q-64 39 -111 39q-77 0 -121 -130z" />
    <glyph glyph-name="uni00A0" unicode="&#xa0;" horiz-adv-x="410" 
 />
    <glyph glyph-name="exclamdown" unicode="&#xa1;" horiz-adv-x="711" 
d="M479 632l47 -1034h-339l46 1034h246zM506 1060v-287h-300v287h300z" />
    <glyph glyph-name="cent" unicode="&#xa2;" 
d="M448 17v254q-307 70 -301 503v57q0 226 73.5 351.5t227.5 158.5v235h307v-242q159 -49 235 -193l-214 -119q-37 58 -76 82t-96 24q-106 0 -144 -99q-23 -62 -23 -171v-113q0 -262 174 -262q115 0 183 105l214 -119q-85 -146 -253 -194v-258h-307z" />
    <glyph glyph-name="sterling" unicode="&#xa3;" 
d="M99 0v221q113 26 172.5 92t59.5 166q0 41 -14 91h-221v256h101q-57 130 -57 242q0 208 116 316q109 101 315 101q249 0 371 -138q56 -63 108 -196l-250 -103q-39 82 -64 115q-56 75 -148 75q-64 0 -100 -36.5t-36 -100.5q0 -67 18.5 -124.5t68.5 -150.5h343v-256h-265
q9 -46 9 -75q0 -78 -25.5 -133t-86.5 -106h574v-256h-989z" />
    <glyph glyph-name="currency" unicode="&#xa4;" 
d="M136 113l-150 136l177 186q-72 120 -72 246t72 246l-177 186l150 136l168 -177q62 39 116.5 54t134.5 15q78 0 131 -14.5t116 -54.5l168 177l150 -136l-177 -186q72 -119 72 -246t-72 -246l177 -186l-150 -136l-168 176q-61 -38 -115.5 -53t-132.5 -15q-80 0 -134.5 15
t-115.5 53zM556 930q-103 0 -160.5 -66t-57.5 -184q0 -115 57.5 -181.5t157.5 -66.5t157.5 66.5t57.5 182.5q0 111 -53 177q-58 72 -159 72z" />
    <glyph glyph-name="yen" unicode="&#xa5;" 
d="M399 0v274h-287v166h287v88h-287v166h209l-369 768h334l271 -619l270 619h334l-369 -768h209v-166h-287v-88h287v-166h-287v-274h-315z" />
    <glyph glyph-name="brokenbar" unicode="&#xa6;" horiz-adv-x="1024" 
d="M368 874v588h286v-588h-286zM368 0v560h286v-560h-286z" />
    <glyph glyph-name="section" unicode="&#xa7;" 
d="M235 871q-55 41 -79.5 96.5t-24.5 137.5q0 183 121 287q108 93 299 93q149 0 252 -48.5t179 -154.5l-210 -138q-80 97 -197 97q-65 0 -103 -28t-38 -74q0 -54 47 -84q24 -16 48 -24.5t146 -45.5q198 -61 273 -136q83 -82 83 -220q0 -89 -33 -152t-112 -125q54 -42 77 -93
t23 -129q0 -186 -129 -289q-116 -93 -319 -93q-167 0 -285 53t-201 166l209 137q106 -112 254 -112q77 0 122 28t45 75q0 50 -47 80q-25 17 -49 25.5t-144 43.5q-193 56 -273 131q-83 77 -83 208q0 94 35 161t114 127zM432 781q-4 -3 -23 -21q-37 -36 -37 -102
q0 -68 43 -104q48 -41 201 -90l72 -24q6 7 22 22q35 32 35 88q0 74 -45 115q-44 42 -198 93z" />
    <glyph glyph-name="dieresis" unicode="&#xa8;" horiz-adv-x="1024" 
d="M177 1191v274h264v-274h-264zM583 1191v274h264v-274h-264z" />
    <glyph glyph-name="copyright" unicode="&#xa9;" horiz-adv-x="1711" 
d="M984 608l213 -19q-5 -102 -63 -151q-80 -69 -274 -69q-195 0 -278 94q-61 69 -61 228v81q0 94 16.5 148t58.5 93q84 80 263 80q168 0 243 -52.5t82 -174.5l-211 -11q-12 77 -107 77q-64 0 -89 -30t-25 -107v-128q0 -77 25 -107t89 -30q104 0 118 78zM867 1504
q331 0 555 -221t224 -552q0 -330 -224 -552q-223 -221 -566 -221q-344 0 -567 221q-224 222 -224 550q0 234 117 421q108 174 297 270q166 84 388 84zM865 1309q-260 0 -420 -173q-149 -161 -149 -407q0 -241 149 -403q160 -173 412 -173q251 0 411 173q149 162 149 405
q0 247 -149 405q-164 173 -403 173z" />
    <glyph glyph-name="ordfeminine" unicode="&#xaa;" horiz-adv-x="741" 
d="M434 1186v45q0 88 -92 88q-66 0 -134 -63l-127 101q56 65 121.5 92t167.5 27q203 0 260 -114q25 -50 25 -164v-431h-176l-7 38q-62 -51 -178 -51q-131 0 -187.5 49.5t-56.5 162.5q0 126 65.5 173t242.5 47h76zM445 1057h-80q-59 0 -83.5 -17.5t-24.5 -60.5q0 -40 22 -58
t71 -18q95 0 95 68v86z" />
    <glyph glyph-name="guillemotleft" unicode="&#xab;" horiz-adv-x="1044" 
d="M829 604l169 -259l-185 -126l-303 385l303 385l185 -126zM359 604l170 -259l-185 -126l-304 385l304 385l185 -126z" />
    <glyph glyph-name="logicalnot" unicode="&#xac;" 
d="M99 605v235h856v-633h-286v398h-570z" />
    <glyph glyph-name="uni00AD" unicode="&#xad;" horiz-adv-x="949" 
d="M142 594v256h664v-256h-664z" />
    <glyph glyph-name="registered" unicode="&#xae;" horiz-adv-x="1522" 
d="M694 1106v-208h-193v576h292q142 0 197 -42q60 -45 60 -140q0 -69 -23 -105.5t-82 -60.5l138 -228h-206l-112 208h-71zM689 1206h92q79 0 79 71q0 70 -81 70h-90v-141zM770 1813q258 0 441 -169q195 -179 195 -458q0 -278 -195 -458q-182 -169 -449 -169q-269 0 -451 169
q-195 180 -195 457q0 185 91 334t257 229q136 65 306 65zM768 1636q-209 0 -327 -123q-126 -132 -126 -328q0 -194 126 -326q118 -123 321 -123q201 0 319 123q126 132 126 327q0 196 -126 327q-119 123 -313 123z" />
    <glyph glyph-name="macron" unicode="&#xaf;" horiz-adv-x="1024" 
d="M181 1225v212h663v-212h-663z" />
    <glyph glyph-name="degree" unicode="&#xb0;" horiz-adv-x="906" 
d="M458 1527q173 0 271 -85q52 -44 81 -116q32 -79 32 -167q0 -85 -30 -161t-83 -121q-98 -85 -276 -85q-180 0 -277 85q-52 45 -82.5 121t-30.5 160q0 87 30.5 164t82.5 120q100 85 282 85zM455 1323q-81 0 -119 -39.5t-38 -124.5q0 -163 155 -163q154 0 154 163
q0 164 -152 164z" />
    <glyph glyph-name="plusminus" unicode="&#xb1;" 
d="M93 655v236h331v321h257v-321h332v-236h-332v-317h-257v317h-331zM93 0v235h920v-235h-920z" />
    <glyph glyph-name="uni00B2" unicode="&#xb2;" horiz-adv-x="737" 
d="M62 790v145l254 286q55 61 87 119t32 95q0 29 -20 47t-52 18q-82 0 -96 -112l-221 16q11 139 68 196q81 82 258 82q302 0 302 -255q0 -103 -61 -196q-30 -47 -134 -160l-89 -99h280v-182h-608z" />
    <glyph glyph-name="uni00B3" unicode="&#xb3;" horiz-adv-x="736" 
d="M227 1175v153h86q49 0 79.5 25t30.5 66q0 35 -22.5 57t-58.5 22q-77 0 -94 -88l-214 16q10 128 67 181q81 73 254 73q307 0 307 -249q0 -121 -79 -177q55 -38 78.5 -84.5t23.5 -119.5q0 -130 -65 -194q-82 -79 -263 -79q-206 0 -291 94q-45 51 -55 170l225 26
q8 -57 34.5 -82.5t78.5 -25.5q97 0 97 94q0 122 -121 122h-98z" />
    <glyph glyph-name="acute" unicode="&#xb4;" horiz-adv-x="1024" 
d="M354 1186l172 324h332l-282 -324h-222z" />
    <glyph glyph-name="uni00B5" unicode="&#xb5;" 
d="M115 1060h290v-573q0 -112 19 -168q32 -95 125 -95q56 0 89 27.5t49 88.5q15 57 15 171v549h290v-1060h-193l-40 98q-25 -46 -55 -70q-62 -51 -182 -51q-57 0 -117 26v-464h-290v1521z" />
    <glyph glyph-name="paragraph" unicode="&#xb6;" horiz-adv-x="1380" 
d="M429 -278v933h-42q-90 0 -135.5 9.5t-94.5 37.5q-87 50 -137 145.5t-50 212.5q0 169 94 280q87 103 233 117q49 5 215 5h664v-1740h-279v1498h-189v-1498h-279z" />
    <glyph glyph-name="periodcentered" unicode="&#xb7;" horiz-adv-x="604" 
d="M145 579v286h315v-286h-315z" />
    <glyph glyph-name="cedilla" unicode="&#xb8;" horiz-adv-x="1024" 
d="M330 -497l99 372h284l-182 -372h-201z" />
    <glyph glyph-name="uni00B9" unicode="&#xb9;" horiz-adv-x="581" 
d="M202 791v656l-143 -50l-62 166l284 104h160v-876h-239z" />
    <glyph glyph-name="ordmasculine" unicode="&#xba;" horiz-adv-x="751" 
d="M58 1043v143q0 157 73 223.5t245 66.5q199 0 269 -94q49 -64 49 -196v-143q0 -156 -73 -222.5t-245 -66.5q-198 0 -269 93q-49 63 -49 196zM472 1055v119q0 69 -23 101.5t-73 32.5t-73 -32.5t-23 -101.5v-119q0 -69 23 -101t73 -32t73 32t23 101z" />
    <glyph glyph-name="guillemotright" unicode="&#xbb;" horiz-adv-x="1044" 
d="M214 604l-169 259l185 126l304 -385l-304 -385l-185 126zM684 604l-169 259l185 126l303 -385l-303 -385l-185 126z" />
    <glyph glyph-name="onequarter" unicode="&#xbc;" horiz-adv-x="1871" 
d="M268 586v656l-143 -50l-62 166l284 104h160v-876h-239zM1431 0v134h-382v134l293 609h250l-273 -565h112v146h208v-146h81v-179h-81v-133h-208zM466 0l464 1462h277l-464 -1462h-277z" />
    <glyph glyph-name="onehalf" unicode="&#xbd;" horiz-adv-x="1871" 
d="M267 586v656l-143 -50l-62 166l284 104h160v-876h-239zM1113 0v145l254 286q55 62 87 119.5t32 94.5q0 29 -20 47t-52 18q-81 0 -95 -112l-222 16q11 139 68 196q82 82 258 82q302 0 302 -255q0 -104 -61 -196q-30 -47 -133 -160l-90 -99h280v-182h-608zM460 0l465 1462
h276l-464 -1462h-277z" />
    <glyph glyph-name="threequarters" unicode="&#xbe;" horiz-adv-x="1871" 
d="M231 970v153h86q49 0 79.5 25t30.5 66q0 35 -22.5 57t-58.5 22q-77 0 -94 -88l-214 16q9 128 67 181q81 73 254 73q307 0 307 -249q0 -122 -79 -177q56 -38 79 -84.5t23 -119.5q0 -130 -65 -194q-82 -79 -263 -79q-206 0 -291 94q-45 51 -55 170l225 26q7 -50 25 -72
q29 -36 88 -36q97 0 97 94q0 122 -121 122h-98zM1501 0v134h-381v134l292 609h249l-272 -565h112v146h208v-146h82v-179h-82v-133h-208zM579 0l465 1462h276l-464 -1462h-277z" />
    <glyph glyph-name="questiondown" unicode="&#xbf;" horiz-adv-x="1181" 
d="M748 641v-81q0 -135 -33.5 -203t-152.5 -171q-79 -70 -107.5 -116t-28.5 -105q0 -64 40 -101t109 -37q80 0 125 50.5t80 178.5l292 -48q-36 -183 -125 -286q-128 -149 -378 -149q-251 0 -363 132q-92 109 -92 278q0 148 98 261q42 49 158 144q73 61 103 108t30 103v42
h245zM775 1060v-287h-300v287h300z" />
    <glyph glyph-name="Agrave" unicode="&#xc0;" horiz-adv-x="1276" 
d="M897 274h-511l-86 -274h-341l529 1462h305l530 -1462h-341zM822 525l-180 569l-181 -569h361zM775 1587h-222l-282 324h332z" />
    <glyph glyph-name="Aacute" unicode="&#xc1;" horiz-adv-x="1276" 
d="M897 274h-511l-86 -274h-341l529 1462h305l530 -1462h-341zM822 525l-180 569l-181 -569h361zM509 1587l172 324h332l-282 -324h-222z" />
    <glyph glyph-name="Acircumflex" unicode="&#xc2;" horiz-adv-x="1276" 
d="M897 274h-511l-86 -274h-341l529 1462h305l530 -1462h-341zM822 525l-180 569l-181 -569h361zM638 1746l-111 -157h-279l281 320h218l282 -320h-279z" />
    <glyph glyph-name="Atilde" unicode="&#xc3;" horiz-adv-x="1276" 
d="M897 274h-511l-86 -274h-341l529 1462h305l530 -1462h-341zM822 525l-180 569l-181 -569h361zM436 1592h-178q26 138 53 190q65 130 201 130q91 0 163 -61q51 -44 66 -53.5t34 -9.5q50 0 66 109h178q-17 -131 -41 -189q-54 -131 -201 -131q-99 0 -175 69q-40 36 -55 45.5
t-33 9.5q-28 0 -49.5 -30t-28.5 -79z" />
    <glyph glyph-name="Adieresis" unicode="&#xc4;" horiz-adv-x="1276" 
d="M897 274h-511l-86 -274h-341l529 1462h305l530 -1462h-341zM822 525l-180 569l-181 -569h361zM298 1593v274h264v-274h-264zM714 1593v274h264v-274h-264z" />
    <glyph glyph-name="Aring" unicode="&#xc5;" horiz-adv-x="1276" 
d="M897 274h-511l-86 -274h-341l529 1462h305l530 -1462h-341zM822 525l-180 569l-181 -569h361zM641 2047q116 0 188 -61q79 -66 79 -176q0 -109 -75 -176.5t-196 -67.5q-117 0 -191 65q-80 69 -80 178q0 110 74 174t201 64zM639 1912q-93 0 -93 -105q0 -106 89 -106
q93 0 93 105q0 106 -89 106z" />
    <glyph glyph-name="AE" unicode="&#xc6;" horiz-adv-x="1971" 
d="M947 309h-537l-182 -309h-364l932 1462h1072v-256h-611v-340h517v-256h-517v-354h621v-256h-931v309zM947 562v644h-12l-381 -644h393z" />
    <glyph glyph-name="Ccedilla" unicode="&#xc7;" horiz-adv-x="1270" 
d="M897 432l295 -35q-5 -87 -21 -139q-89 -281 -508 -281q-204 0 -316 69q-119 73 -167.5 190.5t-48.5 332.5v319q0 178 28 274q49 164 188 249q113 69 316 69q308 0 429 -171q69 -97 77 -263l-289 -20q-12 104 -63 152t-150 48q-75 0 -120.5 -27t-70.5 -87
q-30 -73 -30 -248v-271q0 -207 48 -284.5t176 -77.5q139 0 191 88q28 46 36 113zM425 -497l99 372h284l-182 -372h-201z" />
    <glyph glyph-name="Egrave" unicode="&#xc8;" horiz-adv-x="1192" 
d="M166 0v1462h923v-256h-611v-340h516v-256h-516v-354h621v-256h-933zM802 1587h-222l-282 324h332z" />
    <glyph glyph-name="Eacute" unicode="&#xc9;" horiz-adv-x="1192" 
d="M166 0v1462h923v-256h-611v-340h516v-256h-516v-354h621v-256h-933zM490 1587l172 324h332l-282 -324h-222z" />
    <glyph glyph-name="Ecircumflex" unicode="&#xca;" horiz-adv-x="1192" 
d="M166 0v1462h923v-256h-611v-340h516v-256h-516v-354h621v-256h-933zM625 1746l-111 -157h-279l281 320h218l282 -320h-279z" />
    <glyph glyph-name="Edieresis" unicode="&#xcb;" horiz-adv-x="1192" 
d="M166 0v1462h923v-256h-611v-340h516v-256h-516v-354h621v-256h-933zM301 1593v274h264v-274h-264zM717 1593v274h264v-274h-264z" />
    <glyph glyph-name="Igrave" unicode="&#xcc;" horiz-adv-x="643" 
d="M164 0v1462h315v-1462h-315zM464 1587h-222l-282 324h332z" />
    <glyph glyph-name="Iacute" unicode="&#xcd;" horiz-adv-x="643" 
d="M159 0v1462h315v-1462h-315zM176 1587l172 324h332l-282 -324h-222z" />
    <glyph glyph-name="Icircumflex" unicode="&#xce;" horiz-adv-x="643" 
d="M164 0v1462h315v-1462h-315zM321 1746l-111 -157h-279l281 320h218l282 -320h-279z" />
    <glyph glyph-name="Idieresis" unicode="&#xcf;" horiz-adv-x="643" 
d="M164 0v1462h315v-1462h-315zM-18 1593v274h264v-274h-264zM398 1593v274h264v-274h-264z" />
    <glyph glyph-name="Eth" unicode="&#xd0;" horiz-adv-x="1370" 
d="M164 862v600h511q142 0 233 -23.5t161 -78.5q93 -73 131.5 -179.5t38.5 -290.5v-319q0 -127 -14.5 -203.5t-51.5 -143.5q-63 -117 -183 -170.5t-315 -53.5h-511v613h-146v249h146zM479 862h229v-249h-229v-362h137q182 0 242 69q66 75 66 275v271q0 200 -66 276
q-60 69 -242 69h-137v-349z" />
    <glyph glyph-name="Ntilde" unicode="&#xd1;" horiz-adv-x="1457" 
d="M164 0v1462h306l518 -936v936h305v-1462h-306l-518 936v-936h-305zM528 1592h-178q26 138 53 190q65 130 201 130q91 0 163 -61q51 -44 66 -53.5t34 -9.5q50 0 66 109h178q-17 -131 -41 -189q-54 -131 -201 -131q-99 0 -175 69q-40 36 -55 45.5t-33 9.5q-28 0 -49.5 -30
t-28.5 -79z" />
    <glyph glyph-name="Ograve" unicode="&#xd2;" horiz-adv-x="1369" 
d="M131 560v342q0 174 31 271q49 158 192 244q113 68 331 68t331 -68q123 -74 173 -189.5t50 -325.5v-342q0 -175 -30 -271q-50 -158 -193 -244q-113 -68 -331 -68t-331 68q-123 74 -173 189.5t-50 325.5zM924 586v290q0 200 -52.5 277.5t-186.5 77.5q-81 0 -128.5 -26
t-75.5 -84q-35 -76 -35 -245v-290q0 -200 52.5 -277.5t186.5 -77.5q80 0 128 26t76 84q35 76 35 245zM845 1587h-222l-282 324h332z" />
    <glyph glyph-name="Oacute" unicode="&#xd3;" horiz-adv-x="1369" 
d="M131 560v342q0 174 31 271q49 158 192 244q113 68 331 68t331 -68q123 -74 173 -189.5t50 -325.5v-342q0 -175 -30 -271q-50 -158 -193 -244q-113 -68 -331 -68t-331 68q-123 74 -173 189.5t-50 325.5zM924 586v290q0 200 -52.5 277.5t-186.5 77.5q-81 0 -128.5 -26
t-75.5 -84q-35 -76 -35 -245v-290q0 -200 52.5 -277.5t186.5 -77.5q80 0 128 26t76 84q35 76 35 245zM527 1587l172 324h332l-282 -324h-222z" />
    <glyph glyph-name="Ocircumflex" unicode="&#xd4;" horiz-adv-x="1369" 
d="M131 560v342q0 174 31 271q49 158 192 244q113 68 331 68t331 -68q123 -74 173 -189.5t50 -325.5v-342q0 -175 -30 -271q-50 -158 -193 -244q-113 -68 -331 -68t-331 68q-123 74 -173 189.5t-50 325.5zM924 586v290q0 200 -52.5 277.5t-186.5 77.5q-81 0 -128.5 -26
t-75.5 -84q-35 -76 -35 -245v-290q0 -200 52.5 -277.5t186.5 -77.5q80 0 128 26t76 84q35 76 35 245zM684 1746l-111 -157h-279l281 320h218l282 -320h-279z" />
    <glyph glyph-name="Otilde" unicode="&#xd5;" horiz-adv-x="1369" 
d="M131 560v342q0 174 31 271q49 158 192 244q113 68 331 68t331 -68q123 -74 173 -189.5t50 -325.5v-342q0 -175 -30 -271q-50 -158 -193 -244q-113 -68 -331 -68t-331 68q-123 74 -173 189.5t-50 325.5zM924 586v290q0 200 -52.5 277.5t-186.5 77.5q-81 0 -128.5 -26
t-75.5 -84q-35 -76 -35 -245v-290q0 -200 52.5 -277.5t186.5 -77.5q80 0 128 26t76 84q35 76 35 245zM482 1592h-178q26 138 53 190q65 130 201 130q91 0 163 -61q51 -44 66 -53.5t34 -9.5q50 0 66 109h178q-17 -131 -41 -189q-54 -131 -201 -131q-99 0 -175 69
q-40 36 -55 45.5t-33 9.5q-28 0 -49.5 -30t-28.5 -79z" />
    <glyph glyph-name="Odieresis" unicode="&#xd6;" horiz-adv-x="1369" 
d="M131 560v342q0 174 31 271q49 158 192 244q113 68 331 68t331 -68q123 -74 173 -189.5t50 -325.5v-342q0 -175 -30 -271q-50 -158 -193 -244q-113 -68 -331 -68t-331 68q-123 74 -173 189.5t-50 325.5zM924 586v290q0 200 -52.5 277.5t-186.5 77.5q-81 0 -128.5 -26
t-75.5 -84q-35 -76 -35 -245v-290q0 -200 52.5 -277.5t186.5 -77.5q80 0 128 26t76 84q35 76 35 245zM345 1593v274h264v-274h-264zM761 1593v274h264v-274h-264z" />
    <glyph glyph-name="multiply" unicode="&#xd7;" 
d="M389 724l-273 273l164 164l273 -273l272 273l165 -164l-273 -273l273 -273l-165 -164l-272 273l-273 -273l-164 164z" />
    <glyph glyph-name="Oslash" unicode="&#xd8;" horiz-adv-x="1369" 
d="M1178 1247q34 -69 47 -144.5t13 -200.5v-342q0 -175 -31 -271q-50 -159 -192 -244q-114 -68 -335 -68q-203 0 -314 61l-71 -105l-200 139l95 142q-34 70 -47 145t-13 201v342q0 175 30 271q50 159 192 244q115 68 335 68q205 0 316 -61l70 104l200 -139zM923 866
l-397 -589q52 -46 161 -46q78 0 126 26t74 84q36 76 36 245v280zM445 594l397 591q-54 46 -160 46q-79 0 -127 -26t-75 -84q-35 -76 -35 -245v-282z" />
    <glyph glyph-name="Ugrave" unicode="&#xd9;" horiz-adv-x="1396" 
d="M158 1462h315v-915q0 -160 31 -221q26 -52 70 -73.5t124 -21.5q86 0 131.5 25t69.5 86q24 59 24 205v915h315v-915q0 -168 -19 -249q-36 -152 -171 -242q-116 -79 -350 -79t-350 78q-134 91 -171 243q-19 81 -19 249v915zM864 1587h-222l-282 324h332z" />
    <glyph glyph-name="Uacute" unicode="&#xda;" horiz-adv-x="1396" 
d="M158 1462h315v-915q0 -160 31 -221q26 -52 70 -73.5t124 -21.5q86 0 131.5 25t69.5 86q24 59 24 205v915h315v-915q0 -168 -19 -249q-36 -152 -171 -242q-116 -79 -350 -79t-350 78q-134 91 -171 243q-19 81 -19 249v915zM554 1587l172 324h332l-282 -324h-222z" />
    <glyph glyph-name="Ucircumflex" unicode="&#xdb;" horiz-adv-x="1396" 
d="M158 1462h315v-915q0 -160 31 -221q26 -52 70 -73.5t124 -21.5q86 0 131.5 25t69.5 86q24 59 24 205v915h315v-915q0 -168 -19 -249q-36 -152 -171 -242q-116 -79 -350 -79t-350 78q-134 91 -171 243q-19 81 -19 249v915zM698 1746l-111 -157h-279l281 320h218l282 -320
h-279z" />
    <glyph glyph-name="Udieresis" unicode="&#xdc;" horiz-adv-x="1396" 
d="M158 1462h315v-915q0 -160 31 -221q26 -52 70 -73.5t124 -21.5q86 0 131.5 25t69.5 86q24 59 24 205v915h315v-915q0 -168 -19 -249q-36 -152 -171 -242q-116 -79 -350 -79t-350 78q-134 91 -171 243q-19 81 -19 249v915zM358 1593v274h264v-274h-264zM774 1593v274h264
v-274h-264z" />
    <glyph glyph-name="Yacute" unicode="&#xdd;" horiz-adv-x="1122" 
d="M407 0v527l-450 935h333l275 -625l273 625h335l-451 -935v-527h-315zM429 1587l172 324h332l-282 -324h-222z" />
    <glyph glyph-name="Thorn" unicode="&#xde;" horiz-adv-x="1235" 
d="M479 288v-288h-315v1462h315v-221h185q176 0 267 -32q131 -46 191 -152t60 -291q0 -166 -44 -259q-56 -120 -163.5 -169.5t-310.5 -49.5h-185zM478 541h188q111 0 157.5 51.5t46.5 173.5q0 123 -46 173.5t-158 50.5h-187z" />
    <glyph glyph-name="germandbls" unicode="&#xdf;" horiz-adv-x="1176" 
d="M137 0v1049q0 211 89 312q105 119 348 119q206 0 319 -87q109 -83 109 -246q0 -75 -18.5 -127t-71.5 -123q169 -99 167 -373v-59q0 -295 -127 -390q-100 -75 -313 -75h-84v235h48q118 0 150 46q29 42 29 165v95q0 125 -34 164.5t-144 39.5h-30v212h35q68 0 96 42
q24 35 24 112q0 74 -33 106q-35 34 -110 34q-84 0 -117.5 -43.5t-33.5 -154.5v-1053h-298z" />
    <glyph glyph-name="agrave" unicode="&#xe0;" horiz-adv-x="1098" 
d="M669 650v35q0 163 -156 163q-116 0 -198 -102l-205 144q140 195 434 195q300 0 386 -190q37 -82 37 -264v-631h-233l-18 56q-89 -79 -280 -79q-187 0 -272 73q-46 40 -66 102t-20 163q0 191 85 263t311 72h195zM669 454h-157q-83 0 -118 -30t-35 -101q0 -68 34 -95.5
t120 -27.5q102 0 136 51q20 30 20 116v87zM735 1186h-222l-282 324h332z" />
    <glyph glyph-name="aacute" unicode="&#xe1;" horiz-adv-x="1098" 
d="M669 650v35q0 163 -156 163q-116 0 -198 -102l-205 144q140 195 434 195q300 0 386 -190q37 -82 37 -264v-631h-233l-18 56q-89 -79 -280 -79q-187 0 -272 73q-46 40 -66 102t-20 163q0 191 85 263t311 72h195zM669 454h-157q-83 0 -118 -30t-35 -101q0 -68 34 -95.5
t120 -27.5q102 0 136 51q20 30 20 116v87zM425 1186l172 324h332l-282 -324h-222z" />
    <glyph glyph-name="acircumflex" unicode="&#xe2;" horiz-adv-x="1098" 
d="M669 650v35q0 163 -156 163q-116 0 -198 -102l-205 144q140 195 434 195q300 0 386 -190q37 -82 37 -264v-631h-233l-18 56q-89 -79 -280 -79q-187 0 -272 73q-46 40 -66 102t-20 163q0 191 85 263t311 72h195zM669 454h-157q-83 0 -118 -30t-35 -101q0 -68 34 -95.5
t120 -27.5q102 0 136 51q20 30 20 116v87zM548 1344l-111 -156h-279l281 320h218l282 -320h-279z" />
    <glyph glyph-name="atilde" unicode="&#xe3;" horiz-adv-x="1098" 
d="M669 650v35q0 163 -156 163q-116 0 -198 -102l-205 144q140 195 434 195q300 0 386 -190q37 -82 37 -264v-631h-233l-18 56q-89 -79 -280 -79q-187 0 -272 73q-46 40 -66 102t-20 163q0 191 85 263t311 72h195zM669 454h-157q-83 0 -118 -30t-35 -101q0 -68 34 -95.5
t120 -27.5q102 0 136 51q20 30 20 116v87zM346 1190h-178q27 139 53 190q65 131 201 131q91 0 163 -61q51 -44 66 -53.5t34 -9.5q50 0 66 109h178q-18 -133 -41 -190q-54 -131 -201 -131q-99 0 -175 69q-40 36 -55 45.5t-33 9.5q-28 0 -49.5 -30t-28.5 -79z" />
    <glyph glyph-name="adieresis" unicode="&#xe4;" horiz-adv-x="1098" 
d="M669 650v35q0 163 -156 163q-116 0 -198 -102l-205 144q140 195 434 195q300 0 386 -190q37 -82 37 -264v-631h-233l-18 56q-89 -79 -280 -79q-187 0 -272 73q-46 40 -66 102t-20 163q0 191 85 263t311 72h195zM669 454h-157q-83 0 -118 -30t-35 -101q0 -68 34 -95.5
t120 -27.5q102 0 136 51q20 30 20 116v87zM214 1191v274h264v-274h-264zM620 1191v274h264v-274h-264z" />
    <glyph glyph-name="aring" unicode="&#xe5;" horiz-adv-x="1098" 
d="M669 650v35q0 163 -156 163q-116 0 -198 -102l-205 144q140 195 434 195q300 0 386 -190q37 -82 37 -264v-631h-233l-18 56q-89 -79 -280 -79q-187 0 -272 73q-46 40 -66 102t-20 163q0 191 85 263t311 72h195zM669 454h-157q-83 0 -118 -30t-35 -101q0 -68 34 -95.5
t120 -27.5q102 0 136 51q20 30 20 116v87zM554 1646q116 0 188 -61q79 -66 79 -176q0 -109 -75 -176.5t-196 -67.5q-117 0 -191 64q-80 70 -80 179q0 110 74 174t201 64zM552 1511q-93 0 -93 -105q0 -106 89 -106q93 0 93 105q0 106 -89 106z" />
    <glyph glyph-name="ae" unicode="&#xe6;" horiz-adv-x="1697" 
d="M832 986q44 42 83 60q85 39 239 39q175 0 274 -62q116 -73 155 -230q23 -94 23 -236v-102h-631v-26q0 -222 197 -222q73 0 121.5 26t86.5 86l220 -124q-66 -114 -172 -166t-276 -52q-122 0 -201.5 28t-136.5 92q-56 -63 -144 -91.5t-229 -28.5q-193 0 -278 74
q-46 39 -66 101.5t-20 162.5q0 129 33 195q48 94 164 122q76 18 199 18h195v35q0 163 -157 163q-115 0 -197 -102l-205 144q132 195 423 195q202 0 300 -99zM668 454h-157q-83 0 -118 -30t-35 -101q0 -68 34 -95.5t119 -27.5q91 0 124 38t33 142v74zM973 657h352v26
q0 89 -46 137t-131 48q-97 0 -141 -64q-34 -50 -34 -123v-24z" />
    <glyph glyph-name="ccedilla" unicode="&#xe7;" horiz-adv-x="984" 
d="M754 319l220 -123q-128 -219 -420 -219q-263 0 -374 174q-74 117 -74 350v55q0 259 92 380q113 149 347 149q291 0 411 -219l-220 -124q-36 58 -74.5 82t-95.5 24q-103 0 -139 -97q-23 -63 -23 -167v-112q0 -131 42.5 -194.5t129.5 -63.5q110 0 178 105zM287 -497l99 372
h284l-182 -372h-201z" />
    <glyph glyph-name="egrave" unicode="&#xe8;" horiz-adv-x="1127" 
d="M406 455v-26q0 -223 198 -223q73 0 120.5 26t86.5 87l220 -124q-68 -117 -174.5 -167.5t-286.5 -50.5q-182 0 -282 61q-118 72 -158 224q-24 91 -24 227v68q0 262 88 380q58 78 146 112q94 36 232 36q249 0 357 -122.5t108 -405.5v-102h-631zM404 657h352v26
q0 89 -46 137t-131 48q-97 0 -141 -64q-34 -51 -34 -123v-24zM737 1186h-222l-282 324h332z" />
    <glyph glyph-name="eacute" unicode="&#xe9;" horiz-adv-x="1127" 
d="M406 455v-26q0 -223 198 -223q73 0 120.5 26t86.5 87l220 -124q-68 -117 -174.5 -167.5t-286.5 -50.5q-182 0 -282 61q-118 72 -158 224q-24 91 -24 227v68q0 262 88 380q58 78 146 112q94 36 232 36q249 0 357 -122.5t108 -405.5v-102h-631zM404 657h352v26
q0 89 -46 137t-131 48q-97 0 -141 -64q-34 -51 -34 -123v-24zM419 1186l172 324h332l-282 -324h-222z" />
    <glyph glyph-name="ecircumflex" unicode="&#xea;" horiz-adv-x="1127" 
d="M406 455v-26q0 -223 198 -223q73 0 120.5 26t86.5 87l220 -124q-68 -117 -174.5 -167.5t-286.5 -50.5q-182 0 -282 61q-118 72 -158 224q-24 91 -24 227v68q0 262 88 380q58 78 146 112q94 36 232 36q249 0 357 -122.5t108 -405.5v-102h-631zM404 657h352v26
q0 89 -46 137t-131 48q-97 0 -141 -64q-34 -51 -34 -123v-24zM577 1344l-111 -156h-279l281 320h218l282 -320h-279z" />
    <glyph glyph-name="edieresis" unicode="&#xeb;" horiz-adv-x="1127" 
d="M406 455v-26q0 -223 198 -223q73 0 120.5 26t86.5 87l220 -124q-68 -117 -174.5 -167.5t-286.5 -50.5q-182 0 -282 61q-118 72 -158 224q-24 91 -24 227v68q0 262 88 380q58 78 146 112q94 36 232 36q249 0 357 -122.5t108 -405.5v-102h-631zM404 657h352v26
q0 89 -46 137t-131 48q-97 0 -141 -64q-34 -51 -34 -123v-24zM242 1191v274h264v-274h-264zM648 1191v274h264v-274h-264z" />
    <glyph glyph-name="igrave" unicode="&#xec;" horiz-adv-x="579" 
d="M141 0v1062h298v-1062h-298zM421 1186h-222l-282 324h332z" />
    <glyph glyph-name="iacute" unicode="&#xed;" horiz-adv-x="579" 
d="M135 0v1062h298v-1062h-298zM149 1186l172 324h332l-282 -324h-222z" />
    <glyph glyph-name="icircumflex" unicode="&#xee;" horiz-adv-x="579" 
d="M141 0v1062h298v-1062h-298zM289 1344l-111 -156h-279l281 320h218l282 -320h-279z" />
    <glyph glyph-name="idieresis" unicode="&#xef;" horiz-adv-x="579" 
d="M140 0v1062h298v-1062h-298zM-46 1191v274h264v-274h-264zM360 1191v274h264v-274h-264z" />
    <glyph glyph-name="eth" unicode="&#xf0;" horiz-adv-x="1147" 
d="M663 1022q-44 95 -97 139l-210 -120l-91 120l148 83q-9 3 -41 16q-44 18 -111 29l38 196q220 -29 349 -103l182 104l91 -120l-141 -80q255 -243 261 -711v-123q0 -235 -89 -342q-111 -133 -379 -133q-249 0 -358 110.5t-109 364.5v123q0 245 98 353q110 120 323 120
q84 0 136 -26zM743 474v79q0 140 -38.5 199t-130.5 59q-110 0 -145 -82q-25 -59 -25 -176v-79q0 -142 38.5 -201t131.5 -59q109 0 144 82q25 60 25 178z" />
    <glyph glyph-name="ntilde" unicode="&#xf1;" horiz-adv-x="1173" 
d="M137 0v1062h223l25 -81q53 57 116 80.5t162 23.5q270 0 347 -205q31 -83 31 -274v-606h-298v572q0 110 -19 165q-33 93 -130 93q-88 0 -123.5 -62.5t-35.5 -216.5v-551h-298zM383 1190h-178q27 139 53 190q65 131 201 131q91 0 163 -61q51 -44 66 -53.5t34 -9.5
q50 0 66 109h178q-18 -133 -41 -190q-54 -131 -201 -131q-99 0 -175 69q-40 36 -55 45.5t-33 9.5q-28 0 -49.5 -30t-28.5 -79z" />
    <glyph glyph-name="ograve" unicode="&#xf2;" horiz-adv-x="1147" 
d="M106 452v159q0 234 89 341q111 133 379 133q249 0 358 -110.5t109 -363.5v-159q0 -235 -89 -342q-111 -133 -379 -133q-249 0 -358 110.5t-109 364.5zM743 474v115q0 141 -38.5 200t-130.5 59q-110 0 -145 -82q-25 -60 -25 -177v-115q0 -142 38.5 -201t131.5 -59
q109 0 144 82q25 60 25 178zM733 1186h-222l-282 324h332z" />
    <glyph glyph-name="oacute" unicode="&#xf3;" horiz-adv-x="1147" 
d="M106 452v159q0 234 89 341q111 133 379 133q249 0 358 -110.5t109 -363.5v-159q0 -235 -89 -342q-111 -133 -379 -133q-249 0 -358 110.5t-109 364.5zM743 474v115q0 141 -38.5 200t-130.5 59q-110 0 -145 -82q-25 -60 -25 -177v-115q0 -142 38.5 -201t131.5 -59
q109 0 144 82q25 60 25 178zM415 1186l172 324h332l-282 -324h-222z" />
    <glyph glyph-name="ocircumflex" unicode="&#xf4;" horiz-adv-x="1147" 
d="M106 452v159q0 234 89 341q111 133 379 133q249 0 358 -110.5t109 -363.5v-159q0 -235 -89 -342q-111 -133 -379 -133q-249 0 -358 110.5t-109 364.5zM743 474v115q0 141 -38.5 200t-130.5 59q-110 0 -145 -82q-25 -60 -25 -177v-115q0 -142 38.5 -201t131.5 -59
q109 0 144 82q25 60 25 178zM573 1344l-111 -156h-279l281 320h218l282 -320h-279z" />
    <glyph glyph-name="otilde" unicode="&#xf5;" horiz-adv-x="1147" 
d="M106 452v159q0 234 89 341q111 133 379 133q249 0 358 -110.5t109 -363.5v-159q0 -235 -89 -342q-111 -133 -379 -133q-249 0 -358 110.5t-109 364.5zM743 474v115q0 141 -38.5 200t-130.5 59q-110 0 -145 -82q-25 -60 -25 -177v-115q0 -142 38.5 -201t131.5 -59
q109 0 144 82q25 60 25 178zM371 1190h-178q27 139 53 190q65 131 201 131q91 0 163 -61q51 -44 66 -53.5t34 -9.5q50 0 66 109h178q-18 -133 -41 -190q-54 -131 -201 -131q-99 0 -175 69q-40 36 -55 45.5t-33 9.5q-28 0 -49.5 -30t-28.5 -79z" />
    <glyph glyph-name="odieresis" unicode="&#xf6;" horiz-adv-x="1147" 
d="M106 452v159q0 234 89 341q111 133 379 133q249 0 358 -110.5t109 -363.5v-159q0 -235 -89 -342q-111 -133 -379 -133q-249 0 -358 110.5t-109 364.5zM743 474v115q0 141 -38.5 200t-130.5 59q-110 0 -145 -82q-25 -60 -25 -177v-115q0 -142 38.5 -201t131.5 -59
q109 0 144 82q25 60 25 178zM239 1191v274h264v-274h-264zM645 1191v274h264v-274h-264z" />
    <glyph glyph-name="divide" unicode="&#xf7;" 
d="M93 605v235h920v-235h-920zM419 246v239h267v-239h-267zM419 963v239h267v-239h-267z" />
    <glyph glyph-name="oslash" unicode="&#xf8;" horiz-adv-x="1147" 
d="M969 928q71 -103 71 -317v-159q0 -234 -89 -342q-110 -133 -379 -133q-158 0 -261 45l-58 -81l-139 108l62 86q-71 105 -71 317v159q0 234 89 341q111 133 376 133q170 0 264 -44l58 80l140 -107zM743 616l-270 -372q38 -30 100 -30q101 0 141 84q29 59 29 177v114v27z
M403 448l270 371q-40 29 -100 29q-89 0 -129.5 -62t-40.5 -197v-114v-27z" />
    <glyph glyph-name="ugrave" unicode="&#xf9;" horiz-adv-x="1152" 
d="M131 1062h298v-572q0 -110 18 -165q30 -93 124 -93q80 0 113 63t33 216v551h298v-1062h-201l-38 89q-30 -43 -63 -65q-72 -47 -208 -47q-269 0 -344 205q-30 82 -30 274v606zM736 1186h-222l-282 324h332z" />
    <glyph glyph-name="uacute" unicode="&#xfa;" horiz-adv-x="1152" 
d="M131 1062h298v-572q0 -110 18 -165q30 -93 124 -93q80 0 113 63t33 216v551h298v-1062h-201l-38 89q-30 -43 -63 -65q-72 -47 -208 -47q-269 0 -344 205q-30 82 -30 274v606zM418 1186l172 324h332l-282 -324h-222z" />
    <glyph glyph-name="ucircumflex" unicode="&#xfb;" horiz-adv-x="1152" 
d="M131 1062h298v-572q0 -110 18 -165q30 -93 124 -93q80 0 113 63t33 216v551h298v-1062h-201l-38 89q-30 -43 -63 -65q-72 -47 -208 -47q-269 0 -344 205q-30 82 -30 274v606zM576 1344l-111 -156h-279l281 320h218l282 -320h-279z" />
    <glyph glyph-name="udieresis" unicode="&#xfc;" horiz-adv-x="1152" 
d="M131 1062h298v-572q0 -110 18 -165q30 -93 124 -93q80 0 113 63t33 216v551h298v-1062h-201l-38 89q-30 -43 -63 -65q-72 -47 -208 -47q-269 0 -344 205q-30 82 -30 274v606zM241 1191v274h264v-274h-264zM647 1191v274h264v-274h-264z" />
    <glyph glyph-name="yacute" unicode="&#xfd;" horiz-adv-x="1051" 
d="M371 27l-350 1035h301l206 -715l195 715h303l-369 -1119q-57 -176 -124 -276q-39 -61 -99.5 -90.5t-163.5 -39.5q-81 -8 -178 -8v241q114 0 158 22q54 27 101 173zM398 1186l172 324h332l-282 -324h-222z" />
    <glyph glyph-name="thorn" unicode="&#xfe;" horiz-adv-x="1163" 
d="M437 34v-495h-298v1923h298v-431q87 54 216 54q160 0 246 -56q103 -67 137 -210q21 -85 21 -211v-154q0 -236 -78 -344q-50 -69 -127 -101t-194 -32q-121 0 -221 57zM760 476v109q0 138 -38.5 200.5t-122.5 62.5q-162 0 -162 -203v-228q0 -203 161 -203q97 0 135 85
q27 60 27 177z" />
    <glyph glyph-name="ydieresis" unicode="&#xff;" horiz-adv-x="1051" 
d="M371 27l-350 1035h301l206 -715l195 715h303l-369 -1119q-57 -176 -124 -276q-39 -61 -99.5 -90.5t-163.5 -39.5q-81 -8 -178 -8v241q114 0 158 22q54 27 101 173zM190 1191v274h264v-274h-264zM596 1191v274h264v-274h-264z" />
    <glyph glyph-name="Amacron" unicode="&#x100;" horiz-adv-x="1276" 
d="M897 274h-511l-86 -274h-341l529 1462h305l530 -1462h-341zM822 525l-180 569l-181 -569h361zM307 1626v212h663v-212h-663z" />
    <glyph glyph-name="amacron" unicode="&#x101;" horiz-adv-x="1098" 
d="M669 650v35q0 163 -156 163q-116 0 -198 -102l-205 144q140 195 434 195q300 0 386 -190q37 -82 37 -264v-631h-233l-18 56q-89 -79 -280 -79q-187 0 -272 73q-46 40 -66 102t-20 163q0 191 85 263t311 72h195zM669 454h-157q-83 0 -118 -30t-35 -101q0 -68 34 -95.5
t120 -27.5q102 0 136 51q20 30 20 116v87zM217 1225v212h663v-212h-663z" />
    <glyph glyph-name="Abreve" unicode="&#x102;" horiz-adv-x="1276" 
d="M897 274h-511l-86 -274h-341l529 1462h305l530 -1462h-341zM822 525l-180 569l-181 -569h361zM276 1907h184q11 -66 36 -90q41 -39 142 -39q90 0 128 27.5t50 101.5h183q-4 -92 -12 -133.5t-31 -77.5q-42 -69 -114 -99q-75 -32 -204 -32q-170 0 -250 58
q-62 44 -84.5 100.5t-27.5 183.5z" />
    <glyph glyph-name="abreve" unicode="&#x103;" horiz-adv-x="1098" 
d="M669 650v35q0 163 -156 163q-116 0 -198 -102l-205 144q140 195 434 195q300 0 386 -190q37 -82 37 -264v-631h-233l-18 56q-89 -79 -280 -79q-187 0 -272 73q-46 40 -66 102t-20 163q0 191 85 263t311 72h195zM669 454h-157q-83 0 -118 -30t-35 -101q0 -68 34 -95.5
t120 -27.5q102 0 136 51q20 30 20 116v87zM188 1506h184q11 -66 36 -90q41 -39 142 -39q90 0 128 27.5t50 101.5h183q-4 -92 -12 -133.5t-31 -77.5q-42 -69 -114 -99q-75 -32 -204 -32q-170 0 -250 58q-62 44 -84.5 100.5t-27.5 183.5z" />
    <glyph glyph-name="Aogonek" unicode="&#x104;" horiz-adv-x="1276" 
d="M1323 0q-94 -69 -136 -120.5t-42 -95.5q0 -75 88 -75q57 0 128 25l32 -143q-101 -44 -219 -44q-150 0 -224 54q-67 48 -67 137q0 149 221 262h-122l-85 274h-511l-86 -274h-341l529 1462h305zM822 525l-180 569l-181 -569h361z" />
    <glyph glyph-name="aogonek" unicode="&#x105;" horiz-adv-x="1098" 
d="M967 0q-93 -69 -135 -120.5t-42 -95.5q0 -75 88 -75q57 0 128 25l31 -143q-100 -44 -218 -44q-150 0 -224 54q-67 48 -67 137q0 150 220 262h-14l-18 56q-89 -79 -280 -79q-187 0 -272 73q-46 40 -66 102t-20 163q0 191 85 263t311 72h195v35q0 163 -156 163
q-116 0 -198 -102l-205 144q140 195 434 195q300 0 386 -190q37 -82 37 -264v-631zM669 454h-157q-83 0 -118 -30t-35 -101q0 -68 34 -95.5t120 -27.5q102 0 136 51q20 30 20 116v87z" />
    <glyph glyph-name="Cacute" unicode="&#x106;" horiz-adv-x="1270" 
d="M897 432l295 -35q-5 -87 -21 -139q-89 -281 -508 -281q-204 0 -316 69q-119 73 -167.5 190.5t-48.5 332.5v319q0 178 28 274q49 164 188 249q113 69 316 69q308 0 429 -171q69 -97 77 -263l-289 -20q-12 104 -63 152t-150 48q-75 0 -120.5 -27t-70.5 -87
q-30 -73 -30 -248v-271q0 -207 48 -284.5t176 -77.5q139 0 191 88q28 46 36 113zM504 1587l172 324h332l-282 -324h-222z" />
    <glyph glyph-name="cacute" unicode="&#x107;" horiz-adv-x="984" 
d="M754 319l220 -123q-128 -219 -420 -219q-263 0 -374 174q-74 117 -74 350v55q0 259 92 380q113 149 347 149q291 0 411 -219l-220 -124q-36 58 -74.5 82t-95.5 24q-103 0 -139 -97q-23 -63 -23 -167v-112q0 -131 42.5 -194.5t129.5 -63.5q110 0 178 105zM417 1186
l172 324h332l-282 -324h-222z" />
    <glyph glyph-name="Ccircumflex" unicode="&#x108;" horiz-adv-x="1270" 
d="M897 432l295 -35q-5 -87 -21 -139q-89 -281 -508 -281q-204 0 -316 69q-119 73 -167.5 190.5t-48.5 332.5v319q0 178 28 274q49 164 188 249q113 69 316 69q308 0 429 -171q69 -97 77 -263l-289 -20q-12 104 -63 152t-150 48q-75 0 -120.5 -27t-70.5 -87
q-30 -73 -30 -248v-271q0 -207 48 -284.5t176 -77.5q139 0 191 88q28 46 36 113zM660 1746l-111 -157h-279l281 320h218l282 -320h-279z" />
    <glyph glyph-name="ccircumflex" unicode="&#x109;" horiz-adv-x="984" 
d="M754 319l220 -123q-128 -219 -420 -219q-263 0 -374 174q-74 117 -74 350v55q0 259 92 380q113 149 347 149q291 0 411 -219l-220 -124q-36 58 -74.5 82t-95.5 24q-103 0 -139 -97q-23 -63 -23 -167v-112q0 -131 42.5 -194.5t129.5 -63.5q110 0 178 105zM558 1344
l-111 -156h-279l281 320h218l282 -320h-279z" />
    <glyph glyph-name="Cdotaccent" unicode="&#x10a;" horiz-adv-x="1270" 
d="M897 432l295 -35q-5 -87 -21 -139q-89 -281 -508 -281q-204 0 -316 69q-119 73 -167.5 190.5t-48.5 332.5v319q0 178 28 274q49 164 188 249q113 69 316 69q308 0 429 -171q69 -97 77 -263l-289 -20q-12 104 -63 152t-150 48q-75 0 -120.5 -27t-70.5 -87
q-30 -73 -30 -248v-271q0 -207 48 -284.5t176 -77.5q139 0 191 88q28 46 36 113zM522 1591v274h290v-274h-290z" />
    <glyph glyph-name="cdotaccent" unicode="&#x10b;" horiz-adv-x="984" 
d="M754 319l220 -123q-128 -219 -420 -219q-263 0 -374 174q-74 117 -74 350v55q0 259 92 380q113 149 347 149q291 0 411 -219l-220 -124q-36 58 -74.5 82t-95.5 24q-103 0 -139 -97q-23 -63 -23 -167v-112q0 -131 42.5 -194.5t129.5 -63.5q110 0 178 105zM404 1191v274
h290v-274h-290z" />
    <glyph glyph-name="Ccaron" unicode="&#x10c;" horiz-adv-x="1270" 
d="M897 432l295 -35q-5 -87 -21 -139q-89 -281 -508 -281q-204 0 -316 69q-119 73 -167.5 190.5t-48.5 332.5v319q0 178 28 274q49 164 188 249q113 69 316 69q308 0 429 -171q69 -97 77 -263l-289 -20q-12 104 -63 152t-150 48q-75 0 -120.5 -27t-70.5 -87
q-30 -73 -30 -248v-271q0 -207 48 -284.5t176 -77.5q139 0 191 88q28 46 36 113zM656 1746l111 156h279l-281 -319h-218l-282 319h279z" />
    <glyph glyph-name="ccaron" unicode="&#x10d;" horiz-adv-x="984" 
d="M754 319l220 -123q-128 -219 -420 -219q-263 0 -374 174q-74 117 -74 350v55q0 259 92 380q113 149 347 149q291 0 411 -219l-220 -124q-36 58 -74.5 82t-95.5 24q-103 0 -139 -97q-23 -63 -23 -167v-112q0 -131 42.5 -194.5t129.5 -63.5q110 0 178 105zM562 1345
l111 156h279l-281 -320h-218l-282 320h279z" />
    <glyph glyph-name="Dcaron" unicode="&#x10e;" horiz-adv-x="1370" 
d="M164 0v1462h511q142 0 233 -23.5t161 -78.5q93 -73 131.5 -179t38.5 -290v-319q0 -129 -14.5 -205t-50.5 -143q-64 -117 -183.5 -170.5t-315.5 -53.5h-511zM479 251h137q182 0 242 69q66 75 66 276v270q0 201 -66 276q-60 69 -242 69h-137v-960zM637 1746l111 156h279
l-281 -319h-218l-282 319h279z" />
    <glyph glyph-name="dcaron" unicode="&#x10f;" horiz-adv-x="1425" 
d="M795 0l-18 65q-10 -8 -16 -13q-87 -75 -256 -75q-156 0 -241 56q-103 68 -137 210q-21 85 -21 211v153q0 236 78 345q97 133 317 133q89 0 169 -29l56 -30v436h298v-1462h-229zM403 585v-108q0 -139 38.5 -201t123.5 -62q161 0 161 203v227q0 204 -162 204
q-96 0 -134 -85q-27 -60 -27 -178zM1132 904l71 598h281l-143 -598h-209z" />
    <glyph glyph-name="Dcroat" unicode="&#x110;" horiz-adv-x="1370" 
d="M164 862v600h511q142 0 233 -23.5t161 -78.5q93 -73 131.5 -179.5t38.5 -290.5v-319q0 -127 -14.5 -203.5t-51.5 -143.5q-63 -117 -183 -170.5t-315 -53.5h-511v613h-146v249h146zM479 862h229v-249h-229v-362h137q182 0 242 69q66 75 66 275v271q0 200 -66 276
q-60 69 -242 69h-137v-349z" />
    <glyph glyph-name="dcroat" unicode="&#x111;" horiz-adv-x="1165" 
d="M726 1149h-284v183h284v130h298v-130h156v-183h-156v-1149h-229l-18 65q-10 -8 -16 -13q-87 -75 -256 -75q-156 0 -241 56q-103 68 -137 210q-21 85 -21 211v153q0 236 78 345q97 133 317 133q89 0 169 -29l56 -30v123zM403 585v-108q0 -139 38.5 -201t123.5 -62
q161 0 161 203v227q0 204 -162 204q-96 0 -134 -85q-27 -60 -27 -178z" />
    <glyph glyph-name="Emacron" unicode="&#x112;" horiz-adv-x="1192" 
d="M166 0v1462h923v-256h-611v-340h516v-256h-516v-354h621v-256h-933zM286 1626v212h663v-212h-663z" />
    <glyph glyph-name="emacron" unicode="&#x113;" horiz-adv-x="1127" 
d="M406 455v-26q0 -223 198 -223q73 0 120.5 26t86.5 87l220 -124q-68 -117 -174.5 -167.5t-286.5 -50.5q-182 0 -282 61q-118 72 -158 224q-24 91 -24 227v68q0 262 88 380q58 78 146 112q94 36 232 36q249 0 357 -122.5t108 -405.5v-102h-631zM404 657h352v26
q0 89 -46 137t-131 48q-97 0 -141 -64q-34 -51 -34 -123v-24zM246 1225v212h663v-212h-663z" />
    <glyph glyph-name="Ebreve" unicode="&#x114;" horiz-adv-x="1192" 
d="M166 0v1462h923v-256h-611v-340h516v-256h-516v-354h621v-256h-933zM267 1907h184q11 -66 36 -90q41 -39 142 -39q90 0 128 27.5t50 101.5h183q-4 -92 -12 -133.5t-31 -77.5q-42 -69 -114 -99q-75 -32 -204 -32q-170 0 -250 58q-62 44 -84.5 100.5t-27.5 183.5z" />
    <glyph glyph-name="ebreve" unicode="&#x115;" horiz-adv-x="1127" 
d="M406 455v-26q0 -223 198 -223q73 0 120.5 26t86.5 87l220 -124q-68 -117 -174.5 -167.5t-286.5 -50.5q-182 0 -282 61q-118 72 -158 224q-24 91 -24 227v68q0 262 88 380q58 78 146 112q94 36 232 36q249 0 357 -122.5t108 -405.5v-102h-631zM404 657h352v26
q0 89 -46 137t-131 48q-97 0 -141 -64q-34 -51 -34 -123v-24zM204 1506h184q11 -66 36 -90q41 -39 142 -39q90 0 128 27.5t50 101.5h183q-4 -92 -12 -133.5t-31 -77.5q-42 -69 -114 -99q-75 -32 -204 -32q-170 0 -250 58q-62 44 -84.5 100.5t-27.5 183.5z" />
    <glyph glyph-name="Edotaccent" unicode="&#x116;" horiz-adv-x="1192" 
d="M166 0v1462h923v-256h-611v-340h516v-256h-516v-354h621v-256h-933zM491 1591v274h290v-274h-290z" />
    <glyph glyph-name="edotaccent" unicode="&#x117;" horiz-adv-x="1127" 
d="M406 455v-26q0 -223 198 -223q73 0 120.5 26t86.5 87l220 -124q-68 -117 -174.5 -167.5t-286.5 -50.5q-182 0 -282 61q-118 72 -158 224q-24 91 -24 227v68q0 262 88 380q58 78 146 112q94 36 232 36q249 0 357 -122.5t108 -405.5v-102h-631zM404 657h352v26
q0 89 -46 137t-131 48q-97 0 -141 -64q-34 -51 -34 -123v-24zM432 1191v274h290v-274h-290z" />
    <glyph glyph-name="Eogonek" unicode="&#x118;" horiz-adv-x="1192" 
d="M166 0v1462h923v-256h-611v-340h516v-256h-516v-354h621v-256q-94 -69 -136 -120t-42 -97q0 -74 88 -74q58 0 129 25l31 -143q-101 -44 -219 -44q-150 0 -224 54q-67 48 -67 137q0 77 49.5 136t169.5 126h-712z" />
    <glyph glyph-name="eogonek" unicode="&#x119;" horiz-adv-x="1127" 
d="M406 455v-26q0 -223 198 -223q73 0 120.5 26t86.5 87l220 -123q-70 -123 -187 -175q-17 -12 -26 -18q-73 -52 -112 -108t-39 -110q0 -76 88 -76q56 0 128 25l31 -144q-100 -43 -218 -43q-291 0 -291 194q0 127 147 236q-208 4 -315 98q-131 115 -131 414v68q0 262 89 380
q58 78 147 112q93 36 231 36q249 0 356.5 -122.5t107.5 -405.5v-102h-631zM404 657h352v26q0 89 -46 137t-131 48q-97 0 -141 -64q-34 -51 -34 -123v-24z" />
    <glyph glyph-name="Ecaron" unicode="&#x11a;" horiz-adv-x="1192" 
d="M166 0v1462h923v-256h-611v-340h516v-256h-516v-354h621v-256h-933zM637 1746l111 156h279l-281 -319h-218l-282 319h279z" />
    <glyph glyph-name="ecaron" unicode="&#x11b;" horiz-adv-x="1127" 
d="M406 455v-26q0 -223 198 -223q73 0 120.5 26t86.5 87l220 -124q-68 -117 -174.5 -167.5t-286.5 -50.5q-182 0 -282 61q-118 72 -158 224q-24 91 -24 227v68q0 262 88 380q58 78 146 112q94 36 232 36q249 0 357 -122.5t108 -405.5v-102h-631zM404 657h352v26
q0 89 -46 137t-131 48q-97 0 -141 -64q-34 -51 -34 -123v-24zM578 1345l111 156h279l-281 -320h-218l-282 320h279z" />
    <glyph glyph-name="Gcircumflex" unicode="&#x11c;" horiz-adv-x="1349" 
d="M704 579v241h532v-253q0 -161 -22 -252t-78 -163q-71 -92 -179.5 -133.5t-277.5 -41.5q-212 0 -327 69q-122 73 -171.5 190.5t-49.5 332.5v319q0 178 29 275q49 163 192 248q115 69 323 69q316 0 440 -171q71 -98 79 -263l-289 -20q-13 104 -67 152t-159 48
q-79 0 -127 -27t-74 -86q-32 -74 -32 -248v-272q0 -207 51 -284.5t187 -77.5q126 0 183 63.5t57 203.5v81h-220zM674 1746l-111 -157h-279l281 320h218l282 -320h-279z" />
    <glyph glyph-name="gcircumflex" unicode="&#x11d;" horiz-adv-x="1163" 
d="M727 35q-91 -58 -227 -58q-238 0 -331 156q-63 106 -63 321v153q0 236 78 345q96 133 320 133q171 0 262 -83l29 60h229v-1021q0 -256 -101 -377q-123 -148 -384 -148q-301 0 -415 219l221 124q36 -63 77.5 -88.5t105.5 -25.5q128 0 172 102q24 55 26 159zM403 585v-109
q0 -138 38.5 -200t123.5 -62q161 0 161 203v227q0 204 -162 204q-96 0 -134 -85q-27 -60 -27 -178zM594 1344l-111 -156h-279l281 320h218l282 -320h-279z" />
    <glyph glyph-name="Gbreve" unicode="&#x11e;" horiz-adv-x="1349" 
d="M704 579v241h532v-253q0 -161 -22 -252t-78 -163q-71 -92 -179.5 -133.5t-277.5 -41.5q-212 0 -327 69q-122 73 -171.5 190.5t-49.5 332.5v319q0 178 29 275q49 163 192 248q115 69 323 69q316 0 440 -171q71 -98 79 -263l-289 -20q-13 104 -67 152t-159 48
q-79 0 -127 -27t-74 -86q-32 -74 -32 -248v-272q0 -207 51 -284.5t187 -77.5q126 0 183 63.5t57 203.5v81h-220zM314 1907h184q11 -66 36 -90q41 -39 142 -39q90 0 128 27.5t50 101.5h183q-4 -92 -12 -133.5t-31 -77.5q-42 -69 -114 -99q-75 -32 -204 -32q-170 0 -250 58
q-62 44 -84.5 100.5t-27.5 183.5z" />
    <glyph glyph-name="gbreve" unicode="&#x11f;" horiz-adv-x="1163" 
d="M727 35q-91 -58 -227 -58q-238 0 -331 156q-63 106 -63 321v153q0 236 78 345q96 133 320 133q171 0 262 -83l29 60h229v-1021q0 -256 -101 -377q-123 -148 -384 -148q-301 0 -415 219l221 124q36 -63 77.5 -88.5t105.5 -25.5q128 0 172 102q24 55 26 159zM403 585v-109
q0 -138 38.5 -200t123.5 -62q161 0 161 203v227q0 204 -162 204q-96 0 -134 -85q-27 -60 -27 -178zM252 1506h184q11 -66 36 -90q41 -39 142 -39q90 0 128 27.5t50 101.5h183q-4 -92 -12 -133.5t-31 -77.5q-42 -69 -114 -99q-75 -32 -204 -32q-170 0 -250 58
q-62 44 -84.5 100.5t-27.5 183.5z" />
    <glyph glyph-name="Gdotaccent" unicode="&#x120;" horiz-adv-x="1349" 
d="M704 579v241h532v-253q0 -161 -22 -252t-78 -163q-71 -92 -179.5 -133.5t-277.5 -41.5q-212 0 -327 69q-122 73 -171.5 190.5t-49.5 332.5v319q0 178 29 275q49 163 192 248q115 69 323 69q316 0 440 -171q71 -98 79 -263l-289 -20q-13 104 -67 152t-159 48
q-79 0 -127 -27t-74 -86q-32 -74 -32 -248v-272q0 -207 51 -284.5t187 -77.5q126 0 183 63.5t57 203.5v81h-220zM530 1591v274h290v-274h-290z" />
    <glyph glyph-name="gdotaccent" unicode="&#x121;" horiz-adv-x="1163" 
d="M727 35q-91 -58 -227 -58q-238 0 -331 156q-63 106 -63 321v153q0 236 78 345q96 133 320 133q171 0 262 -83l29 60h229v-1021q0 -256 -101 -377q-123 -148 -384 -148q-301 0 -415 219l221 124q36 -63 77.5 -88.5t105.5 -25.5q128 0 172 102q24 55 26 159zM403 585v-109
q0 -138 38.5 -200t123.5 -62q161 0 161 203v227q0 204 -162 204q-96 0 -134 -85q-27 -60 -27 -178zM480 1191v274h290v-274h-290z" />
    <glyph glyph-name="Gcommaaccent" unicode="&#x122;" horiz-adv-x="1349" 
d="M704 579v241h532v-253q0 -161 -22 -252t-78 -163q-71 -92 -179.5 -133.5t-277.5 -41.5q-212 0 -327 69q-122 73 -171.5 190.5t-49.5 332.5v319q0 178 29 275q49 163 192 248q115 69 323 69q316 0 440 -171q71 -98 79 -263l-289 -20q-13 104 -67 152t-159 48
q-79 0 -127 -27t-74 -86q-32 -74 -32 -248v-272q0 -207 51 -284.5t187 -77.5q126 0 183 63.5t57 203.5v81h-220zM471 -497l99 372h284l-182 -372h-201z" />
    <glyph glyph-name="gcommaaccent" unicode="&#x123;" horiz-adv-x="1163" 
d="M727 35q-91 -58 -227 -58q-238 0 -331 156q-63 106 -63 321v153q0 236 78 345q96 133 320 133q171 0 262 -83l29 60h229v-1021q0 -256 -101 -377q-123 -148 -384 -148q-301 0 -415 219l221 124q36 -63 77.5 -88.5t105.5 -25.5q128 0 172 102q24 55 26 159zM403 585v-109
q0 -138 38.5 -200t123.5 -62q161 0 161 203v227q0 204 -162 204q-96 0 -134 -85q-27 -60 -27 -178zM426 1186l282 324h222l-172 -324h-332z" />
    <glyph glyph-name="Hcircumflex" unicode="&#x124;" horiz-adv-x="1390" 
d="M164 0v1462h315v-596h432v596h315v-1462h-315v610h-432v-610h-315zM694 1746l-111 -157h-279l281 320h218l282 -320h-279z" />
    <glyph glyph-name="hcircumflex" unicode="&#x125;" horiz-adv-x="1173" 
d="M137 0v1462h298v-440q65 38 112.5 50.5t121.5 12.5q265 0 341 -205q31 -83 31 -274v-606h-298v587q0 128 -36 185.5t-116 57.5q-82 0 -119 -61.5t-37 -197.5v-571h-298zM376 1746l-111 -157h-279l281 320h218l282 -320h-279z" />
    <glyph glyph-name="Hbar" unicode="&#x126;" horiz-adv-x="1390" 
d="M164 0v1014h-159v221h159v227h315v-227h431v227h315v-227h159v-221h-159v-1014h-315v610h-431v-610h-315zM479 866h431v148h-431v-148z" />
    <glyph glyph-name="hbar" unicode="&#x127;" horiz-adv-x="1173" 
d="M139 1149h-155v195h155v118h298v-118h285v-195h-285v-127q65 38 112.5 50.5t120.5 12.5q265 0 341 -205q31 -82 31 -274v-606h-298v587q0 127 -36 185t-116 58q-81 0 -118 -61.5t-37 -197.5v-571h-298v1149z" />
    <glyph glyph-name="Itilde" unicode="&#x128;" horiz-adv-x="643" 
d="M164 0v1462h315v-1462h-315zM119 1592h-178q26 138 53 190q65 130 201 130q91 0 163 -61q51 -44 66 -53.5t34 -9.5q50 0 66 109h178q-17 -131 -41 -189q-54 -131 -201 -131q-99 0 -175 69q-40 36 -55 45.5t-33 9.5q-28 0 -49.5 -30t-28.5 -79z" />
    <glyph glyph-name="itilde" unicode="&#x129;" horiz-adv-x="579" 
d="M141 0v1062h298v-1062h-298zM87 1190h-178q27 139 53 190q65 131 201 131q91 0 163 -61q51 -44 66 -53.5t34 -9.5q50 0 66 109h178q-18 -133 -41 -190q-54 -131 -201 -131q-99 0 -175 69q-40 36 -55 45.5t-33 9.5q-28 0 -49.5 -30t-28.5 -79z" />
    <glyph glyph-name="Imacron" unicode="&#x12a;" horiz-adv-x="643" 
d="M165 0v1462h315v-1462h-315zM-9 1626v212h663v-212h-663z" />
    <glyph glyph-name="imacron" unicode="&#x12b;" horiz-adv-x="579" 
d="M140 0v1062h298v-1062h-298zM-42 1225v212h663v-212h-663z" />
    <glyph glyph-name="Ibreve" unicode="&#x12c;" horiz-adv-x="643" 
d="M164 0v1462h315v-1462h-315zM-40 1907h184q11 -66 36 -90q41 -39 142 -39q90 0 128 27.5t50 101.5h183q-4 -92 -12 -133.5t-31 -77.5q-42 -69 -114 -99q-75 -32 -204 -32q-170 0 -250 58q-62 44 -84.5 100.5t-27.5 183.5z" />
    <glyph glyph-name="ibreve" unicode="&#x12d;" horiz-adv-x="579" 
d="M141 0v1062h298v-1062h-298zM-72 1506h184q11 -66 36 -90q41 -39 142 -39q90 0 128 27.5t50 101.5h183q-4 -92 -12 -133.5t-31 -77.5q-42 -69 -114 -99q-75 -32 -204 -32q-170 0 -250 58q-62 44 -84.5 100.5t-27.5 183.5z" />
    <glyph glyph-name="Iogonek" unicode="&#x12e;" horiz-adv-x="643" 
d="M479 0q-90 -70 -129 -120t-39 -94q0 -77 86 -77q57 0 128 25l31 -143q-101 -44 -219 -44q-148 0 -222 54q-66 49 -66 138q0 75 51 137t162 124h-98v1462h315v-1462z" />
    <glyph glyph-name="iogonek" unicode="&#x12f;" horiz-adv-x="579" 
d="M439 0q-7 -6 -18 -14q-150 -117 -150 -201q0 -76 86 -76q57 0 127 25l32 -143q-100 -44 -219 -44q-148 0 -222 54q-66 48 -66 138q0 75 48 134.5t163 126.5h-79v1062h298v-1062zM141 1197v281h298v-281h-298z" />
    <glyph glyph-name="Idotaccent" unicode="&#x130;" horiz-adv-x="643" 
d="M164 0v1462h315v-1462h-315zM176 1591v274h290v-274h-290z" />
    <glyph glyph-name="dotlessi" unicode="&#x131;" horiz-adv-x="579" 
d="M140 0v1062h298v-1062h-298z" />
    <glyph glyph-name="IJ" unicode="&#x132;" horiz-adv-x="1287" 
d="M164 0v1462h315v-1462h-315zM808 1462h315v-1362q0 -187 -11 -272.5t-43 -145.5q-99 -184 -374 -184q-128 0 -257 49l107 233q58 -28 108 -28q110 0 140 115q15 58 15 230v1365z" />
    <glyph glyph-name="ij" unicode="&#x133;" horiz-adv-x="1170" 
d="M140 1197v281h298v-281h-298zM140 0v1062h298v-1062h-298zM730 1062h298v-1012q0 -204 -30 -297q-32 -99 -96.5 -147.5t-187.5 -65.5q-76 -11 -219 -11v241q84 0 124 11.5t67 44.5q44 54 44 194v1042zM730 1197v281h298v-281h-298z" />
    <glyph glyph-name="Jcircumflex" unicode="&#x134;" horiz-adv-x="1008" 
d="M536 1462h316v-883q0 -186 -11.5 -272.5t-43.5 -145.5q-99 -184 -378 -184q-138 0 -243.5 44t-219.5 147l173 206q132 -143 255 -143q107 0 137 115q15 58 15 230v886zM645 1746l-111 -157h-279l281 320h218l282 -320h-279z" />
    <glyph glyph-name="jcircumflex" unicode="&#x135;" horiz-adv-x="591" 
d="M146 1062h298v-1012q0 -204 -30 -297q-32 -99 -96.5 -147.5t-187.5 -65.5q-76 -11 -219 -11v241q84 0 124 11.5t67 44.5q44 54 44 194v1042zM289 1344l-111 -156h-279l281 320h218l282 -320h-279z" />
    <glyph glyph-name="Kcommaaccent" unicode="&#x136;" horiz-adv-x="1260" 
d="M168 0v1462h312v-589l430 589h369l-484 -602l505 -860h-365l-344 647l-111 -146v-501h-312zM450 -497l99 372h284l-182 -372h-201z" />
    <glyph glyph-name="kcommaaccent" unicode="&#x137;" horiz-adv-x="1102" 
d="M139 0v1462h298v-848l336 448h339l-368 -451l379 -611h-325l-232 396l-129 -163v-233h-298zM369 -497l99 372h284l-182 -372h-201z" />
    <glyph glyph-name="kgreenlandic" unicode="&#x138;" horiz-adv-x="1102" 
d="M139 0v1062h298v-448l336 448h339l-368 -451l379 -611h-325l-232 396l-129 -163v-233h-298z" />
    <glyph glyph-name="Lacute" unicode="&#x139;" horiz-adv-x="1119" 
d="M164 0v1462h315v-1206h617v-256h-932zM232 1587l172 324h332l-282 -324h-222z" />
    <glyph glyph-name="lacute" unicode="&#x13a;" horiz-adv-x="645" 
d="M135 1462h298v-1007q0 -126 38 -170t147 -44h30v-241h-43q-165 0 -264 27q-115 32 -160.5 133.5t-45.5 324.5v977zM165 1587l172 324h332l-282 -324h-222z" />
    <glyph glyph-name="Lcommaaccent" unicode="&#x13b;" horiz-adv-x="1119" 
d="M164 0v1462h315v-1206h617v-256h-932zM397 -497l99 372h284l-182 -372h-201z" />
    <glyph glyph-name="lcommaaccent" unicode="&#x13c;" horiz-adv-x="645" 
d="M131 1462h298v-1007q0 -126 38 -170t147 -44h30v-241h-43q-165 0 -264 27q-115 32 -160.5 133.5t-45.5 324.5v977zM136 -497l99 372h284l-182 -372h-201z" />
    <glyph glyph-name="Lcaron" unicode="&#x13d;" horiz-adv-x="1119" 
d="M164 0v1462h315v-1206h617v-256h-932zM627 904l71 598h281l-143 -598h-209z" />
    <glyph glyph-name="lcaron" unicode="&#x13e;" horiz-adv-x="849" 
d="M135 1462h298v-1007q0 -126 38 -170t147 -44h30v-241h-43q-165 0 -264 27q-115 32 -160.5 133.5t-45.5 324.5v977zM551 904l71 598h281l-143 -598h-209z" />
    <glyph glyph-name="Ldot" unicode="&#x13f;" horiz-adv-x="1119" 
d="M164 0v1462h315v-1206h617v-256h-932zM733 579v286h267v-286h-267z" />
    <glyph glyph-name="ldot" unicode="&#x140;" horiz-adv-x="801" 
d="M135 1462h298v-1007q0 -126 38 -170t147 -44h30v-241h-43q-165 0 -264 27q-115 32 -160.5 133.5t-45.5 324.5v977zM551 579v286h267v-286h-267z" />
    <glyph glyph-name="Lslash" unicode="&#x141;" horiz-adv-x="1119" 
d="M164 0v368l-137 -81v272l137 80v823h316v-648l360 212v-272l-360 -211v-287h616v-256h-932z" />
    <glyph glyph-name="lslash" unicode="&#x142;" horiz-adv-x="702" 
d="M165 748v714h298v-547l229 135v-280l-229 -134v-181q0 -126 37.5 -170t145.5 -44h30v-241h-43q-159 0 -245 23t-139 79q-83 88 -83 282v86l-177 -104v279z" />
    <glyph glyph-name="Nacute" unicode="&#x143;" horiz-adv-x="1457" 
d="M164 0v1462h306l518 -936v936h305v-1462h-306l-518 936v-936h-305zM605 1587l172 324h332l-282 -324h-222z" />
    <glyph glyph-name="nacute" unicode="&#x144;" horiz-adv-x="1173" 
d="M137 0v1062h223l25 -81q53 57 116 80.5t162 23.5q270 0 347 -205q31 -83 31 -274v-606h-298v572q0 110 -19 165q-33 93 -130 93q-88 0 -123.5 -62.5t-35.5 -216.5v-551h-298zM456 1186l172 324h332l-282 -324h-222z" />
    <glyph glyph-name="Ncommaaccent" unicode="&#x145;" horiz-adv-x="1457" 
d="M164 0v1462h306l518 -936v936h305v-1462h-306l-518 936v-936h-305zM542 -497l99 372h284l-182 -372h-201z" />
    <glyph glyph-name="ncommaaccent" unicode="&#x146;" horiz-adv-x="1173" 
d="M137 0v1062h223l25 -81q53 57 116 80.5t162 23.5q270 0 347 -205q31 -83 31 -274v-606h-298v572q0 110 -19 165q-33 93 -130 93q-88 0 -123.5 -62.5t-35.5 -216.5v-551h-298zM387 -497l99 372h284l-182 -372h-201z" />
    <glyph glyph-name="Ncaron" unicode="&#x147;" horiz-adv-x="1457" 
d="M164 0v1462h306l518 -936v936h305v-1462h-306l-518 936v-936h-305zM746 1746l111 156h279l-281 -319h-218l-282 319h279z" />
    <glyph glyph-name="ncaron" unicode="&#x148;" horiz-adv-x="1173" 
d="M137 0v1062h223l25 -81q53 57 116 80.5t162 23.5q270 0 347 -205q31 -83 31 -274v-606h-298v572q0 110 -19 165q-33 93 -130 93q-88 0 -123.5 -62.5t-35.5 -216.5v-551h-298zM569 1345l111 156h279l-281 -320h-218l-282 320h279z" />
    <glyph glyph-name="napostrophe" unicode="&#x149;" horiz-adv-x="1380" 
d="M346 0v1062h223l25 -81q53 57 116 80.5t162 23.5q270 0 347 -205q31 -84 31 -274v-606h-298v572q0 110 -19 165q-33 93 -130 93q-88 0 -123.5 -62.5t-35.5 -216.5v-551h-298zM-21 915l64 547h321l-123 -547h-262z" />
    <glyph glyph-name="Eng" unicode="&#x14a;" horiz-adv-x="1457" 
d="M164 0v1462h306l518 -924v924h305v-1417q0 -201 -29 -293q-42 -129 -145.5 -175.5t-352.5 -47.5v235q84 -1 125 11.5t68 44.5q44 55 44 179v28l-534 909v-936h-305z" />
    <glyph glyph-name="eng" unicode="&#x14b;" horiz-adv-x="1173" 
d="M137 0v1062h223l25 -81q53 57 115.5 80.5t162.5 23.5q270 0 347 -205q31 -83 31 -274v-556q0 -204 -30 -297q-31 -98 -96 -147t-188 -66q-76 -11 -221 -11v241q84 0 124.5 11.5t67.5 44.5q45 54 45 194v552q0 111 -19 165q-33 93 -130 93q-88 0 -123.5 -62t-35.5 -217
v-551h-298z" />
    <glyph glyph-name="Omacron" unicode="&#x14c;" horiz-adv-x="1369" 
d="M131 560v342q0 174 31 271q49 158 192 244q113 68 331 68t331 -68q123 -74 173 -189.5t50 -325.5v-342q0 -175 -30 -271q-50 -158 -193 -244q-113 -68 -331 -68t-331 68q-123 74 -173 189.5t-50 325.5zM924 586v290q0 200 -52.5 277.5t-186.5 77.5q-81 0 -128.5 -26
t-75.5 -84q-35 -76 -35 -245v-290q0 -200 52.5 -277.5t186.5 -77.5q80 0 128 26t76 84q35 76 35 245zM354 1626v212h663v-212h-663z" />
    <glyph glyph-name="omacron" unicode="&#x14d;" horiz-adv-x="1147" 
d="M106 452v159q0 234 89 341q111 133 379 133q249 0 358 -110.5t109 -363.5v-159q0 -235 -89 -342q-111 -133 -379 -133q-249 0 -358 110.5t-109 364.5zM743 474v115q0 141 -38.5 200t-130.5 59q-110 0 -145 -82q-25 -60 -25 -177v-115q0 -142 38.5 -201t131.5 -59
q109 0 144 82q25 60 25 178zM243 1225v212h663v-212h-663z" />
    <glyph glyph-name="Obreve" unicode="&#x14e;" horiz-adv-x="1369" 
d="M131 560v342q0 174 31 271q49 158 192 244q113 68 331 68t331 -68q123 -74 173 -189.5t50 -325.5v-342q0 -175 -30 -271q-50 -158 -193 -244q-113 -68 -331 -68t-331 68q-123 74 -173 189.5t-50 325.5zM924 586v290q0 200 -52.5 277.5t-186.5 77.5q-81 0 -128.5 -26
t-75.5 -84q-35 -76 -35 -245v-290q0 -200 52.5 -277.5t186.5 -77.5q80 0 128 26t76 84q35 76 35 245zM323 1907h184q11 -66 36 -90q41 -39 142 -39q90 0 128 27.5t50 101.5h183q-4 -92 -12 -133.5t-31 -77.5q-42 -69 -114 -99q-75 -32 -204 -32q-170 0 -250 58
q-62 44 -84.5 100.5t-27.5 183.5z" />
    <glyph glyph-name="obreve" unicode="&#x14f;" horiz-adv-x="1147" 
d="M106 452v159q0 234 89 341q111 133 379 133q249 0 358 -110.5t109 -363.5v-159q0 -235 -89 -342q-111 -133 -379 -133q-249 0 -358 110.5t-109 364.5zM743 474v115q0 141 -38.5 200t-130.5 59q-110 0 -145 -82q-25 -60 -25 -177v-115q0 -142 38.5 -201t131.5 -59
q109 0 144 82q25 60 25 178zM212 1506h184q11 -66 36 -90q41 -39 142 -39q90 0 128 27.5t50 101.5h183q-4 -92 -12 -133.5t-31 -77.5q-42 -69 -114 -99q-75 -32 -204 -32q-170 0 -250 58q-62 44 -84.5 100.5t-27.5 183.5z" />
    <glyph glyph-name="Ohungarumlaut" unicode="&#x150;" horiz-adv-x="1369" 
d="M131 560v342q0 174 31 271q49 158 192 244q113 68 331 68t331 -68q123 -74 173 -189.5t50 -325.5v-342q0 -175 -30 -271q-50 -158 -193 -244q-113 -68 -331 -68t-331 68q-123 74 -173 189.5t-50 325.5zM924 586v290q0 200 -52.5 277.5t-186.5 77.5q-81 0 -128.5 -26
t-75.5 -84q-35 -76 -35 -245v-290q0 -200 52.5 -277.5t186.5 -77.5q80 0 128 26t76 84q35 76 35 245zM373 1587l135 324h314l-243 -324h-206zM737 1587l135 324h314l-243 -324h-206z" />
    <glyph glyph-name="ohungarumlaut" unicode="&#x151;" horiz-adv-x="1147" 
d="M106 452v159q0 234 89 341q111 133 379 133q249 0 358 -110.5t109 -363.5v-159q0 -235 -89 -342q-111 -133 -379 -133q-249 0 -358 110.5t-109 364.5zM743 474v115q0 141 -38.5 200t-130.5 59q-110 0 -145 -82q-25 -60 -25 -177v-115q0 -142 38.5 -201t131.5 -59
q109 0 144 82q25 60 25 178zM262 1186l135 324h314l-243 -324h-206zM626 1186l135 324h314l-243 -324h-206z" />
    <glyph glyph-name="OE" unicode="&#x152;" horiz-adv-x="1954" 
d="M985 0v90q-45 -45 -87 -67q-90 -46 -258 -46q-190 0 -299 69q-114 73 -162 189t-48 318v352q0 170 29 266q95 314 479 314q131 0 207 -24.5t139 -85.5v87h866v-256h-609v-340h515v-256h-515v-354h619v-256h-876zM446 880v-302q0 -181 45 -256q54 -91 196 -91
q154 0 207 108q36 74 36 239v302q0 194 -54 272.5t-189 78.5q-80 0 -129 -26t-76 -83q-36 -75 -36 -242z" />
    <glyph glyph-name="oe" unicode="&#x153;" horiz-adv-x="1768" 
d="M894 973q48 59 126.5 85.5t202.5 26.5q178 0 276 -62q116 -73 155 -230q23 -94 23 -236v-102h-631v-26q0 -223 197 -223q73 0 121.5 26t86.5 87l220 -123q-67 -115 -172 -167t-271 -52q-126 0 -199 24.5t-135 88.5q-44 -47 -73 -63q-88 -50 -262 -50q-276 0 -381 157
q-72 107 -72 320v155q0 235 89 342q111 134 363 134q124 0 198.5 -24.5t137.5 -87.5zM745 476v110q0 138 -40.5 200t-129.5 62q-101 0 -142 -84q-29 -60 -29 -178v-110q0 -138 40.5 -200t130.5 -62q101 0 141 84q29 59 29 178zM1045 657h351v26q0 88 -46 136t-131 48
q-97 0 -140 -64q-34 -50 -34 -122v-24z" />
    <glyph glyph-name="Racute" unicode="&#x154;" horiz-adv-x="1314" 
d="M481 582v-582h-315v1462h555q162 0 248 -29q122 -42 179.5 -139t57.5 -262q0 -188 -61.5 -286.5t-202.5 -138.5l316 -607h-350l-274 582h-153zM476 824h219q100 0 145 37q54 44 54 156q0 106 -46.5 150t-157.5 44h-214v-387zM499 1587l172 324h332l-282 -324h-222z" />
    <glyph glyph-name="racute" unicode="&#x155;" horiz-adv-x="816" 
d="M137 0v1062h227l38 -67q53 51 97 70.5t107 19.5q109 0 236 -70l-128 -246q-76 60 -140 60q-73 0 -106 -75t-33 -243v-511h-298zM291 1186l172 324h332l-282 -324h-222z" />
    <glyph glyph-name="Rcommaaccent" unicode="&#x156;" horiz-adv-x="1314" 
d="M481 582v-582h-315v1462h555q162 0 248 -29q122 -42 179.5 -139t57.5 -262q0 -188 -61.5 -286.5t-202.5 -138.5l316 -607h-350l-274 582h-153zM476 824h219q100 0 145 37q54 44 54 156q0 106 -46.5 150t-157.5 44h-214v-387zM468 -497l99 372h284l-182 -372h-201z" />
    <glyph glyph-name="rcommaaccent" unicode="&#x157;" horiz-adv-x="816" 
d="M137 0v1062h227l38 -67q53 51 97 70.5t107 19.5q109 0 236 -70l-128 -246q-76 60 -140 60q-73 0 -106 -75t-33 -243v-511h-298zM38 -497l99 372h284l-182 -372h-201z" />
    <glyph glyph-name="Rcaron" unicode="&#x158;" horiz-adv-x="1314" 
d="M481 582v-582h-315v1462h555q162 0 248 -29q122 -42 179.5 -139t57.5 -262q0 -188 -61.5 -286.5t-202.5 -138.5l316 -607h-350l-274 582h-153zM476 824h219q100 0 145 37q54 44 54 156q0 106 -46.5 150t-157.5 44h-214v-387zM623 1746l111 156h279l-281 -319h-218
l-282 319h279z" />
    <glyph glyph-name="rcaron" unicode="&#x159;" horiz-adv-x="816" 
d="M138 0v1062h227l38 -67q53 51 97 70.5t107 19.5q109 0 236 -70l-128 -246q-76 60 -140 60q-73 0 -106 -75t-33 -243v-511h-298zM455 1345l111 156h279l-281 -320h-218l-282 320h279z" />
    <glyph glyph-name="Sacute" unicode="&#x15a;" horiz-adv-x="1175" 
d="M22 233l240 152q41 -68 97 -102q84 -52 223 -52q228 0 228 175q0 89 -62 129q-30 20 -60.5 29.5t-182.5 47.5q-202 50 -300 136q-117 101 -117 305q0 218 133 325q134 107 364 107q349 0 488 -239l-233 -148q-96 135 -261 135q-90 0 -139.5 -42.5t-49.5 -119.5
q0 -84 57.5 -129t215.5 -84q140 -35 195 -55t110 -56q144 -95 144 -326q0 -221 -120 -325q-138 -120 -412 -120q-253 0 -411 99q-87 54 -147 158zM432 1587l172 324h332l-282 -324h-222z" />
    <glyph glyph-name="sacute" unicode="&#x15b;" horiz-adv-x="1018" 
d="M38 195l219 125q42 -66 86.5 -89t131.5 -23q188 0 188 114q0 43 -28 63.5t-95 27.5q-142 15 -196.5 26t-106.5 35q-145 67 -145 263q0 165 96 253q103 95 302 95q157 0 260.5 -52.5t169.5 -165.5l-220 -125q-36 62 -78 86.5t-111 24.5q-66 0 -102 -26.5t-36 -76.5
q0 -46 33 -65.5t129 -28.5q223 -21 309 -80q100 -70 100 -257q0 -204 -143 -280q-117 -62 -314 -62q-343 0 -449 218zM351 1186l172 324h332l-282 -324h-222z" />
    <glyph glyph-name="Scircumflex" unicode="&#x15c;" horiz-adv-x="1175" 
d="M22 233l240 152q41 -68 97 -102q84 -52 223 -52q228 0 228 175q0 89 -62 129q-30 20 -60.5 29.5t-182.5 47.5q-202 50 -300 136q-117 101 -117 305q0 218 133 325q134 107 364 107q349 0 488 -239l-233 -148q-96 135 -261 135q-90 0 -139.5 -42.5t-49.5 -119.5
q0 -84 57.5 -129t215.5 -84q140 -35 195 -55t110 -56q144 -95 144 -326q0 -221 -120 -325q-138 -120 -412 -120q-253 0 -411 99q-87 54 -147 158zM589 1746l-111 -157h-279l281 320h218l282 -320h-279z" />
    <glyph glyph-name="scircumflex" unicode="&#x15d;" horiz-adv-x="1018" 
d="M38 195l219 125q42 -66 86.5 -89t131.5 -23q188 0 188 114q0 43 -28 63.5t-95 27.5q-142 15 -196.5 26t-106.5 35q-145 67 -145 263q0 165 96 253q103 95 302 95q157 0 260.5 -52.5t169.5 -165.5l-220 -125q-36 62 -78 86.5t-111 24.5q-66 0 -102 -26.5t-36 -76.5
q0 -46 33 -65.5t129 -28.5q223 -21 309 -80q100 -70 100 -257q0 -204 -143 -280q-117 -62 -314 -62q-343 0 -449 218zM506 1344l-111 -156h-279l281 320h218l282 -320h-279z" />
    <glyph glyph-name="Scedilla" unicode="&#x15e;" horiz-adv-x="1175" 
d="M22 233l240 152q41 -68 97 -102q84 -52 223 -52q228 0 228 175q0 89 -62 129q-30 20 -60.5 29.5t-182.5 47.5q-202 50 -300 136q-117 101 -117 305q0 218 133 325q134 107 364 107q349 0 488 -239l-233 -148q-96 135 -261 135q-90 0 -139.5 -42.5t-49.5 -119.5
q0 -84 57.5 -129t215.5 -84q140 -35 195 -55t110 -56q144 -95 144 -326q0 -221 -120 -325q-138 -120 -412 -120q-253 0 -411 99q-87 54 -147 158zM368 -497l99 372h284l-182 -372h-201z" />
    <glyph glyph-name="scedilla" unicode="&#x15f;" horiz-adv-x="1018" 
d="M38 195l219 125q42 -66 86.5 -89t131.5 -23q188 0 188 114q0 43 -28 63.5t-95 27.5q-142 15 -196.5 26t-106.5 35q-145 67 -145 263q0 165 96 253q103 95 302 95q157 0 260.5 -52.5t169.5 -165.5l-220 -125q-36 62 -78 86.5t-111 24.5q-66 0 -102 -26.5t-36 -76.5
q0 -46 33 -65.5t129 -28.5q223 -21 309 -80q100 -70 100 -257q0 -204 -143 -280q-117 -62 -314 -62q-343 0 -449 218zM285 -497l99 372h284l-182 -372h-201z" />
    <glyph glyph-name="Scaron" unicode="&#x160;" horiz-adv-x="1175" 
d="M22 233l240 152q41 -68 97 -102q84 -52 223 -52q228 0 228 175q0 89 -62 129q-30 20 -60.5 29.5t-182.5 47.5q-202 50 -300 136q-117 101 -117 305q0 218 133 325q134 107 364 107q349 0 488 -239l-233 -148q-96 135 -261 135q-90 0 -139.5 -42.5t-49.5 -119.5
q0 -84 57.5 -129t215.5 -84q140 -35 195 -55t110 -56q144 -95 144 -326q0 -221 -120 -325q-138 -120 -412 -120q-253 0 -411 99q-87 54 -147 158zM592 1746l111 156h279l-281 -319h-218l-282 319h279z" />
    <glyph glyph-name="scaron" unicode="&#x161;" horiz-adv-x="1018" 
d="M38 195l219 125q42 -66 86.5 -89t131.5 -23q188 0 188 114q0 43 -28 63.5t-95 27.5q-142 15 -196.5 26t-106.5 35q-145 67 -145 263q0 165 96 253q103 95 302 95q157 0 260.5 -52.5t169.5 -165.5l-220 -125q-36 62 -78 86.5t-111 24.5q-66 0 -102 -26.5t-36 -76.5
q0 -46 33 -65.5t129 -28.5q223 -21 309 -80q100 -70 100 -257q0 -204 -143 -280q-117 -62 -314 -62q-343 0 -449 218zM508 1345l111 156h279l-281 -320h-218l-282 320h279z" />
    <glyph glyph-name="Tcommaaccent" unicode="&#x162;" horiz-adv-x="1138" 
d="M411 0v1206h-388v256h1091v-256h-388v-1206h-315zM339 -497l99 372h284l-182 -372h-201z" />
    <glyph glyph-name="tcommaaccent" unicode="&#x163;" horiz-adv-x="721" 
d="M163 826h-116v236h116l18 297h280v-297h212v-236h-212v-371q0 -126 38 -170t146 -44h25v-241h-36q-153 0 -240.5 19.5t-136.5 65.5q-51 48 -72.5 138.5t-21.5 261.5v341zM178 -497l99 372h284l-182 -372h-201z" />
    <glyph glyph-name="Tcaron" unicode="&#x164;" horiz-adv-x="1138" 
d="M411 0v1206h-388v256h1091v-256h-388v-1206h-315zM569 1746l111 156h279l-281 -319h-218l-282 319h279z" />
    <glyph glyph-name="tcaron" unicode="&#x165;" horiz-adv-x="925" 
d="M163 826h-116v236h116l18 297h280v-297h212v-236h-212v-371q0 -126 38 -170t146 -44h25v-241h-36q-153 0 -240.5 19.5t-136.5 65.5q-51 48 -72.5 138.5t-21.5 261.5v341zM640 1155l62 489h281l-135 -489h-208z" />
    <glyph glyph-name="Tbar" unicode="&#x166;" horiz-adv-x="1138" 
d="M411 0v613h-246v249h246v344h-388v256h1091v-256h-388v-344h246v-249h-246v-613h-315z" />
    <glyph glyph-name="tbar" unicode="&#x167;" horiz-adv-x="729" 
d="M175 826h-116v236h116l18 297h280v-297h212v-236h-212v-116h212v-195h-212v-88q0 -107 39 -146.5t145 -39.5h25v-241h-36q-154 0 -241.5 19.5t-135.5 65.5q-94 88 -94 330v100h-116v195h116v116z" />
    <glyph glyph-name="Utilde" unicode="&#x168;" horiz-adv-x="1396" 
d="M158 1462h315v-915q0 -160 31 -221q26 -52 70 -73.5t124 -21.5q86 0 131.5 25t69.5 86q24 59 24 205v915h315v-915q0 -168 -19 -249q-36 -152 -171 -242q-116 -79 -350 -79t-350 78q-134 91 -171 243q-19 81 -19 249v915zM496 1592h-178q26 138 53 190q65 130 201 130
q91 0 163 -61q51 -44 66 -53.5t34 -9.5q50 0 66 109h178q-17 -131 -41 -189q-54 -131 -201 -131q-99 0 -175 69q-40 36 -55 45.5t-33 9.5q-28 0 -49.5 -30t-28.5 -79z" />
    <glyph glyph-name="utilde" unicode="&#x169;" horiz-adv-x="1152" 
d="M131 1062h298v-572q0 -110 18 -165q30 -93 124 -93q80 0 113 63t33 216v551h298v-1062h-201l-38 89q-30 -43 -63 -65q-72 -47 -208 -47q-269 0 -344 205q-30 82 -30 274v606zM379 1190h-178q27 139 53 190q65 131 201 131q91 0 163 -61q51 -44 66 -53.5t34 -9.5
q50 0 66 109h178q-18 -133 -41 -190q-54 -131 -201 -131q-99 0 -175 69q-40 36 -55 45.5t-33 9.5q-28 0 -49.5 -30t-28.5 -79z" />
    <glyph glyph-name="Umacron" unicode="&#x16a;" horiz-adv-x="1396" 
d="M158 1462h315v-915q0 -160 31 -221q26 -52 70 -73.5t124 -21.5q86 0 131.5 25t69.5 86q24 59 24 205v915h315v-915q0 -168 -19 -249q-36 -152 -171 -242q-116 -79 -350 -79t-350 78q-134 91 -171 243q-19 81 -19 249v915zM367 1626v212h663v-212h-663z" />
    <glyph glyph-name="umacron" unicode="&#x16b;" horiz-adv-x="1152" 
d="M131 1062h298v-572q0 -110 18 -165q30 -93 124 -93q80 0 113 63t33 216v551h298v-1062h-201l-38 89q-30 -43 -63 -65q-72 -47 -208 -47q-269 0 -344 205q-30 82 -30 274v606zM245 1225v212h663v-212h-663z" />
    <glyph glyph-name="Ubreve" unicode="&#x16c;" horiz-adv-x="1396" 
d="M158 1462h315v-915q0 -160 31 -221q26 -52 70 -73.5t124 -21.5q86 0 131.5 25t69.5 86q24 59 24 205v915h315v-915q0 -168 -19 -249q-36 -152 -171 -242q-116 -79 -350 -79t-350 78q-134 91 -171 243q-19 81 -19 249v915zM336 1907h184q11 -66 36 -90q41 -39 142 -39
q90 0 128 27.5t50 101.5h183q-4 -92 -12 -133.5t-31 -77.5q-42 -69 -114 -99q-75 -32 -204 -32q-170 0 -250 58q-62 44 -84.5 100.5t-27.5 183.5z" />
    <glyph glyph-name="ubreve" unicode="&#x16d;" horiz-adv-x="1152" 
d="M131 1062h298v-572q0 -110 18 -165q30 -93 124 -93q80 0 113 63t33 216v551h298v-1062h-201l-38 89q-30 -43 -63 -65q-72 -47 -208 -47q-269 0 -344 205q-30 82 -30 274v606zM215 1506h184q11 -66 36 -90q41 -39 142 -39q90 0 128 27.5t50 101.5h183q-4 -92 -12 -133.5
t-31 -77.5q-42 -69 -114 -99q-75 -32 -204 -32q-170 0 -250 58q-62 44 -84.5 100.5t-27.5 183.5z" />
    <glyph glyph-name="Uring" unicode="&#x16e;" horiz-adv-x="1396" 
d="M158 1462h315v-915q0 -160 31 -221q26 -52 70 -73.5t124 -21.5q86 0 131.5 25t69.5 86q24 59 24 205v915h315v-915q0 -168 -19 -249q-36 -152 -171 -242q-116 -79 -350 -79t-350 78q-134 91 -171 243q-19 81 -19 249v915zM701 2047q116 0 188 -61q79 -66 79 -176
q0 -109 -75 -176.5t-196 -67.5q-117 0 -191 65q-80 69 -80 178q0 110 74 174t201 64zM699 1912q-93 0 -93 -105q0 -106 89 -106q93 0 93 105q0 106 -89 106z" />
    <glyph glyph-name="uring" unicode="&#x16f;" horiz-adv-x="1152" 
d="M131 1062h298v-572q0 -110 18 -165q30 -93 124 -93q80 0 113 63t33 216v551h298v-1062h-201l-38 89q-30 -43 -63 -65q-72 -47 -208 -47q-269 0 -344 205q-30 82 -30 274v606zM579 1646q116 0 188 -61q79 -66 79 -176q0 -109 -75 -176.5t-196 -67.5q-117 0 -191 64
q-80 70 -80 179q0 110 74 174t201 64zM577 1511q-93 0 -93 -105q0 -106 89 -106q93 0 93 105q0 106 -89 106z" />
    <glyph glyph-name="Uhungarumlaut" unicode="&#x170;" horiz-adv-x="1396" 
d="M158 1462h315v-915q0 -160 31 -221q26 -52 70 -73.5t124 -21.5q86 0 131.5 25t69.5 86q24 59 24 205v915h315v-915q0 -168 -19 -249q-36 -152 -171 -242q-116 -79 -350 -79t-350 78q-134 91 -171 243q-19 81 -19 249v915zM387 1587l135 324h314l-243 -324h-206zM751 1587
l135 324h314l-243 -324h-206z" />
    <glyph glyph-name="uhungarumlaut" unicode="&#x171;" horiz-adv-x="1152" 
d="M131 1062h298v-572q0 -110 18 -165q30 -93 124 -93q80 0 113 63t33 216v551h298v-1062h-201l-38 89q-30 -43 -63 -65q-72 -47 -208 -47q-269 0 -344 205q-30 82 -30 274v606zM264 1186l135 324h314l-243 -324h-206zM628 1186l135 324h314l-243 -324h-206z" />
    <glyph glyph-name="Uogonek" unicode="&#x172;" horiz-adv-x="1396" 
d="M158 1462h315v-915q0 -160 31 -221q26 -52 70 -73.5t124 -21.5q85 0 131 25t70 86q24 59 24 205v915h315v-915q0 -165 -19 -248.5t-72 -152.5q-78 -101 -195 -137q-151 -127 -151 -224q0 -76 88 -76q56 0 128 25l32 -144q-102 -43 -219 -43q-291 0 -291 194
q0 134 143 236q-150 5 -234.5 31t-153.5 89q-99 90 -124 236q-12 70 -12 214v915z" />
    <glyph glyph-name="uogonek" unicode="&#x173;" horiz-adv-x="1152" 
d="M1015 0q-93 -69 -135 -120.5t-42 -96.5q0 -74 88 -74q56 0 128 25l31 -143q-100 -44 -218 -44q-149 0 -224 54q-67 48 -67 137q0 65 35.5 116t117.5 107q41 26 82 46l-35 82q-30 -43 -63 -65q-72 -47 -208 -47q-269 0 -344 205q-30 82 -30 274v606h298v-572
q0 -110 18 -165q30 -93 124 -93q80 0 113 63t33 216v551h298v-1062z" />
    <glyph glyph-name="Wcircumflex" unicode="&#x174;" horiz-adv-x="1910" 
d="M409 0l-373 1462h315l216 -1042l266 1042h244l266 -1042l216 1042h315l-373 -1462h-283l-263 965l-263 -965h-283zM955 1746l-111 -157h-279l281 320h218l282 -320h-279z" />
    <glyph glyph-name="wcircumflex" unicode="&#x175;" horiz-adv-x="1600" 
d="M355 0l-311 1062h303l153 -704l194 704h212l194 -704l153 704h303l-311 -1062h-258l-187 616l-187 -616h-258zM799 1344l-111 -156h-279l281 320h218l282 -320h-279z" />
    <glyph glyph-name="Ycircumflex" unicode="&#x176;" horiz-adv-x="1122" 
d="M407 0v527l-450 935h333l275 -625l273 625h335l-451 -935v-527h-315zM560 1746l-111 -157h-279l281 320h218l282 -320h-279z" />
    <glyph glyph-name="ycircumflex" unicode="&#x177;" horiz-adv-x="1051" 
d="M371 27l-350 1035h301l206 -715l195 715h303l-369 -1119q-57 -176 -124 -276q-39 -61 -99.5 -90.5t-163.5 -39.5q-81 -8 -178 -8v241q114 0 158 22q54 27 101 173zM525 1344l-111 -156h-279l281 320h218l282 -320h-279z" />
    <glyph glyph-name="Ydieresis" unicode="&#x178;" horiz-adv-x="1122" 
d="M407 0v527l-450 935h333l275 -625l273 625h335l-451 -935v-527h-315zM221 1593v274h264v-274h-264zM637 1593v274h264v-274h-264z" />
    <glyph glyph-name="Zacute" unicode="&#x179;" horiz-adv-x="1172" 
d="M109 0v207l585 999h-556v256h911v-207l-585 -999h614v-256h-969zM470 1587l172 324h332l-282 -324h-222z" />
    <glyph glyph-name="zacute" unicode="&#x17a;" horiz-adv-x="992" 
d="M66 0v187l434 636h-396v239h765v-187l-434 -636h464v-239h-833zM380 1186l172 324h332l-282 -324h-222z" />
    <glyph glyph-name="Zdotaccent" unicode="&#x17b;" horiz-adv-x="1172" 
d="M109 0v207l585 999h-556v256h911v-207l-585 -999h614v-256h-969zM467 1591v274h290v-274h-290z" />
    <glyph glyph-name="zdotaccent" unicode="&#x17c;" horiz-adv-x="992" 
d="M66 0v187l434 636h-396v239h765v-187l-434 -636h464v-239h-833zM363 1191v274h290v-274h-290z" />
    <glyph glyph-name="Zcaron" unicode="&#x17d;" horiz-adv-x="1172" 
d="M109 0v207l585 999h-556v256h911v-207l-585 -999h614v-256h-969zM632 1746l111 156h279l-281 -319h-218l-282 319h279z" />
    <glyph glyph-name="zcaron" unicode="&#x17e;" horiz-adv-x="992" 
d="M66 0v187l434 636h-396v239h765v-187l-434 -636h464v-239h-833zM516 1345l111 156h279l-281 -320h-218l-282 320h279z" />
    <glyph glyph-name="Ohorn" unicode="&#x1a0;" horiz-adv-x="1462" 
d="M1250 1488h258q19 -54 19 -105q0 -151 -120 -253q-58 -49 -173 -115q5 -75 5 -113v-342q0 -175 -30 -271q-50 -158 -193 -244q-113 -68 -331 -68t-331 68q-123 74 -173 189.5t-50 325.5v342q0 174 30 271q50 159 193 244q115 69 329 69q159 0 266.5 -38.5t175.5 -120.5
q52 -62 81 -146q88 64 88 165q0 73 -44 142zM924 586v290q0 200 -52.5 277.5t-186.5 77.5q-81 0 -128.5 -26t-75.5 -84q-35 -76 -35 -245v-290q0 -200 52.5 -277.5t186.5 -77.5q80 0 128 26t76 84q35 76 35 245z" />
    <glyph glyph-name="ohorn" unicode="&#x1a1;" horiz-adv-x="1265" 
d="M1043 1085h258q19 -54 19 -108q0 -110 -63.5 -190.5t-218.5 -167.5q3 -36 3 -64v-103q0 -235 -89 -342q-111 -133 -379 -133q-249 0 -358 110.5t-109 364.5v159q0 234 89 341q111 133 378 133q199 0 306 -68.5t144 -219.5q64 63 64 145q0 76 -44 143zM743 474v115
q0 141 -38.5 200t-130.5 59q-110 0 -145 -82q-25 -60 -25 -177v-115q0 -142 38.5 -201t131.5 -59q109 0 144 82q25 60 25 178z" />
    <glyph glyph-name="Uhorn" unicode="&#x1af;" horiz-adv-x="1553" 
d="M158 1462h315v-915q0 -160 31 -221q26 -52 70 -73.5t124 -21.5q86 0 131.5 25t69.5 86q24 59 24 205v915h315v-320q83 38 118.5 84t35.5 116q0 78 -44 146h258q19 -55 19 -108q0 -93 -44 -163.5t-144 -139.5q-59 -40 -199 -112v-418q0 -168 -19 -249q-36 -152 -171 -242
q-116 -79 -350 -79t-350 78q-134 91 -171 243q-19 81 -19 249v915z" />
    <glyph glyph-name="uhorn" unicode="&#x1b0;" horiz-adv-x="1340" 
d="M131 1062h298v-572q0 -110 18 -165q30 -93 124 -93q79 0 112 63t33 216v551h298v-322q84 39 119 84.5t35 115.5q0 78 -44 145h258q19 -54 19 -108q0 -92 -44 -163t-144 -139q-53 -36 -199 -113v-562h-201l-39 89q-30 -44 -62 -65q-72 -47 -207 -47q-269 0 -344 205
q-30 82 -30 274v606z" />
    <glyph glyph-name="uni01C4" unicode="&#x1c4;" horiz-adv-x="2460" 
d="M164 0v1462h511q142 0 233 -23.5t161 -78.5q93 -73 131.5 -179t38.5 -290v-319q0 -129 -14.5 -205t-50.5 -143q-64 -117 -183.5 -170.5t-315.5 -53.5h-511zM479 251h137q182 0 242 69q66 75 66 276v270q0 201 -66 276q-60 69 -242 69h-137v-960zM1397 0v207l585 999h-556
v256h911v-207l-585 -999h614v-256h-969zM1909 1746l112 156h279l-282 -319h-217l-282 319h278z" />
    <glyph glyph-name="uni01C5" unicode="&#x1c5;" horiz-adv-x="2326" 
d="M164 0v1462h511q142 0 233 -23.5t161 -78.5q93 -73 131.5 -179t38.5 -290v-319q0 -129 -14.5 -205t-50.5 -143q-64 -117 -183.5 -170.5t-315.5 -53.5h-511zM479 251h137q182 0 242 69q66 75 66 276v270q0 201 -66 276q-60 69 -242 69h-137v-960zM1400 0v187l434 636h-396
v239h765v-187l-434 -636h464v-239h-833zM1845 1345l111 156h279l-281 -320h-218l-282 320h279z" />
    <glyph glyph-name="uni01C6" unicode="&#x1c6;" horiz-adv-x="2156" 
d="M795 0l-18 65q-10 -8 -16 -13q-87 -75 -256 -75q-156 0 -241 56q-103 68 -137 210q-21 85 -21 211v153q0 236 78 345q97 133 317 133q89 0 169 -29l56 -30v436h298v-1462h-229zM403 585v-108q0 -139 38.5 -201t123.5 -62q161 0 161 203v227q0 204 -162 204
q-96 0 -134 -85q-27 -60 -27 -178zM1230 0v187l434 636h-397v239h766v-187l-434 -636h463v-239h-832zM1678 1345l111 156h279l-281 -320h-218l-282 320h279z" />
    <glyph glyph-name="uni01C7" unicode="&#x1c7;" horiz-adv-x="1763" 
d="M164 0v1462h315v-1206h617v-256h-932zM1284 1462h315v-1362q0 -187 -11 -272.5t-43 -145.5q-99 -184 -374 -184q-128 0 -257 49l107 233q57 -28 108 -28q110 0 140 116q15 58 15 229v1365z" />
    <glyph glyph-name="uni01C8" unicode="&#x1c8;" horiz-adv-x="1710" 
d="M164 0v1462h315v-1206h617v-256h-932zM1272 1197v281h298v-281h-298zM1272 1062h298v-1012q0 -204 -30 -297q-32 -99 -96.5 -147.5t-187.5 -65.5q-76 -11 -220 -11v241q84 0 124.5 11.5t67.5 44.5q44 54 44 194v1042z" />
    <glyph glyph-name="uni01C9" unicode="&#x1c9;" horiz-adv-x="1237" 
d="M135 1462h298v-1007q0 -126 38 -170t147 -44h30v-241h-43q-165 0 -264 27q-115 32 -160.5 133.5t-45.5 324.5v977zM798 1197v281h298v-281h-298zM798 1062h298v-1012q0 -205 -30 -297q-31 -99 -96 -147.5t-188 -65.5q-76 -11 -220 -11v241q84 0 124.5 11.5t66.5 44.5
q45 54 45 194v1042z" />
    <glyph glyph-name="uni01CA" unicode="&#x1ca;" horiz-adv-x="2100" 
d="M164 0v1462h306l518 -936v936h305v-1462h-306l-518 936v-936h-305zM1622 1462h315v-1362q0 -188 -11 -273.5t-43 -144.5q-99 -184 -374 -184q-127 0 -257 49l107 233q58 -28 108 -28q110 0 140 116q15 58 15 229v1365z" />
    <glyph glyph-name="uni01CB" unicode="&#x1cb;" horiz-adv-x="2048" 
d="M164 0v1462h306l518 -936v936h305v-1462h-306l-518 936v-936h-305zM1609 1062h298v-1012q0 -204 -30 -297q-32 -99 -96.5 -147.5t-187.5 -65.5q-76 -11 -219 -11v241q84 0 124 11.5t67 44.5q44 54 44 194v1042zM1609 1197v281h298v-281h-298z" />
    <glyph glyph-name="uni01CC" unicode="&#x1cc;" horiz-adv-x="1764" 
d="M137 0v1062h223l25 -81q53 57 116 80.5t162 23.5q270 0 347 -205q31 -83 31 -274v-606h-298v572q0 110 -19 165q-33 93 -130 93q-88 0 -123.5 -62.5t-35.5 -216.5v-551h-298zM1325 1062h298v-1012q0 -204 -30 -297q-32 -99 -96.5 -147.5t-187.5 -65.5q-76 -11 -220 -11
v241q84 0 124.5 11.5t67.5 44.5q44 53 44 194v1042zM1325 1197v281h298v-281h-298z" />
    <glyph glyph-name="uni01CD" unicode="&#x1cd;" horiz-adv-x="1276" 
d="M897 274h-511l-86 -274h-341l529 1462h305l530 -1462h-341zM822 525l-180 569l-181 -569h361zM639 1746l111 156h279l-281 -319h-218l-282 319h279z" />
    <glyph glyph-name="uni01CE" unicode="&#x1ce;" horiz-adv-x="1098" 
d="M669 650v35q0 163 -156 163q-116 0 -198 -102l-205 144q140 195 434 195q300 0 386 -190q37 -82 37 -264v-631h-233l-18 56q-89 -79 -280 -79q-187 0 -272 73q-46 40 -66 102t-20 163q0 191 85 263t311 72h195zM669 454h-157q-83 0 -118 -30t-35 -101q0 -68 34 -95.5
t120 -27.5q102 0 136 51q20 30 20 116v87zM550 1345l111 156h279l-281 -320h-218l-282 320h279z" />
    <glyph glyph-name="uni01CF" unicode="&#x1cf;" horiz-adv-x="643" 
d="M164 0v1462h315v-1462h-315zM322 1746l111 156h279l-281 -319h-218l-282 319h279z" />
    <glyph glyph-name="uni01D0" unicode="&#x1d0;" horiz-adv-x="579" 
d="M141 0v1062h298v-1062h-298zM290 1345l111 156h279l-281 -320h-218l-282 320h279z" />
    <glyph glyph-name="uni01D1" unicode="&#x1d1;" horiz-adv-x="1369" 
d="M131 560v342q0 174 31 271q49 158 192 244q114 68 331 68t331 -68q123 -74 173 -189.5t50 -325.5v-342q0 -175 -30 -271q-50 -158 -193 -244q-114 -68 -331 -68t-331 68q-123 74 -173 189.5t-50 325.5zM925 586v290q0 200 -52.5 277.5t-187.5 77.5q-81 0 -129 -26
t-76 -84q-35 -75 -35 -245v-290q0 -200 52.5 -277.5t187.5 -77.5q81 0 129 26t76 84q35 76 35 245zM685 1746l112 156h279l-282 -319h-217l-283 319h279z" />
    <glyph glyph-name="uni01D2" unicode="&#x1d2;" horiz-adv-x="1147" 
d="M106 452v159q0 234 89 341q111 133 379 133q249 0 358 -110.5t109 -363.5v-159q0 -235 -89 -342q-111 -133 -379 -133q-249 0 -358 110.5t-109 364.5zM743 474v115q0 141 -38.5 200t-130.5 59q-110 0 -145 -82q-25 -60 -25 -177v-115q0 -142 38.5 -201t131.5 -59
q109 0 144 82q25 60 25 178zM574 1345l111 156h279l-281 -320h-218l-282 320h279z" />
    <glyph glyph-name="uni01D3" unicode="&#x1d3;" horiz-adv-x="1396" 
d="M158 1462h315v-915q0 -160 31 -221q26 -52 70 -73.5t124 -21.5q86 0 131.5 25t69.5 86q24 59 24 205v915h315v-915q0 -168 -19 -249q-36 -152 -171 -242q-116 -79 -350 -79t-350 78q-134 91 -171 243q-19 81 -19 249v915zM699 1746l111 156h279l-281 -319h-218l-282 319
h279z" />
    <glyph glyph-name="uni01D4" unicode="&#x1d4;" horiz-adv-x="1152" 
d="M131 1062h298v-572q0 -110 18 -165q30 -93 124 -93q80 0 113 63t33 216v551h298v-1062h-201l-38 89q-30 -43 -63 -65q-72 -47 -208 -47q-269 0 -344 205q-30 82 -30 274v606zM577 1345l111 156h279l-281 -320h-218l-282 320h279z" />
    <glyph glyph-name="Gcaron" unicode="&#x1e6;" horiz-adv-x="1349" 
d="M704 579v241h532v-253q0 -161 -22 -252t-78 -163q-71 -92 -179.5 -133.5t-277.5 -41.5q-212 0 -327 69q-122 73 -171.5 190.5t-49.5 332.5v319q0 178 29 275q49 163 192 248q115 69 323 69q316 0 440 -171q71 -98 79 -263l-289 -20q-13 104 -67 152t-159 48
q-79 0 -127 -27t-74 -86q-32 -74 -32 -248v-272q0 -207 51 -284.5t187 -77.5q126 0 183 63.5t57 203.5v81h-220zM676 1746l111 156h279l-281 -319h-218l-282 319h279z" />
    <glyph glyph-name="gcaron" unicode="&#x1e7;" horiz-adv-x="1163" 
d="M727 35q-91 -58 -227 -58q-238 0 -331 156q-63 106 -63 321v153q0 236 78 345q96 133 320 133q171 0 262 -83l29 60h229v-1021q0 -256 -101 -377q-123 -148 -384 -148q-301 0 -415 219l221 124q36 -63 77.5 -88.5t105.5 -25.5q128 0 172 102q24 55 26 159zM403 585v-109
q0 -138 38.5 -200t123.5 -62q161 0 161 203v227q0 204 -162 204q-96 0 -134 -85q-27 -60 -27 -178zM608 1345l111 156h279l-281 -320h-218l-282 320h279z" />
    <glyph glyph-name="uni01EA" unicode="&#x1ea;" horiz-adv-x="1369" 
d="M936 8q-147 -120 -147 -223q0 -76 88 -76q56 0 128 25l31 -144q-100 -43 -219 -43q-291 0 -291 194q0 132 138 236q-134 4 -214 27t-148 77q-116 92 -152 251q-19 82 -19 228v342q0 174 31 271q49 158 192 244q113 68 331 68t331 -68q123 -74 173 -189.5t50 -325.5v-342
q0 -167 -27.5 -264.5t-95.5 -169.5q-79 -86 -180 -118zM924 586v290q0 200 -52.5 277.5t-186.5 77.5q-81 0 -128.5 -26t-75.5 -84q-35 -76 -35 -245v-290q0 -200 52.5 -277.5t186.5 -77.5q80 0 128 26t76 84q35 76 35 245z" />
    <glyph glyph-name="uni01EB" unicode="&#x1eb;" horiz-adv-x="1147" 
d="M825 18q-148 -123 -148 -232q0 -77 88 -77q57 0 128 26l31 -144q-99 -44 -219 -44q-290 0 -290 194q0 68 29.5 121.5t101.5 114.5q-208 9 -310 93q-130 106 -130 382v159q0 234 89 341q111 133 379 133q249 0 358 -110.5t109 -363.5v-159q0 -180 -51 -282.5t-165 -151.5z
M743 474v115q0 141 -38.5 200t-130.5 59q-110 0 -145 -82q-25 -60 -25 -177v-115q0 -142 38.5 -201t131.5 -59q109 0 144 82q25 60 25 178z" />
    <glyph glyph-name="uni01F1" unicode="&#x1f1;" horiz-adv-x="2460" 
d="M164 0v1462h511q142 0 233 -23.5t161 -78.5q93 -73 131.5 -179t38.5 -290v-319q0 -129 -14.5 -205t-50.5 -143q-64 -117 -183.5 -170.5t-315.5 -53.5h-511zM479 251h137q182 0 242 69q66 75 66 276v270q0 201 -66 276q-60 69 -242 69h-137v-960zM1397 0v207l585 999h-556
v256h911v-207l-585 -999h614v-256h-969z" />
    <glyph glyph-name="uni01F2" unicode="&#x1f2;" horiz-adv-x="2323" 
d="M164 0v1462h511q142 0 233 -23.5t161 -78.5q93 -73 131.5 -179t38.5 -290v-319q0 -129 -14.5 -205t-50.5 -143q-64 -117 -183.5 -170.5t-315.5 -53.5h-511zM479 251h137q182 0 242 69q66 75 66 276v270q0 201 -66 276q-60 69 -242 69h-137v-960zM1397 0v187l434 636h-396
v239h765v-187l-434 -636h464v-239h-833z" />
    <glyph glyph-name="uni01F3" unicode="&#x1f3;" horiz-adv-x="2156" 
d="M795 0l-18 65q-10 -8 -16 -13q-87 -75 -256 -75q-156 0 -241 56q-103 68 -137 210q-21 85 -21 211v153q0 236 78 345q97 133 317 133q89 0 169 -29l56 -30v436h298v-1462h-229zM403 585v-108q0 -139 38.5 -201t123.5 -62q161 0 161 203v227q0 204 -162 204
q-96 0 -134 -85q-27 -60 -27 -178zM1230 0v187l434 636h-397v239h766v-187l-434 -636h463v-239h-832z" />
    <glyph glyph-name="uni01F4" unicode="&#x1f4;" horiz-adv-x="1349" 
d="M704 579v241h532v-253q0 -161 -22 -252t-78 -163q-71 -92 -179.5 -133.5t-277.5 -41.5q-212 0 -327 69q-122 73 -171.5 190.5t-49.5 332.5v319q0 178 29 275q49 163 192 248q115 69 323 69q316 0 440 -171q71 -98 79 -263l-289 -20q-13 104 -67 152t-159 48
q-79 0 -127 -27t-74 -86q-32 -74 -32 -248v-272q0 -207 51 -284.5t187 -77.5q126 0 183 63.5t57 203.5v81h-220zM519 1587l172 324h332l-282 -324h-222z" />
    <glyph glyph-name="uni01F5" unicode="&#x1f5;" horiz-adv-x="1163" 
d="M727 35q-91 -58 -227 -58q-238 0 -331 156q-63 106 -63 321v153q0 236 78 345q96 133 320 133q171 0 262 -83l29 60h229v-1021q0 -256 -101 -377q-123 -148 -384 -148q-301 0 -415 219l221 124q36 -63 77.5 -88.5t105.5 -25.5q128 0 172 102q24 55 26 159zM403 585v-109
q0 -138 38.5 -200t123.5 -62q161 0 161 203v227q0 204 -162 204q-96 0 -134 -85q-27 -60 -27 -178zM426 1186l172 324h332l-282 -324h-222z" />
    <glyph glyph-name="Aringacute" unicode="&#x1fa;" horiz-adv-x="1276" 
d="M459 1382q-93 71 -93 191q0 108 73.5 172.5t197.5 64.5q120 0 192 -61q79 -66 79 -177q0 -113 -87 -186l502 -1386h-341l-85 274h-511l-86 -274h-341zM822 525l-180 569l-181 -569h361zM638 1675q-92 0 -92 -106t91 -106t91 106t-90 106zM528 1845l116 266h318l-257 -266
h-177z" />
    <glyph glyph-name="aringacute" unicode="&#x1fb;" horiz-adv-x="1098" 
d="M669 650v35q0 163 -156 163q-116 0 -198 -102l-205 144q140 195 434 195q300 0 386 -190q37 -82 37 -264v-631h-233l-18 56q-89 -79 -280 -79q-187 0 -272 73q-46 40 -66 102t-20 163q0 191 85 263t311 72h195zM669 454h-157q-83 0 -118 -30t-35 -101q0 -68 34 -95.5
t120 -27.5q102 0 136 51q20 30 20 116v87zM554 1624q116 0 188 -61q79 -66 79 -176q0 -109 -75 -176.5t-196 -67.5q-117 0 -191 64q-80 70 -80 179q0 110 74 174t201 64zM552 1489q-93 0 -93 -105q0 -106 89 -106q93 0 93 105q0 106 -89 106zM441 1659l116 266h317
l-257 -266h-176z" />
    <glyph glyph-name="AEacute" unicode="&#x1fc;" horiz-adv-x="1971" 
d="M947 309h-537l-182 -309h-364l932 1462h1072v-256h-611v-340h517v-256h-517v-354h621v-256h-931v309zM947 562v644h-12l-381 -644h393zM1160 1587l172 324h332l-282 -324h-222z" />
    <glyph glyph-name="aeacute" unicode="&#x1fd;" horiz-adv-x="1697" 
d="M832 986q44 42 83 60q85 39 239 39q175 0 274 -62q116 -73 155 -230q23 -94 23 -236v-102h-631v-26q0 -222 197 -222q73 0 121.5 26t86.5 86l220 -124q-66 -114 -172 -166t-276 -52q-122 0 -201.5 28t-136.5 92q-56 -63 -144 -91.5t-229 -28.5q-193 0 -278 74
q-46 39 -66 101.5t-20 162.5q0 129 33 195q48 94 164 122q76 18 199 18h195v35q0 163 -157 163q-115 0 -197 -102l-205 144q132 195 423 195q202 0 300 -99zM668 454h-157q-83 0 -118 -30t-35 -101q0 -68 34 -95.5t119 -27.5q91 0 124 38t33 142v74zM973 657h352v26
q0 89 -46 137t-131 48q-97 0 -141 -64q-34 -50 -34 -123v-24zM690 1186l172 324h332l-282 -324h-222z" />
    <glyph glyph-name="Oslashacute" unicode="&#x1fe;" horiz-adv-x="1369" 
d="M1178 1247q34 -69 47 -144.5t13 -200.5v-342q0 -175 -31 -271q-50 -159 -192 -244q-114 -68 -335 -68q-203 0 -314 61l-71 -105l-200 139l95 142q-34 70 -47 145t-13 201v342q0 175 30 271q50 159 192 244q115 68 335 68q205 0 316 -61l70 104l200 -139zM923 866
l-397 -589q52 -46 161 -46q78 0 126 26t74 84q36 76 36 245v280zM445 594l397 591q-54 46 -160 46q-79 0 -127 -26t-75 -84q-35 -76 -35 -245v-282zM526 1587l172 324h332l-282 -324h-222z" />
    <glyph glyph-name="oslashacute" unicode="&#x1ff;" horiz-adv-x="1147" 
d="M969 928q71 -103 71 -317v-159q0 -234 -89 -342q-110 -133 -379 -133q-158 0 -261 45l-58 -81l-139 108l62 86q-71 105 -71 317v159q0 234 89 341q111 133 376 133q170 0 264 -44l58 80l140 -107zM743 616l-270 -372q38 -30 100 -30q101 0 141 84q29 59 29 177v114v27z
M403 448l270 371q-40 29 -100 29q-89 0 -129.5 -62t-40.5 -197v-114v-27zM414 1186l172 324h332l-282 -324h-222z" />
    <glyph glyph-name="uni0200" unicode="&#x200;" horiz-adv-x="1276" 
d="M897 274h-511l-86 -274h-341l529 1462h305l530 -1462h-341zM822 525l-180 569l-181 -569h361zM950 1587h-206l-243 324h314zM586 1587h-206l-243 324h314z" />
    <glyph glyph-name="uni0201" unicode="&#x201;" horiz-adv-x="1098" 
d="M646 650v35q0 163 -156 163q-116 0 -198 -102l-205 144q140 195 434 195q300 0 386 -190q37 -82 37 -264v-631h-233l-18 56q-89 -79 -280 -79q-187 0 -272 73q-46 40 -66 102t-20 163q0 191 85 263t311 72h195zM646 454h-157q-83 0 -118 -30t-35 -101q0 -68 34 -95.5
t120 -27.5q102 0 136 51q20 30 20 116v87zM860 1186h-206l-243 324h314zM496 1186h-206l-243 324h314z" />
    <glyph glyph-name="uni0202" unicode="&#x202;" horiz-adv-x="1276" 
d="M897 274h-511l-86 -274h-341l529 1462h305l530 -1462h-341zM822 525l-180 569l-181 -569h361zM1000 1585h-183q-12 67 -36 90q-42 39 -142 39q-91 0 -128.5 -27.5t-49.5 -101.5h-184q4 92 12.5 133.5t30.5 77.5q42 69 114 99q75 32 204 32q171 0 250 -58
q62 -44 84.5 -101t27.5 -183z" />
    <glyph glyph-name="uni0203" unicode="&#x203;" horiz-adv-x="1098" 
d="M669 650v35q0 163 -156 163q-116 0 -198 -102l-205 144q140 195 434 195q300 0 386 -190q37 -82 37 -264v-631h-233l-18 56q-89 -79 -280 -79q-187 0 -272 73q-46 40 -66 102t-20 163q0 191 85 263t311 72h195zM669 454h-157q-83 0 -118 -30t-35 -101q0 -68 34 -95.5
t120 -27.5q102 0 136 51q20 30 20 116v87zM910 1183h-183q-12 66 -36 90q-42 39 -142 39q-91 0 -128.5 -27.5t-49.5 -101.5h-184q4 92 12.5 133.5t30.5 77.5q42 69 114 99q75 32 204 32q171 0 250 -58q62 -44 84.5 -101t27.5 -183z" />
    <glyph glyph-name="uni0204" unicode="&#x204;" horiz-adv-x="1192" 
d="M151 0v1462h923v-256h-611v-340h516v-256h-516v-354h621v-256h-933zM937 1587h-206l-243 324h314zM573 1587h-206l-243 324h314z" />
    <glyph glyph-name="uni0205" unicode="&#x205;" horiz-adv-x="1127" 
d="M390 455v-26q0 -223 198 -223q73 0 120.5 26t86.5 87l220 -124q-68 -117 -174.5 -167.5t-286.5 -50.5q-182 0 -282 61q-118 72 -158 224q-24 91 -24 227v68q0 262 88 380q58 78 146 112q94 36 232 36q249 0 357 -122.5t108 -405.5v-102h-631zM388 657h352v26
q0 89 -46 137t-131 48q-97 0 -141 -64q-34 -51 -34 -123v-24zM891 1186h-206l-243 324h314zM527 1186h-206l-243 324h314z" />
    <glyph glyph-name="uni0206" unicode="&#x206;" horiz-adv-x="1192" 
d="M166 0v1462h923v-256h-611v-340h516v-256h-516v-354h621v-256h-933zM988 1585h-183q-12 67 -36 90q-42 39 -142 39q-91 0 -128.5 -27.5t-49.5 -101.5h-184q4 92 12.5 133.5t30.5 77.5q42 69 114 99q75 32 204 32q171 0 250 -58q62 -44 84.5 -101t27.5 -183z" />
    <glyph glyph-name="uni0207" unicode="&#x207;" horiz-adv-x="1127" 
d="M406 455v-26q0 -223 198 -223q73 0 120.5 26t86.5 87l220 -124q-68 -117 -174.5 -167.5t-286.5 -50.5q-182 0 -282 61q-118 72 -158 224q-24 91 -24 227v68q0 262 88 380q58 78 146 112q94 36 232 36q249 0 357 -122.5t108 -405.5v-102h-631zM404 657h352v26
q0 89 -46 137t-131 48q-97 0 -141 -64q-34 -51 -34 -123v-24zM930 1183h-183q-12 66 -36 90q-42 39 -142 39q-91 0 -128.5 -27.5t-49.5 -101.5h-184q4 92 12.5 133.5t30.5 77.5q42 69 114 99q75 32 204 32q171 0 250 -58q62 -44 84.5 -101t27.5 -183z" />
    <glyph glyph-name="uni0208" unicode="&#x208;" horiz-adv-x="643" 
d="M164 0v1462h315v-1462h-315zM634 1587h-206l-243 324h314zM270 1587h-206l-243 324h314z" />
    <glyph glyph-name="uni0209" unicode="&#x209;" horiz-adv-x="579" 
d="M140 0v1062h298v-1062h-298zM601 1186h-206l-243 324h314zM237 1186h-206l-243 324h314z" />
    <glyph glyph-name="uni020A" unicode="&#x20a;" horiz-adv-x="643" 
d="M164 0v1462h315v-1462h-315zM683 1585h-183q-12 67 -36 90q-42 39 -142 39q-91 0 -128.5 -27.5t-49.5 -101.5h-184q4 92 12.5 133.5t30.5 77.5q42 69 114 99q75 32 204 32q171 0 250 -58q62 -44 84.5 -101t27.5 -183z" />
    <glyph glyph-name="uni020B" unicode="&#x20b;" horiz-adv-x="579" 
d="M140 0v1062h298v-1062h-298zM651 1183h-183q-12 66 -36 90q-42 39 -142 39q-91 0 -128.5 -27.5t-49.5 -101.5h-184q4 92 12.5 133.5t30.5 77.5q42 69 114 99q75 32 204 32q171 0 250 -58q62 -44 84.5 -101t27.5 -183z" />
    <glyph glyph-name="uni020C" unicode="&#x20c;" horiz-adv-x="1369" 
d="M131 560v342q0 174 31 271q49 158 192 244q113 68 331 68t331 -68q123 -74 173 -189.5t50 -325.5v-342q0 -175 -30 -271q-50 -158 -193 -244q-113 -68 -331 -68t-331 68q-123 74 -173 189.5t-50 325.5zM924 586v290q0 200 -52.5 277.5t-186.5 77.5q-81 0 -128.5 -26
t-75.5 -84q-35 -76 -35 -245v-290q0 -200 52.5 -277.5t186.5 -77.5q80 0 128 26t76 84q35 76 35 245zM997 1587h-206l-243 324h314zM633 1587h-206l-243 324h314z" />
    <glyph glyph-name="uni020D" unicode="&#x20d;" horiz-adv-x="1147" 
d="M92 452v159q0 234 89 341q111 133 379 133q249 0 358 -110.5t109 -363.5v-159q0 -235 -89 -342q-111 -133 -379 -133q-249 0 -358 110.5t-109 364.5zM729 474v115q0 141 -38.5 200t-130.5 59q-110 0 -145 -82q-25 -60 -25 -177v-115q0 -142 38.5 -201t131.5 -59
q109 0 144 82q25 60 25 178zM872 1186h-206l-243 324h314zM508 1186h-206l-243 324h314z" />
    <glyph glyph-name="uni020E" unicode="&#x20e;" horiz-adv-x="1369" 
d="M131 560v342q0 174 31 271q49 158 192 244q113 68 331 68t331 -68q123 -74 173 -189.5t50 -325.5v-342q0 -175 -30 -271q-50 -158 -193 -244q-113 -68 -331 -68t-331 68q-123 74 -173 189.5t-50 325.5zM924 586v290q0 200 -52.5 277.5t-186.5 77.5q-81 0 -128.5 -26
t-75.5 -84q-35 -76 -35 -245v-290q0 -200 52.5 -277.5t186.5 -77.5q80 0 128 26t76 84q35 76 35 245zM1046 1585h-183q-12 67 -36 90q-42 39 -142 39q-91 0 -128.5 -27.5t-49.5 -101.5h-184q4 92 12.5 133.5t30.5 77.5q42 69 114 99q75 32 204 32q171 0 250 -58
q62 -44 84.5 -101t27.5 -183z" />
    <glyph glyph-name="uni020F" unicode="&#x20f;" horiz-adv-x="1147" 
d="M106 452v159q0 234 89 341q111 133 379 133q249 0 358 -110.5t109 -363.5v-159q0 -235 -89 -342q-111 -133 -379 -133q-249 0 -358 110.5t-109 364.5zM743 474v115q0 141 -38.5 200t-130.5 59q-110 0 -145 -82q-25 -60 -25 -177v-115q0 -142 38.5 -201t131.5 -59
q109 0 144 82q25 60 25 178zM935 1183h-183q-12 66 -36 90q-42 39 -142 39q-91 0 -128.5 -27.5t-49.5 -101.5h-184q4 92 12.5 133.5t30.5 77.5q42 69 114 99q75 32 204 32q171 0 250 -58q62 -44 84.5 -101t27.5 -183z" />
    <glyph glyph-name="uni0210" unicode="&#x210;" horiz-adv-x="1314" 
d="M475 582v-582h-315v1462h555q162 0 248 -29q122 -42 179.5 -139t57.5 -262q0 -188 -61.5 -286.5t-202.5 -138.5l316 -607h-350l-274 582h-153zM470 824h219q100 0 145 37q54 44 54 156q0 106 -46.5 150t-157.5 44h-214v-387zM925 1587h-206l-243 324h314zM561 1587h-206
l-243 324h314z" />
    <glyph glyph-name="uni0211" unicode="&#x211;" horiz-adv-x="816" 
d="M137 0v1062h227l38 -67q53 51 97 70.5t107 19.5q109 0 236 -70l-128 -246q-76 60 -140 60q-73 0 -106 -75t-33 -243v-511h-298zM737 1186h-206l-243 324h314zM373 1186h-206l-243 324h314z" />
    <glyph glyph-name="uni0212" unicode="&#x212;" horiz-adv-x="1314" 
d="M481 582v-582h-315v1462h555q162 0 248 -29q122 -42 179.5 -139t57.5 -262q0 -188 -61.5 -286.5t-202.5 -138.5l316 -607h-350l-274 582h-153zM476 824h219q100 0 145 37q54 44 54 156q0 106 -46.5 150t-157.5 44h-214v-387zM979 1585h-183q-12 67 -36 90q-42 39 -142 39
q-91 0 -128.5 -27.5t-49.5 -101.5h-184q4 92 12.5 133.5t30.5 77.5q42 69 114 99q75 32 204 32q171 0 250 -58q62 -44 84.5 -101t27.5 -183z" />
    <glyph glyph-name="uni0213" unicode="&#x213;" horiz-adv-x="816" 
d="M137 0v1062h227l38 -67q53 51 97 70.5t107 19.5q109 0 236 -70l-128 -246q-76 60 -140 60q-73 0 -106 -75t-33 -243v-511h-298zM800 1183h-183q-12 66 -36 90q-42 39 -142 39q-91 0 -128.5 -27.5t-49.5 -101.5h-184q4 92 12.5 133.5t30.5 77.5q42 69 114 99q75 32 204 32
q171 0 250 -58q62 -44 84.5 -101t27.5 -183z" />
    <glyph glyph-name="uni0214" unicode="&#x214;" horiz-adv-x="1396" 
d="M158 1462h315v-915q0 -160 31 -221q26 -52 70 -73.5t124 -21.5q86 0 131.5 25t69.5 86q24 59 24 205v915h315v-915q0 -168 -19 -249q-36 -152 -171 -242q-116 -79 -350 -79t-350 78q-134 91 -171 243q-19 81 -19 249v915zM1010 1587h-206l-243 324h314zM646 1587h-206
l-243 324h314z" />
    <glyph glyph-name="uni0215" unicode="&#x215;" horiz-adv-x="1152" 
d="M125 1062h298v-572q0 -110 18 -165q30 -93 124 -93q80 0 113 63t33 216v551h298v-1062h-201l-38 89q-30 -43 -63 -65q-72 -47 -208 -47q-269 0 -344 205q-30 82 -30 274v606zM882 1186h-206l-243 324h314zM518 1186h-206l-243 324h314z" />
    <glyph glyph-name="uni0216" unicode="&#x216;" horiz-adv-x="1396" 
d="M158 1462h315v-915q0 -160 31 -221q26 -52 70 -73.5t124 -21.5q86 0 131.5 25t69.5 86q24 59 24 205v915h315v-915q0 -168 -19 -249q-36 -152 -171 -242q-116 -79 -350 -79t-350 78q-134 91 -171 243q-19 81 -19 249v915zM1060 1585h-183q-12 67 -36 90q-42 39 -142 39
q-91 0 -128.5 -27.5t-49.5 -101.5h-184q4 92 12.5 133.5t30.5 77.5q42 69 114 99q75 32 204 32q171 0 250 -58q62 -44 84.5 -101t27.5 -183z" />
    <glyph glyph-name="uni0217" unicode="&#x217;" horiz-adv-x="1152" 
d="M131 1062h298v-572q0 -110 18 -165q30 -93 124 -93q80 0 113 63t33 216v551h298v-1062h-201l-38 89q-30 -43 -63 -65q-72 -47 -208 -47q-269 0 -344 205q-30 82 -30 274v606zM938 1183h-183q-12 66 -36 90q-42 39 -142 39q-91 0 -128.5 -27.5t-49.5 -101.5h-184
q4 92 12.5 133.5t30.5 77.5q42 69 114 99q75 32 204 32q171 0 250 -58q62 -44 84.5 -101t27.5 -183z" />
    <glyph glyph-name="Scommaaccent" unicode="&#x218;" horiz-adv-x="1175" 
d="M22 233l240 152q41 -68 97 -102q84 -52 223 -52q228 0 228 175q0 89 -62 129q-30 20 -60.5 29.5t-182.5 47.5q-202 50 -300 136q-117 101 -117 305q0 218 133 325q134 107 364 107q349 0 488 -239l-233 -148q-96 135 -261 135q-90 0 -139.5 -42.5t-49.5 -119.5
q0 -84 57.5 -129t215.5 -84q140 -35 195 -55t110 -56q144 -95 144 -326q0 -221 -120 -325q-138 -120 -412 -120q-253 0 -411 99q-87 54 -147 158zM358 -497l99 372h284l-182 -372h-201z" />
    <glyph glyph-name="scommaaccent" unicode="&#x219;" horiz-adv-x="1018" 
d="M38 195l219 125q42 -66 86.5 -89t131.5 -23q188 0 188 114q0 43 -28 63.5t-95 27.5q-142 15 -196.5 26t-106.5 35q-145 67 -145 263q0 165 96 253q103 95 302 95q157 0 260.5 -52.5t169.5 -165.5l-220 -125q-36 62 -78 86.5t-111 24.5q-66 0 -102 -26.5t-36 -76.5
q0 -46 33 -65.5t129 -28.5q223 -21 309 -80q100 -70 100 -257q0 -204 -143 -280q-117 -62 -314 -62q-343 0 -449 218zM272 -497l99 372h284l-182 -372h-201z" />
    <glyph glyph-name="uni021A" unicode="&#x21a;" horiz-adv-x="1138" 
d="M411 0v1206h-388v256h1091v-256h-388v-1206h-315zM339 -497l99 372h284l-182 -372h-201z" />
    <glyph glyph-name="uni021B" unicode="&#x21b;" horiz-adv-x="721" 
d="M163 826h-116v236h116l18 297h280v-297h212v-236h-212v-371q0 -126 38 -170t146 -44h25v-241h-36q-153 0 -240.5 19.5t-136.5 65.5q-51 48 -72.5 138.5t-21.5 261.5v341zM178 -497l99 372h284l-182 -372h-201z" />
    <glyph glyph-name="uni0226" unicode="&#x226;" horiz-adv-x="1276" 
d="M897 274h-511l-86 -274h-341l529 1462h305l530 -1462h-341zM822 525l-180 569l-181 -569h361zM493 1591v274h290v-274h-290z" />
    <glyph glyph-name="uni0227" unicode="&#x227;" horiz-adv-x="1098" 
d="M669 650v35q0 163 -156 163q-116 0 -198 -102l-205 144q140 195 434 195q300 0 386 -190q37 -82 37 -264v-631h-233l-18 56q-89 -79 -280 -79q-187 0 -272 73q-46 40 -66 102t-20 163q0 191 85 263t311 72h195zM669 454h-157q-83 0 -118 -30t-35 -101q0 -68 34 -95.5
t120 -27.5q102 0 136 51q20 30 20 116v87zM423 1191v274h290v-274h-290z" />
    <glyph glyph-name="uni0237" unicode="&#x237;" horiz-adv-x="591" 
d="M152 1062h298v-1012q0 -204 -30 -297q-32 -99 -96.5 -147.5t-187.5 -65.5q-76 -11 -219 -11v241q84 0 124 11.5t67 44.5q44 54 44 194v1042z" />
    <glyph glyph-name="afii57929" unicode="&#x2bc;" horiz-adv-x="472" 
d="M48 918l65 544h312l-123 -544h-254z" />
    <glyph glyph-name="uni02C0" unicode="&#x2c0;" horiz-adv-x="1024" 
d="M634 1574h-202q2 103 10.5 133.5t50.5 84.5q19 24 19 42q0 35 -46 35q-37 0 -117 -37l-48 162q123 40 215 40q124 0 183 -58q52 -51 52 -129q0 -44 -13.5 -69t-67.5 -81q-22 -23 -28.5 -45t-7.5 -78z" />
    <glyph glyph-name="circumflex" unicode="&#x2c6;" horiz-adv-x="1024" 
d="M511 1344l-111 -156h-279l281 320h218l282 -320h-279z" />
    <glyph glyph-name="caron" unicode="&#x2c7;" horiz-adv-x="1024" 
d="M512 1345l111 156h279l-281 -320h-218l-282 320h279z" />
    <glyph glyph-name="uni02C9" unicode="&#x2c9;" horiz-adv-x="1024" 
d="M181 1225v212h663v-212h-663z" />
    <glyph glyph-name="breve" unicode="&#x2d8;" horiz-adv-x="1024" 
d="M150 1506h184q11 -66 36 -90q41 -39 142 -39q90 0 128 27.5t50 101.5h183q-4 -92 -12 -133.5t-31 -77.5q-42 -69 -114 -99q-75 -32 -204 -32q-170 0 -250 58q-62 44 -84.5 100.5t-27.5 183.5z" />
    <glyph glyph-name="dotaccent" unicode="&#x2d9;" horiz-adv-x="1024" 
d="M367 1191v274h290v-274h-290z" />
    <glyph glyph-name="ring" unicode="&#x2da;" horiz-adv-x="1024" 
d="M515 1646q116 0 188 -61q79 -66 79 -176q0 -109 -75 -176.5t-196 -67.5q-117 0 -191 64q-80 70 -80 179q0 110 74 174t201 64zM513 1511q-93 0 -93 -105q0 -106 89 -106q93 0 93 105q0 106 -89 106z" />
    <glyph glyph-name="ogonek" unicode="&#x2db;" horiz-adv-x="1024" 
d="M572 0h220q-96 -73 -136.5 -122t-40.5 -95q0 -74 88 -74q57 0 128 25l31 -143q-100 -44 -218 -44q-150 0 -225 54q-66 48 -66 137q0 75 51.5 137t167.5 125z" />
    <glyph glyph-name="tilde" unicode="&#x2dc;" horiz-adv-x="1024" 
d="M309 1190h-178q27 139 53 190q65 131 201 131q91 0 163 -61q51 -44 66 -53.5t34 -9.5q50 0 66 109h178q-18 -133 -41 -190q-54 -131 -201 -131q-99 0 -175 69q-40 36 -55 45.5t-33 9.5q-28 0 -49.5 -30t-28.5 -79z" />
    <glyph glyph-name="hungarumlaut" unicode="&#x2dd;" horiz-adv-x="1024" 
d="M200 1186l135 324h314l-243 -324h-206zM564 1186l135 324h314l-243 -324h-206z" />
    <glyph glyph-name="hookabovecomb" unicode="&#x309;" horiz-adv-x="1024" 
d="M634 1179h-202q2 103 10 133t51 84q19 24 19 43q0 34 -46 34q-37 0 -117 -37l-48 163q120 40 214 40q125 0 184 -58q52 -51 52 -130q0 -43 -13.5 -68.5t-67.5 -81.5q-22 -22 -28.5 -44.5t-7.5 -77.5z" />
    <glyph glyph-name="uni0312" unicode="&#x312;" horiz-adv-x="1024" 
d="M354 1186l282 324h222l-172 -324h-332z" />
    <glyph glyph-name="uni0313" unicode="&#x313;" horiz-adv-x="262" 
d="M-32 904l71 598h281l-143 -598h-209z" />
    <glyph glyph-name="uni031B" unicode="&#x31b;" horiz-adv-x="262" 
d="M-32 904l71 598h281l-143 -598h-209z" />
    <glyph glyph-name="dotbelowcomb" unicode="&#x323;" horiz-adv-x="1024" 
d="M367 -437v274h290v-274h-290z" />
    <glyph glyph-name="uni0326" unicode="&#x326;" horiz-adv-x="1024" 
d="M330 -497l99 372h284l-182 -372h-201z" />
    <glyph glyph-name="uni037E" unicode="&#x37e;" horiz-adv-x="604" 
d="M69 -385l99 668h329l-157 -668h-271zM179 780v287h315v-287h-315z" />
    <glyph glyph-name="anoteleia" unicode="&#x387;" horiz-adv-x="604" 
d="M145 579v286h315v-286h-315z" />
    <glyph glyph-name="uni04D4" unicode="&#x4d4;" horiz-adv-x="1971" 
d="M947 309h-537l-182 -309h-364l932 1462h1072v-256h-611v-340h517v-256h-517v-354h621v-256h-931v309zM947 562v644h-12l-381 -644h393z" />
    <glyph glyph-name="uni04D5" unicode="&#x4d5;" horiz-adv-x="1697" 
d="M832 986q44 42 83 60q85 39 239 39q175 0 274 -62q116 -73 155 -230q23 -94 23 -236v-102h-631v-26q0 -222 197 -222q73 0 121.5 26t86.5 86l220 -124q-66 -114 -172 -166t-276 -52q-122 0 -201.5 28t-136.5 92q-56 -63 -144 -91.5t-229 -28.5q-193 0 -278 74
q-46 39 -66 101.5t-20 162.5q0 129 33 195q48 94 164 122q76 18 199 18h195v35q0 163 -157 163q-115 0 -197 -102l-205 144q132 195 423 195q202 0 300 -99zM668 454h-157q-83 0 -118 -30t-35 -101q0 -68 34 -95.5t119 -27.5q91 0 124 38t33 142v74zM973 657h352v26
q0 89 -46 137t-131 48q-97 0 -141 -64q-34 -50 -34 -123v-24z" />
    <glyph glyph-name="uni1E02" unicode="&#x1e02;" horiz-adv-x="1300" 
d="M164 0v1462h576q152 0 230 -26q121 -41 179 -144q55 -95 55 -229q0 -201 -125 -299q68 -57 91 -92q59 -95 59 -261q0 -231 -136 -334q-56 -43 -129 -60t-197 -17h-603zM476 869h242q85 0 125 31q49 39 49 140q0 92 -40 131.5t-134 39.5h-242v-342zM476 251h269
q85 0 124 33q48 42 48 151q0 98 -40 140.5t-132 42.5h-269v-367zM472 1591v274h290v-274h-290z" />
    <glyph glyph-name="uni1E03" unicode="&#x1e03;" horiz-adv-x="1163" 
d="M139 0v1462h298v-436q105 59 222 59q242 0 335 -157q63 -105 63 -321v-153q0 -236 -78 -344q-51 -69 -127.5 -101t-194.5 -32q-98 0 -154 18t-117 70l-18 -65h-229zM760 477v108q0 138 -38.5 200.5t-122.5 62.5q-162 0 -162 -204v-227q0 -203 161 -203q97 0 135 85
q27 61 27 178zM626 1191v274h290v-274h-290z" />
    <glyph glyph-name="uni1E0C" unicode="&#x1e0c;" horiz-adv-x="1370" 
d="M164 0v1462h511q142 0 233 -23.5t161 -78.5q93 -73 131.5 -179t38.5 -290v-319q0 -129 -14.5 -205t-50.5 -143q-64 -117 -183.5 -170.5t-315.5 -53.5h-511zM479 251h137q182 0 242 69q66 75 66 276v270q0 201 -66 276q-60 69 -242 69h-137v-960zM496 -437v274h290v-274
h-290z" />
    <glyph glyph-name="uni1E0D" unicode="&#x1e0d;" horiz-adv-x="1163" 
d="M795 0l-18 65q-10 -8 -16 -13q-87 -75 -256 -75q-156 0 -241 56q-103 68 -137 210q-21 85 -21 211v153q0 236 78 345q97 133 317 133q89 0 169 -29l56 -30v436h298v-1462h-229zM403 585v-108q0 -139 38.5 -201t123.5 -62q161 0 161 203v227q0 204 -162 204
q-96 0 -134 -85q-27 -60 -27 -178zM476 -437v274h290v-274h-290z" />
    <glyph glyph-name="uni1E1E" unicode="&#x1e1e;" horiz-adv-x="1120" 
d="M166 0v1462h909v-256h-594v-351h496v-256h-496v-599h-315zM494 1591v274h290v-274h-290z" />
    <glyph glyph-name="uni1E1F" unicode="&#x1e1f;" horiz-adv-x="721" 
d="M181 826h-118v236h118v90q0 178 85 251q39 33 101 46t186 13h132v-218h-68q-93 0 -113 -19q-25 -23 -25 -96v-67h217v-236h-217v-826h-298v826zM293 1591v274h290v-274h-290z" />
    <glyph glyph-name="uni1E24" unicode="&#x1e24;" horiz-adv-x="1390" 
d="M164 0v1462h315v-596h432v596h315v-1462h-315v610h-432v-610h-315zM550 -437v274h290v-274h-290z" />
    <glyph glyph-name="uni1E25" unicode="&#x1e25;" horiz-adv-x="1173" 
d="M137 0v1462h298v-440q65 38 112.5 50.5t121.5 12.5q265 0 341 -205q31 -83 31 -274v-606h-298v587q0 128 -36 185.5t-116 57.5q-82 0 -119 -61.5t-37 -197.5v-571h-298zM441 -437v274h290v-274h-290z" />
    <glyph glyph-name="uni1E44" unicode="&#x1e44;" horiz-adv-x="1457" 
d="M164 0v1462h306l518 -936v936h305v-1462h-306l-518 936v-936h-305zM597 1591v274h290v-274h-290z" />
    <glyph glyph-name="uni1E45" unicode="&#x1e45;" horiz-adv-x="1173" 
d="M137 0v1062h223l25 -81q53 57 116 80.5t162 23.5q270 0 347 -205q31 -83 31 -274v-606h-298v572q0 110 -19 165q-33 93 -130 93q-88 0 -123.5 -62.5t-35.5 -216.5v-551h-298zM441 1191v274h290v-274h-290z" />
    <glyph glyph-name="uni1E5A" unicode="&#x1e5a;" horiz-adv-x="1314" 
d="M481 582v-582h-315v1462h555q162 0 248 -29q122 -42 179.5 -139t57.5 -262q0 -188 -61.5 -286.5t-202.5 -138.5l316 -607h-350l-274 582h-153zM476 824h219q100 0 145 37q54 44 54 156q0 106 -46.5 150t-157.5 44h-214v-387zM537 -437v274h290v-274h-290z" />
    <glyph glyph-name="uni1E5B" unicode="&#x1e5b;" horiz-adv-x="816" 
d="M137 0v1062h227l38 -67q53 51 97 70.5t107 19.5q109 0 236 -70l-128 -246q-76 60 -140 60q-73 0 -106 -75t-33 -243v-511h-298zM141 -437v274h290v-274h-290z" />
    <glyph glyph-name="uni1E62" unicode="&#x1e62;" horiz-adv-x="1175" 
d="M22 233l240 152q41 -68 97 -102q84 -52 223 -52q228 0 228 175q0 89 -62 129q-30 20 -60.5 29.5t-182.5 47.5q-202 50 -300 136q-117 101 -117 305q0 218 133 325q134 107 364 107q349 0 488 -239l-233 -148q-96 135 -261 135q-90 0 -139.5 -42.5t-49.5 -119.5
q0 -84 57.5 -129t215.5 -84q140 -35 195 -55t110 -56q144 -95 144 -326q0 -221 -120 -325q-138 -120 -412 -120q-253 0 -411 99q-87 54 -147 158zM415 -437v274h290v-274h-290z" />
    <glyph glyph-name="uni1E63" unicode="&#x1e63;" horiz-adv-x="1018" 
d="M38 195l219 125q42 -66 86.5 -89t131.5 -23q188 0 188 114q0 43 -28 63.5t-95 27.5q-142 15 -196.5 26t-106.5 35q-145 67 -145 263q0 165 96 253q103 95 302 95q157 0 260.5 -52.5t169.5 -165.5l-220 -125q-36 62 -78 86.5t-111 24.5q-66 0 -102 -26.5t-36 -76.5
q0 -46 33 -65.5t129 -28.5q223 -21 309 -80q100 -70 100 -257q0 -204 -143 -280q-117 -62 -314 -62q-343 0 -449 218zM350 -437v274h290v-274h-290z" />
    <glyph glyph-name="uni1E6C" unicode="&#x1e6c;" horiz-adv-x="1138" 
d="M411 0v1206h-388v256h1091v-256h-388v-1206h-315zM423 -437v274h290v-274h-290z" />
    <glyph glyph-name="uni1E6D" unicode="&#x1e6d;" horiz-adv-x="721" 
d="M163 826h-116v236h116l18 297h280v-297h212v-236h-212v-371q0 -126 38 -170t146 -44h25v-241h-36q-153 0 -240.5 19.5t-136.5 65.5q-51 48 -72.5 138.5t-21.5 261.5v341zM215 -437v274h290v-274h-290z" />
    <glyph glyph-name="Wgrave" unicode="&#x1e80;" horiz-adv-x="1910" 
d="M409 0l-373 1462h315l216 -1042l266 1042h244l266 -1042l216 1042h315l-373 -1462h-283l-263 965l-263 -965h-283zM1115 1587h-222l-282 324h332z" />
    <glyph glyph-name="wgrave" unicode="&#x1e81;" horiz-adv-x="1600" 
d="M355 0l-311 1062h303l153 -704l194 704h212l194 -704l153 704h303l-311 -1062h-258l-187 616l-187 -616h-258zM960 1186h-222l-282 324h332z" />
    <glyph glyph-name="Wacute" unicode="&#x1e82;" horiz-adv-x="1910" 
d="M409 0l-373 1462h315l216 -1042l266 1042h244l266 -1042l216 1042h315l-373 -1462h-283l-263 965l-263 -965h-283zM798 1587l172 324h332l-282 -324h-222z" />
    <glyph glyph-name="wacute" unicode="&#x1e83;" horiz-adv-x="1600" 
d="M355 0l-311 1062h303l153 -704l194 704h212l194 -704l153 704h303l-311 -1062h-258l-187 616l-187 -616h-258zM642 1186l172 324h332l-282 -324h-222z" />
    <glyph glyph-name="Wdieresis" unicode="&#x1e84;" horiz-adv-x="1910" 
d="M409 0l-373 1462h315l216 -1042l266 1042h244l266 -1042l216 1042h315l-373 -1462h-283l-263 965l-263 -965h-283zM615 1593v274h264v-274h-264zM1031 1593v274h264v-274h-264z" />
    <glyph glyph-name="wdieresis" unicode="&#x1e85;" horiz-adv-x="1600" 
d="M355 0l-311 1062h303l153 -704l194 704h212l194 -704l153 704h303l-311 -1062h-258l-187 616l-187 -616h-258zM465 1191v274h264v-274h-264zM871 1191v274h264v-274h-264z" />
    <glyph glyph-name="uni1E92" unicode="&#x1e92;" horiz-adv-x="1172" 
d="M109 0v207l585 999h-556v256h911v-207l-585 -999h614v-256h-969zM466 -437v274h290v-274h-290z" />
    <glyph glyph-name="uni1E93" unicode="&#x1e93;" horiz-adv-x="992" 
d="M66 0v187l434 636h-396v239h765v-187l-434 -636h464v-239h-833zM354 -437v274h290v-274h-290z" />
    <glyph glyph-name="uni1EA0" unicode="&#x1ea0;" horiz-adv-x="1276" 
d="M897 274h-511l-86 -274h-341l529 1462h305l530 -1462h-341zM822 525l-180 569l-181 -569h361zM493 -437v274h290v-274h-290z" />
    <glyph glyph-name="uni1EA1" unicode="&#x1ea1;" horiz-adv-x="1098" 
d="M669 650v35q0 163 -156 163q-116 0 -198 -102l-205 144q140 195 434 195q300 0 386 -190q37 -82 37 -264v-631h-233l-18 56q-89 -79 -280 -79q-187 0 -272 73q-46 40 -66 102t-20 163q0 191 85 263t311 72h195zM669 454h-157q-83 0 -118 -30t-35 -101q0 -68 34 -95.5
t120 -27.5q102 0 136 51q20 30 20 116v87zM404 -437v274h290v-274h-290z" />
    <glyph glyph-name="uni1EA2" unicode="&#x1ea2;" horiz-adv-x="1276" 
d="M897 274h-511l-86 -274h-341l529 1462h305l530 -1462h-341zM822 525l-180 569l-181 -569h361zM760 1574h-202q2 102 10.5 132.5t50.5 85.5q19 24 19 42q0 35 -45 35q-37 0 -118 -37l-48 162q124 40 216 40q123 0 182 -58q52 -51 52 -129q0 -44 -13.5 -69t-67.5 -81
q-21 -23 -27.5 -45t-8.5 -78z" />
    <glyph glyph-name="uni1EA3" unicode="&#x1ea3;" horiz-adv-x="1098" 
d="M669 650v35q0 163 -156 163q-116 0 -198 -102l-205 144q140 195 434 195q300 0 386 -190q37 -82 37 -264v-631h-233l-18 56q-89 -79 -280 -79q-187 0 -272 73q-46 40 -66 102t-20 163q0 191 85 263t311 72h195zM669 454h-157q-83 0 -118 -30t-35 -101q0 -68 34 -95.5
t120 -27.5q102 0 136 51q20 30 20 116v87zM672 1179h-201q1 102 9.5 132.5t50.5 84.5q19 24 19 42q0 35 -45 35q-37 0 -117 -37l-48 163q120 40 214 40q124 0 183 -58q52 -51 52 -130q0 -43 -13.5 -68.5t-67.5 -81.5q-21 -22 -27.5 -44.5t-8.5 -77.5z" />
    <glyph glyph-name="uni1EA4" unicode="&#x1ea4;" horiz-adv-x="1276" 
d="M897 274h-511l-86 -274h-341l529 1462h305l530 -1462h-341zM822 525l-180 569l-181 -569h361zM542 1872l125 242h232l-195 -242h-162zM638 1665l-106 -108h-263l267 260h204l268 -260h-263z" />
    <glyph glyph-name="uni1EA5" unicode="&#x1ea5;" horiz-adv-x="1098" 
d="M669 650v35q0 163 -156 163q-116 0 -198 -102l-205 144q140 195 434 195q300 0 386 -190q37 -82 37 -264v-631h-233l-18 56q-89 -79 -280 -79q-187 0 -272 73q-46 40 -66 102t-20 163q0 191 85 263t311 72h195zM669 454h-157q-83 0 -118 -30t-35 -101q0 -68 34 -95.5
t120 -27.5q102 0 136 51q20 30 20 116v87zM470 1471l125 242h232l-195 -242h-162zM566 1264l-106 -108h-263l267 260h204l268 -260h-263z" />
    <glyph glyph-name="uni1EA6" unicode="&#x1ea6;" horiz-adv-x="1276" 
d="M897 274h-511l-86 -274h-341l529 1462h305l530 -1462h-341zM822 525l-180 569l-181 -569h361zM728 1872h-161l-195 242h232zM638 1665l-106 -108h-263l267 260h205l267 -260h-263z" />
    <glyph glyph-name="uni1EA7" unicode="&#x1ea7;" horiz-adv-x="1098" 
d="M669 650v35q0 163 -156 163q-116 0 -198 -102l-205 144q140 195 434 195q300 0 386 -190q37 -82 37 -264v-631h-233l-18 56q-89 -79 -280 -79q-187 0 -272 73q-46 40 -66 102t-20 163q0 191 85 263t311 72h195zM669 454h-157q-83 0 -118 -30t-35 -101q0 -68 34 -95.5
t120 -27.5q102 0 136 51q20 30 20 116v87zM656 1471h-161l-195 242h232zM566 1264l-106 -108h-263l267 260h205l267 -260h-263z" />
    <glyph glyph-name="uni1EA8" unicode="&#x1ea8;" horiz-adv-x="1276" 
d="M897 274h-511l-86 -274h-341l529 1462h305l530 -1462h-341zM822 525l-180 569l-181 -569h361zM717 1824h-172v14q2 56 9 75.5t40 56.5q12 13 12 24q0 18 -30 18t-89 -28l-42 122q85 34 176 34q94 0 141 -43q43 -40 43 -99q0 -30 -11 -47.5t-53 -54.5q-14 -13 -17.5 -23.5
t-6.5 -48.5zM637 1658l-107 -101h-263l267 236h205l268 -236h-263z" />
    <glyph glyph-name="uni1EA9" unicode="&#x1ea9;" horiz-adv-x="1098" 
d="M669 650v35q0 163 -156 163q-116 0 -198 -102l-205 144q140 195 434 195q300 0 386 -190q37 -82 37 -264v-631h-233l-18 56q-89 -79 -280 -79q-187 0 -272 73q-46 40 -66 102t-20 163q0 191 85 263t311 72h195zM669 454h-157q-83 0 -118 -30t-35 -101q0 -68 34 -95.5
t120 -27.5q102 0 136 51q20 30 20 116v87zM645 1422h-172v14q2 56 9 76t40 57q12 13 12 24q0 18 -30 18t-89 -29l-42 123q88 34 176 34q94 0 141 -43q43 -40 43 -99q0 -30 -11 -48t-53 -55q-14 -12 -17.5 -22.5t-6.5 -49.5zM565 1257l-107 -101h-263l267 236h205l268 -236
h-263z" />
    <glyph glyph-name="uni1EAA" unicode="&#x1eaa;" horiz-adv-x="1276" 
d="M897 274h-511l-86 -274h-341l529 1462h305l530 -1462h-341zM822 525l-180 569l-181 -569h361zM468 1867h-146q21 108 44 149q55 102 166 102q74 0 132 -49q41 -35 53.5 -42.5t26.5 -7.5q41 0 53 87h147q-17 -111 -34 -149q-45 -102 -164 -102q-80 0 -141 55
q-49 44 -71 44q-23 0 -41.5 -24t-24.5 -63zM640 1665l-106 -108h-263l267 260h205l267 -260h-263z" />
    <glyph glyph-name="uni1EAB" unicode="&#x1eab;" horiz-adv-x="1098" 
d="M669 650v35q0 163 -156 163q-116 0 -198 -102l-205 144q140 195 434 195q300 0 386 -190q37 -82 37 -264v-631h-233l-18 56q-89 -79 -280 -79q-187 0 -272 73q-46 40 -66 102t-20 163q0 191 85 263t311 72h195zM669 454h-157q-83 0 -118 -30t-35 -101q0 -68 34 -95.5
t120 -27.5q102 0 136 51q20 30 20 116v87zM391 1466h-146q21 108 44 150q54 101 166 101q74 0 132 -48q41 -35 53 -42.5t27 -7.5q41 0 53 86h147q-17 -110 -34 -149q-45 -102 -164 -102q-80 0 -142 56q-48 43 -70 43q-23 0 -41.5 -24t-24.5 -63zM563 1264l-106 -108h-263
l267 260h204l268 -260h-263z" />
    <glyph glyph-name="uni1EAC" unicode="&#x1eac;" horiz-adv-x="1276" 
d="M897 274h-511l-86 -274h-341l529 1462h305l530 -1462h-341zM822 525l-180 569l-181 -569h361zM638 1746l-112 -157h-278l281 320h218l282 -320h-279zM493 -437v274h290v-274h-290z" />
    <glyph glyph-name="uni1EAD" unicode="&#x1ead;" horiz-adv-x="1098" 
d="M669 650v35q0 163 -156 163q-116 0 -198 -102l-205 144q140 195 434 195q300 0 386 -190q37 -82 37 -264v-631h-233l-18 56q-89 -79 -280 -79q-187 0 -272 73q-46 40 -66 102t-20 163q0 191 85 263t311 72h195zM669 454h-157q-83 0 -118 -30t-35 -101q0 -68 34 -95.5
t120 -27.5q102 0 136 51q20 30 20 116v87zM549 1344l-112 -156h-279l282 320h217l282 -320h-279zM404 -437v274h290v-274h-290z" />
    <glyph glyph-name="uni1EAE" unicode="&#x1eae;" horiz-adv-x="1276" 
d="M897 274h-511l-86 -274h-341l529 1462h305l530 -1462h-341zM822 525l-180 569l-181 -569h361zM542 1872l124 242h233l-195 -242h-162zM296 1860h173q10 -60 35 -82q38 -35 134 -35q86 0 122 24.5t47 92.5h173q-6 -139 -40 -194q-40 -63 -109 -91q-71 -29 -193 -29
q-160 0 -236 53q-59 41 -80 93t-26 168z" />
    <glyph glyph-name="uni1EAF" unicode="&#x1eaf;" horiz-adv-x="1098" 
d="M669 650v35q0 163 -156 163q-116 0 -198 -102l-205 144q140 195 434 195q300 0 386 -190q37 -82 37 -264v-631h-233l-18 56q-89 -79 -280 -79q-187 0 -272 73q-46 40 -66 102t-20 163q0 191 85 263t311 72h195zM669 454h-157q-83 0 -118 -30t-35 -101q0 -68 34 -95.5
t120 -27.5q102 0 136 51q20 30 20 116v87zM465 1471l124 242h233l-195 -242h-162zM219 1459h173q10 -60 34 -82q39 -35 135 -35q86 0 122 24.5t47 92.5h173q-6 -139 -41 -194q-39 -63 -108 -91q-71 -29 -193 -29q-160 0 -236 53q-59 41 -80 92.5t-26 168.5z" />
    <glyph glyph-name="uni1EB0" unicode="&#x1eb0;" horiz-adv-x="1276" 
d="M897 274h-511l-86 -274h-341l529 1462h305l530 -1462h-341zM822 525l-180 569l-181 -569h361zM745 1872h-161l-195 242h232zM296 1860h173q10 -60 35 -82q38 -35 134 -35q86 0 122 24.5t47 92.5h173q-6 -139 -40 -194q-40 -63 -109 -91q-71 -29 -193 -29q-160 0 -236 53
q-59 41 -80 93t-26 168z" />
    <glyph glyph-name="uni1EB1" unicode="&#x1eb1;" horiz-adv-x="1098" 
d="M669 650v35q0 163 -156 163q-116 0 -198 -102l-205 144q140 195 434 195q300 0 386 -190q37 -82 37 -264v-631h-233l-18 56q-89 -79 -280 -79q-187 0 -272 73q-46 40 -66 102t-20 163q0 191 85 263t311 72h195zM669 454h-157q-83 0 -118 -30t-35 -101q0 -68 34 -95.5
t120 -27.5q102 0 136 51q20 30 20 116v87zM680 1471h-162l-195 242h233zM219 1459h173q10 -60 34 -82q39 -35 135 -35q86 0 122 24.5t47 92.5h173q-6 -139 -41 -194q-39 -63 -108 -91q-71 -29 -193 -29q-160 0 -236 53q-59 41 -80 92.5t-26 168.5z" />
    <glyph glyph-name="uni1EB2" unicode="&#x1eb2;" horiz-adv-x="1276" 
d="M897 274h-511l-86 -274h-341l529 1462h305l530 -1462h-341zM822 525l-180 569l-181 -569h361zM719 1819h-172v14q2 57 9 76.5t40 57.5q12 14 12 25q0 20 -30 20q-29 0 -89 -28l-42 122q86 34 175 34q96 0 142 -44q43 -41 43 -101q0 -29 -11 -46.5t-52 -53.5
q-22 -20 -25 -76zM296 1860h170q10 -63 35 -87q39 -37 137 -37q88 0 124.5 26t48.5 98h169q-6 -139 -40 -194q-40 -63 -109 -91q-71 -29 -193 -29q-160 0 -236 53q-59 41 -80 93t-26 168z" />
    <glyph glyph-name="uni1EB3" unicode="&#x1eb3;" horiz-adv-x="1098" 
d="M669 650v35q0 163 -156 163q-116 0 -198 -102l-205 144q140 195 434 195q300 0 386 -190q37 -82 37 -264v-631h-233l-18 56q-89 -79 -280 -79q-187 0 -272 73q-46 40 -66 102t-20 163q0 191 85 263t311 72h195zM669 454h-157q-83 0 -118 -30t-35 -101q0 -68 34 -95.5
t120 -27.5q102 0 136 51q20 30 20 116v87zM642 1418h-172v14q2 57 9 76.5t39 57.5q12 14 12 25q0 20 -30 20q-29 0 -88 -28l-42 122q88 34 175 34q95 0 141 -44q43 -41 43 -101q0 -29 -11 -46.5t-51 -53.5q-22 -20 -25 -76zM219 1459h170q10 -63 35 -87q39 -37 137 -37
q88 0 124.5 26t47.5 98h170q-6 -139 -41 -194q-39 -63 -108 -91q-71 -29 -193 -29q-160 0 -236 53q-59 41 -80 92.5t-26 168.5z" />
    <glyph glyph-name="uni1EB4" unicode="&#x1eb4;" horiz-adv-x="1276" 
d="M897 274h-511l-86 -274h-341l529 1462h305l530 -1462h-341zM822 525l-180 569l-181 -569h361zM464 1887h-147q22 107 45 150q54 101 166 101q74 0 131 -49q41 -35 53.5 -42.5t27.5 -7.5q42 0 53 87h147q-16 -106 -34 -149q-45 -102 -164 -102q-81 0 -142 55
q-48 44 -71 44t-41 -23.5t-24 -63.5zM294 1829h164q9 -51 34 -71q37 -30 130 -30q86 0 121.5 21t46.5 80h164q-4 -78 -11.5 -110.5t-28.5 -62.5q-38 -56 -104 -81q-68 -26 -185 -26q-156 0 -228 47q-57 36 -78 83.5t-25 149.5z" />
    <glyph glyph-name="uni1EB5" unicode="&#x1eb5;" horiz-adv-x="1098" 
d="M669 650v35q0 163 -156 163q-116 0 -198 -102l-205 144q140 195 434 195q300 0 386 -190q37 -82 37 -264v-631h-233l-18 56q-89 -79 -280 -79q-187 0 -272 73q-46 40 -66 102t-20 163q0 191 85 263t311 72h195zM669 454h-157q-83 0 -118 -30t-35 -101q0 -68 34 -95.5
t120 -27.5q102 0 136 51q20 30 20 116v87zM392 1486h-147q22 107 44 150q55 101 167 101q74 0 131 -49q41 -34 53.5 -42t27.5 -8q42 0 53 87h147q-16 -107 -34 -149q-45 -102 -165 -102q-80 0 -141 55q-48 44 -71 44t-41 -23.5t-24 -63.5zM222 1427h164q9 -51 33 -71
q38 -30 131 -30q86 0 121.5 21t46.5 80h164q-4 -77 -11.5 -110t-28.5 -63q-38 -56 -104 -81q-68 -26 -185 -26q-156 0 -228 47q-57 36 -77.5 83t-25.5 150z" />
    <glyph glyph-name="uni1EB6" unicode="&#x1eb6;" horiz-adv-x="1276" 
d="M897 274h-511l-86 -274h-341l529 1462h305l530 -1462h-341zM822 525l-180 569l-181 -569h361zM276 1907h184q11 -66 36 -90q42 -39 142 -39q91 0 128.5 27t49.5 102h184q-4 -92 -12.5 -133.5t-30.5 -77.5q-42 -69 -114 -99q-76 -32 -204 -32q-171 0 -251 58
q-61 44 -83.5 100.5t-28.5 183.5zM493 -437v274h290v-274h-290z" />
    <glyph glyph-name="uni1EB7" unicode="&#x1eb7;" horiz-adv-x="1098" 
d="M669 650v35q0 163 -156 163q-116 0 -198 -102l-205 144q140 195 434 195q300 0 386 -190q37 -82 37 -264v-631h-233l-18 56q-89 -79 -280 -79q-187 0 -272 73q-46 40 -66 102t-20 163q0 191 85 263t311 72h195zM669 454h-157q-83 0 -118 -30t-35 -101q0 -68 34 -95.5
t120 -27.5q102 0 136 51q20 30 20 116v87zM193 1506h184q11 -66 36 -90q41 -39 142 -39q90 0 128 27t50 102h184q-4 -92 -12.5 -133.5t-30.5 -77.5q-42 -69 -115 -99q-75 -32 -204 -32q-170 0 -250 58q-61 44 -83.5 101t-28.5 183zM404 -437v274h290v-274h-290z" />
    <glyph glyph-name="uni1EB8" unicode="&#x1eb8;" horiz-adv-x="1192" 
d="M166 0v1462h923v-256h-611v-340h516v-256h-516v-354h621v-256h-933zM488 -437v274h290v-274h-290z" />
    <glyph glyph-name="uni1EB9" unicode="&#x1eb9;" horiz-adv-x="1127" 
d="M406 455v-26q0 -223 198 -223q73 0 120.5 26t86.5 87l220 -124q-68 -117 -174.5 -167.5t-286.5 -50.5q-182 0 -282 61q-118 72 -158 224q-24 91 -24 227v68q0 262 88 380q58 78 146 112q94 36 232 36q249 0 357 -122.5t108 -405.5v-102h-631zM404 657h352v26
q0 89 -46 137t-131 48q-97 0 -141 -64q-34 -51 -34 -123v-24zM419 -437v274h290v-274h-290z" />
    <glyph glyph-name="uni1EBA" unicode="&#x1eba;" horiz-adv-x="1192" 
d="M166 0v1462h923v-256h-611v-340h516v-256h-516v-354h621v-256h-933zM755 1574h-202q2 103 10 133t51 85q19 24 19 42q0 35 -45 35q-37 0 -118 -37l-48 162q124 40 215 40q124 0 183 -58q52 -51 52 -129q0 -44 -13.5 -69t-67.5 -81q-22 -23 -28.5 -45t-7.5 -78z" />
    <glyph glyph-name="uni1EBB" unicode="&#x1ebb;" horiz-adv-x="1127" 
d="M406 455v-26q0 -223 198 -223q73 0 120.5 26t86.5 87l220 -124q-68 -117 -174.5 -167.5t-286.5 -50.5q-182 0 -282 61q-118 72 -158 224q-24 91 -24 227v68q0 262 88 380q58 78 146 112q94 36 232 36q249 0 357 -122.5t108 -405.5v-102h-631zM404 657h352v26
q0 89 -46 137t-131 48q-97 0 -141 -64q-34 -51 -34 -123v-24zM689 1179h-202q2 103 10 132.5t51 84.5q19 24 19 42q0 35 -46 35q-37 0 -117 -37l-48 163q120 40 214 40q125 0 184 -58q52 -52 52 -130q0 -43 -14 -68.5t-67 -81.5q-22 -22 -28 -44t-8 -78z" />
    <glyph glyph-name="uni1EBC" unicode="&#x1ebc;" horiz-adv-x="1192" 
d="M166 0v1462h923v-256h-611v-340h516v-256h-516v-354h621v-256h-933zM430 1592h-178q26 138 53 190q65 130 201 130q91 0 163 -61q51 -44 66 -53.5t34 -9.5q50 0 66 109h178q-17 -131 -41 -189q-54 -131 -201 -131q-99 0 -175 69q-40 36 -55 45.5t-33 9.5q-28 0 -49.5 -30
t-28.5 -79z" />
    <glyph glyph-name="uni1EBD" unicode="&#x1ebd;" horiz-adv-x="1127" 
d="M406 455v-26q0 -223 198 -223q73 0 120.5 26t86.5 87l220 -124q-68 -117 -174.5 -167.5t-286.5 -50.5q-182 0 -282 61q-118 72 -158 224q-24 91 -24 227v68q0 262 88 380q58 78 146 112q94 36 232 36q249 0 357 -122.5t108 -405.5v-102h-631zM404 657h352v26
q0 89 -46 137t-131 48q-97 0 -141 -64q-34 -51 -34 -123v-24zM361 1190h-178q27 139 53 190q65 131 201 131q91 0 163 -61q51 -44 66 -53.5t34 -9.5q50 0 66 109h178q-18 -133 -41 -190q-54 -131 -201 -131q-99 0 -175 69q-40 36 -55 45.5t-33 9.5q-28 0 -49.5 -30
t-28.5 -79z" />
    <glyph glyph-name="uni1EBE" unicode="&#x1ebe;" horiz-adv-x="1192" 
d="M166 0v1462h923v-256h-611v-340h516v-256h-516v-354h621v-256h-933zM537 1872l124 242h233l-195 -242h-162zM633 1665l-106 -108h-264l267 260h205l268 -260h-263z" />
    <glyph glyph-name="uni1EBF" unicode="&#x1ebf;" horiz-adv-x="1127" 
d="M406 455v-26q0 -223 198 -223q73 0 120.5 26t86.5 87l220 -124q-68 -117 -174.5 -167.5t-286.5 -50.5q-182 0 -282 61q-118 72 -158 224q-24 91 -24 227v68q0 262 88 380q58 78 146 112q94 36 232 36q249 0 357 -122.5t108 -405.5v-102h-631zM404 657h352v26
q0 89 -46 137t-131 48q-97 0 -141 -64q-34 -51 -34 -123v-24zM480 1471l124 242h232l-194 -242h-162zM576 1264l-107 -108h-263l267 260h205l268 -260h-263z" />
    <glyph glyph-name="uni1EC0" unicode="&#x1ec0;" horiz-adv-x="1192" 
d="M166 0v1462h923v-256h-611v-340h516v-256h-516v-354h621v-256h-933zM723 1872h-161l-195 242h232zM633 1665l-107 -108h-263l268 260h205l267 -260h-263z" />
    <glyph glyph-name="uni1EC1" unicode="&#x1ec1;" horiz-adv-x="1127" 
d="M406 455v-26q0 -223 198 -223q73 0 120.5 26t86.5 87l220 -124q-68 -117 -174.5 -167.5t-286.5 -50.5q-182 0 -282 61q-118 72 -158 224q-24 91 -24 227v68q0 262 88 380q58 78 146 112q94 36 232 36q249 0 357 -122.5t108 -405.5v-102h-631zM404 657h352v26
q0 89 -46 137t-131 48q-97 0 -141 -64q-34 -51 -34 -123v-24zM666 1471h-162l-194 242h232zM576 1264l-107 -108h-263l268 260h205l267 -260h-264z" />
    <glyph glyph-name="uni1EC2" unicode="&#x1ec2;" horiz-adv-x="1192" 
d="M166 0v1462h923v-256h-611v-340h516v-256h-516v-354h621v-256h-933zM712 1824h-172v14q2 56 9 75.5t40 56.5q12 13 12 25q0 17 -30 17t-89 -28l-42 122q85 34 176 34q94 0 141 -43q43 -40 43 -99q0 -30 -11 -47.5t-53 -54.5q-14 -13 -17.5 -23.5t-6.5 -48.5zM632 1658
l-107 -101h-263l267 236h205l267 -236h-263z" />
    <glyph glyph-name="uni1EC3" unicode="&#x1ec3;" horiz-adv-x="1127" 
d="M406 455v-26q0 -223 198 -223q73 0 120.5 26t86.5 87l220 -124q-68 -117 -174.5 -167.5t-286.5 -50.5q-182 0 -282 61q-118 72 -158 224q-24 91 -24 227v68q0 262 88 380q58 78 146 112q94 36 232 36q249 0 357 -122.5t108 -405.5v-102h-631zM404 657h352v26
q0 89 -46 137t-131 48q-97 0 -141 -64q-34 -51 -34 -123v-24zM655 1422h-172v14q2 57 9 76.5t40 56.5q12 13 12 24q0 18 -31 18q-29 0 -88 -29l-42 123q87 34 176 34q94 0 141 -43q43 -40 43 -99q0 -30 -11 -48t-53 -55q-14 -13 -17.5 -23t-6.5 -49zM574 1257l-106 -101
h-263l267 236h205l267 -236h-263z" />
    <glyph glyph-name="uni1EC4" unicode="&#x1ec4;" horiz-adv-x="1192" 
d="M166 0v1462h923v-256h-611v-340h516v-256h-516v-354h621v-256h-933zM463 1867h-146q21 108 44 149q55 102 166 102q74 0 132 -49q41 -35 53 -42.5t27 -7.5q41 0 53 87h147q-17 -111 -34 -149q-45 -102 -164 -102q-81 0 -142 55q-48 44 -71 44t-41 -24t-24 -63zM635 1665
l-106 -108h-263l267 260h204l268 -260h-263z" />
    <glyph glyph-name="uni1EC5" unicode="&#x1ec5;" horiz-adv-x="1127" 
d="M406 455v-26q0 -223 198 -223q73 0 120.5 26t86.5 87l220 -124q-68 -117 -174.5 -167.5t-286.5 -50.5q-182 0 -282 61q-118 72 -158 224q-24 91 -24 227v68q0 262 88 380q58 78 146 112q94 36 232 36q249 0 357 -122.5t108 -405.5v-102h-631zM404 657h352v26
q0 89 -46 137t-131 48q-97 0 -141 -64q-34 -51 -34 -123v-24zM403 1466h-147q22 107 45 150q54 101 166 101q74 0 132 -48q41 -35 53 -42.5t27 -7.5q42 0 53 86h147q-16 -106 -34 -149q-45 -102 -164 -102q-80 0 -142 56q-48 43 -71 43t-41 -24t-24 -63zM575 1264l-106 -108
h-263l266 260h205l268 -260h-263z" />
    <glyph glyph-name="uni1EC6" unicode="&#x1ec6;" horiz-adv-x="1192" 
d="M166 0v1462h923v-256h-611v-340h516v-256h-516v-354h621v-256h-933zM625 1746l-112 -157h-278l281 320h218l282 -320h-279zM488 -437v274h290v-274h-290z" />
    <glyph glyph-name="uni1EC7" unicode="&#x1ec7;" horiz-adv-x="1127" 
d="M406 455v-26q0 -223 198 -223q73 0 120.5 26t86.5 87l220 -124q-68 -117 -174.5 -167.5t-286.5 -50.5q-182 0 -282 61q-118 72 -158 224q-24 91 -24 227v68q0 262 88 380q58 78 146 112q94 36 232 36q249 0 357 -122.5t108 -405.5v-102h-631zM404 657h352v26
q0 89 -46 137t-131 48q-97 0 -141 -64q-34 -51 -34 -123v-24zM577 1344l-112 -156h-278l281 320h218l282 -320h-279zM419 -437v274h290v-274h-290z" />
    <glyph glyph-name="uni1EC8" unicode="&#x1ec8;" horiz-adv-x="643" 
d="M164 0v1462h315v-1462h-315zM444 1574h-202q2 103 10.5 133.5t50.5 84.5q19 24 19 42q0 35 -46 35q-37 0 -117 -37l-48 162q123 40 215 40q124 0 183 -58q52 -51 52 -129q0 -44 -13.5 -69t-67.5 -81q-22 -23 -28.5 -45t-7.5 -78z" />
    <glyph glyph-name="uni1EC9" unicode="&#x1ec9;" horiz-adv-x="579" 
d="M141 0v1062h298v-1062h-298zM412 1179h-202q2 103 10 133t51 84q19 24 19 43q0 34 -46 34q-37 0 -117 -37l-48 163q120 40 214 40q125 0 184 -58q52 -51 52 -130q0 -43 -13.5 -68.5t-67.5 -81.5q-22 -22 -28.5 -44.5t-7.5 -77.5z" />
    <glyph glyph-name="uni1ECA" unicode="&#x1eca;" horiz-adv-x="643" 
d="M164 0v1462h315v-1462h-315zM177 -437v274h290v-274h-290z" />
    <glyph glyph-name="uni1ECB" unicode="&#x1ecb;" horiz-adv-x="579" 
d="M140 1197v281h298v-281h-298zM140 0v1062h298v-1062h-298zM144 -437v274h290v-274h-290z" />
    <glyph glyph-name="uni1ECC" unicode="&#x1ecc;" horiz-adv-x="1369" 
d="M131 560v342q0 174 31 271q49 158 192 244q113 68 331 68t331 -68q123 -74 173 -189.5t50 -325.5v-342q0 -175 -30 -271q-50 -158 -193 -244q-113 -68 -331 -68t-331 68q-123 74 -173 189.5t-50 325.5zM924 586v290q0 200 -52.5 277.5t-186.5 77.5q-81 0 -128.5 -26
t-75.5 -84q-35 -76 -35 -245v-290q0 -200 52.5 -277.5t186.5 -77.5q80 0 128 26t76 84q35 76 35 245zM540 -437v274h290v-274h-290z" />
    <glyph glyph-name="uni1ECD" unicode="&#x1ecd;" horiz-adv-x="1147" 
d="M106 452v159q0 234 89 341q111 133 379 133q249 0 358 -110.5t109 -363.5v-159q0 -235 -89 -342q-111 -133 -379 -133q-249 0 -358 110.5t-109 364.5zM743 474v115q0 141 -38.5 200t-130.5 59q-110 0 -145 -82q-25 -60 -25 -177v-115q0 -142 38.5 -201t131.5 -59
q109 0 144 82q25 60 25 178zM428 -437v274h290v-274h-290z" />
    <glyph glyph-name="uni1ECE" unicode="&#x1ece;" horiz-adv-x="1369" 
d="M131 560v342q0 174 31 271q49 158 192 244q113 68 331 68t331 -68q123 -74 173 -189.5t50 -325.5v-342q0 -175 -30 -271q-50 -158 -193 -244q-113 -68 -331 -68t-331 68q-123 74 -173 189.5t-50 325.5zM924 586v290q0 200 -52.5 277.5t-186.5 77.5q-81 0 -128.5 -26
t-75.5 -84q-35 -76 -35 -245v-290q0 -200 52.5 -277.5t186.5 -77.5q80 0 128 26t76 84q35 76 35 245zM807 1574h-202q2 103 10 133t51 85q19 24 19 42q0 35 -46 35q-37 0 -117 -37l-48 162q123 40 215 40q124 0 183 -58q52 -51 52 -129q0 -44 -13.5 -69t-67.5 -81
q-22 -24 -28.5 -45t-7.5 -78z" />
    <glyph glyph-name="uni1ECF" unicode="&#x1ecf;" horiz-adv-x="1147" 
d="M106 452v159q0 234 89 341q111 133 379 133q249 0 358 -110.5t109 -363.5v-159q0 -235 -89 -342q-111 -133 -379 -133q-249 0 -358 110.5t-109 364.5zM743 474v115q0 141 -38.5 200t-130.5 59q-110 0 -145 -82q-25 -60 -25 -177v-115q0 -142 38.5 -201t131.5 -59
q109 0 144 82q25 60 25 178zM696 1179h-202q1 102 9.5 132t51.5 85q19 24 19 42q0 35 -46 35q-36 0 -117 -37l-48 163q120 40 214 40q125 0 184 -58q52 -51 52 -130q0 -43 -13.5 -68.5t-67.5 -81.5q-22 -22 -28.5 -44.5t-7.5 -77.5z" />
    <glyph glyph-name="uni1ED0" unicode="&#x1ed0;" horiz-adv-x="1369" 
d="M131 560v342q0 174 31 271q49 158 192 244q113 68 331 68t331 -68q123 -74 173 -189.5t50 -325.5v-342q0 -175 -30 -271q-50 -158 -193 -244q-113 -68 -331 -68t-331 68q-123 74 -173 189.5t-50 325.5zM924 586v290q0 200 -52.5 277.5t-186.5 77.5q-81 0 -128.5 -26
t-75.5 -84q-35 -76 -35 -245v-290q0 -200 52.5 -277.5t186.5 -77.5q80 0 128 26t76 84q35 76 35 245zM589 1872l124 242h232l-194 -242h-162zM685 1665l-107 -108h-263l267 260h205l268 -260h-264z" />
    <glyph glyph-name="uni1ED1" unicode="&#x1ed1;" horiz-adv-x="1147" 
d="M106 452v159q0 234 89 341q111 133 379 133q249 0 358 -110.5t109 -363.5v-159q0 -235 -89 -342q-111 -133 -379 -133q-249 0 -358 110.5t-109 364.5zM743 474v115q0 141 -38.5 200t-130.5 59q-110 0 -145 -82q-25 -60 -25 -177v-115q0 -142 38.5 -201t131.5 -59
q109 0 144 82q25 60 25 178zM478 1471l124 242h232l-194 -242h-162zM574 1264l-107 -108h-263l267 260h205l267 -260h-263z" />
    <glyph glyph-name="uni1ED2" unicode="&#x1ed2;" horiz-adv-x="1369" 
d="M131 560v342q0 174 31 271q49 158 192 244q113 68 331 68t331 -68q123 -74 173 -189.5t50 -325.5v-342q0 -175 -30 -271q-50 -158 -193 -244q-113 -68 -331 -68t-331 68q-123 74 -173 189.5t-50 325.5zM924 586v290q0 200 -52.5 277.5t-186.5 77.5q-81 0 -128.5 -26
t-75.5 -84q-35 -76 -35 -245v-290q0 -200 52.5 -277.5t186.5 -77.5q80 0 128 26t76 84q35 76 35 245zM775 1872h-162l-194 242h232zM685 1665l-107 -108h-263l268 260h205l266 -260h-263z" />
    <glyph glyph-name="uni1ED3" unicode="&#x1ed3;" horiz-adv-x="1147" 
d="M106 452v159q0 234 89 341q111 133 379 133q249 0 358 -110.5t109 -363.5v-159q0 -235 -89 -342q-111 -133 -379 -133q-249 0 -358 110.5t-109 364.5zM743 474v115q0 141 -38.5 200t-130.5 59q-110 0 -145 -82q-25 -60 -25 -177v-115q0 -142 38.5 -201t131.5 -59
q109 0 144 82q25 60 25 178zM664 1471h-162l-194 242h232zM574 1264l-107 -108h-263l268 260h204l267 -260h-263z" />
    <glyph glyph-name="uni1ED4" unicode="&#x1ed4;" horiz-adv-x="1369" 
d="M131 560v342q0 174 31 271q49 158 192 244q113 68 331 68t331 -68q123 -74 173 -189.5t50 -325.5v-342q0 -175 -30 -271q-50 -158 -193 -244q-113 -68 -331 -68t-331 68q-123 74 -173 189.5t-50 325.5zM924 586v290q0 200 -52.5 277.5t-186.5 77.5q-81 0 -128.5 -26
t-75.5 -84q-35 -76 -35 -245v-290q0 -200 52.5 -277.5t186.5 -77.5q80 0 128 26t76 84q35 76 35 245zM764 1824h-172v14q2 56 9 75.5t39 56.5q12 13 12 24q0 18 -30 18t-88 -28l-42 122q85 34 175 34q94 0 141 -43q43 -40 43 -99q0 -30 -11 -47.5t-52 -54.5
q-14 -12 -17.5 -23.5t-6.5 -48.5zM683 1658l-106 -101h-263l267 236h205l267 -236h-263z" />
    <glyph glyph-name="uni1ED5" unicode="&#x1ed5;" horiz-adv-x="1147" 
d="M106 452v159q0 234 89 341q111 133 379 133q249 0 358 -110.5t109 -363.5v-159q0 -235 -89 -342q-111 -133 -379 -133q-249 0 -358 110.5t-109 364.5zM743 474v115q0 141 -38.5 200t-130.5 59q-110 0 -145 -82q-25 -60 -25 -177v-115q0 -142 38.5 -201t131.5 -59
q109 0 144 82q25 60 25 178zM653 1422h-172v14q1 57 8.5 76.5t39.5 56.5q12 13 12 24q0 18 -30 18t-89 -29l-41 123q87 34 176 34q93 0 140 -43q43 -40 43 -99q0 -30 -11 -48t-52 -55q-14 -12 -17.5 -22.5t-6.5 -49.5zM572 1257l-106 -101h-263l267 236h205l267 -236h-263z
" />
    <glyph glyph-name="uni1ED6" unicode="&#x1ed6;" horiz-adv-x="1369" 
d="M131 560v342q0 174 31 271q49 158 192 244q113 68 331 68t331 -68q123 -74 173 -189.5t50 -325.5v-342q0 -175 -30 -271q-50 -158 -193 -244q-113 -68 -331 -68t-331 68q-123 74 -173 189.5t-50 325.5zM924 586v290q0 200 -52.5 277.5t-186.5 77.5q-81 0 -128.5 -26
t-75.5 -84q-35 -76 -35 -245v-290q0 -200 52.5 -277.5t186.5 -77.5q80 0 128 26t76 84q35 76 35 245zM515 1867h-147q22 108 45 149q54 102 166 102q73 0 132 -49q40 -35 52.5 -42.5t27.5 -7.5q42 0 53 87h147q-16 -107 -34 -149q-45 -102 -164 -102q-81 0 -142 55
q-48 44 -71 44t-41 -24t-24 -63zM687 1665l-106 -108h-263l266 260h205l268 -260h-263z" />
    <glyph glyph-name="uni1ED7" unicode="&#x1ed7;" horiz-adv-x="1147" 
d="M106 452v159q0 234 89 341q111 133 379 133q249 0 358 -110.5t109 -363.5v-159q0 -235 -89 -342q-111 -133 -379 -133q-249 0 -358 110.5t-109 364.5zM743 474v115q0 141 -38.5 200t-130.5 59q-110 0 -145 -82q-25 -60 -25 -177v-115q0 -142 38.5 -201t131.5 -59
q109 0 144 82q25 60 25 178zM404 1466h-147q22 108 45 150q54 101 166 101q74 0 132 -48q41 -35 53 -42.5t27 -7.5q41 0 53 86h147q-16 -106 -34 -149q-45 -102 -164 -102q-80 0 -142 56q-48 43 -70 43q-24 0 -42 -24t-24 -63zM576 1264l-107 -108h-263l267 260h205
l268 -260h-263z" />
    <glyph glyph-name="uni1ED8" unicode="&#x1ed8;" horiz-adv-x="1369" 
d="M131 560v342q0 174 31 271q49 158 192 244q113 68 331 68t331 -68q123 -74 173 -189.5t50 -325.5v-342q0 -175 -30 -271q-50 -158 -193 -244q-113 -68 -331 -68t-331 68q-123 74 -173 189.5t-50 325.5zM924 586v290q0 200 -52.5 277.5t-186.5 77.5q-81 0 -128.5 -26
t-75.5 -84q-35 -76 -35 -245v-290q0 -200 52.5 -277.5t186.5 -77.5q80 0 128 26t76 84q35 76 35 245zM685 1746l-112 -157h-279l282 320h217l283 -320h-280zM540 -437v274h290v-274h-290z" />
    <glyph glyph-name="uni1ED9" unicode="&#x1ed9;" horiz-adv-x="1147" 
d="M106 452v159q0 234 89 341q111 133 379 133q249 0 358 -110.5t109 -363.5v-159q0 -235 -89 -342q-111 -133 -379 -133q-249 0 -358 110.5t-109 364.5zM743 474v115q0 141 -38.5 200t-130.5 59q-110 0 -145 -82q-25 -60 -25 -177v-115q0 -142 38.5 -201t131.5 -59
q109 0 144 82q25 60 25 178zM573 1344l-111 -156h-279l282 320h217l282 -320h-279zM428 -437v274h290v-274h-290z" />
    <glyph glyph-name="uni1EDA" unicode="&#x1eda;" horiz-adv-x="1462" 
d="M1250 1488h258q19 -54 19 -105q0 -151 -120 -253q-58 -49 -173 -115q5 -75 5 -113v-342q0 -175 -30 -271q-50 -158 -193 -244q-113 -68 -331 -68t-331 68q-123 74 -173 189.5t-50 325.5v342q0 174 30 271q50 159 193 244q115 69 329 69q159 0 266.5 -38.5t175.5 -120.5
q52 -62 81 -146q88 64 88 165q0 73 -44 142zM924 586v290q0 200 -52.5 277.5t-186.5 77.5q-81 0 -128.5 -26t-75.5 -84q-35 -76 -35 -245v-290q0 -200 52.5 -277.5t186.5 -77.5q80 0 128 26t76 84q35 76 35 245zM577 1587l172 324h332l-282 -324h-222z" />
    <glyph glyph-name="uni1EDB" unicode="&#x1edb;" horiz-adv-x="1265" 
d="M1043 1085h258q19 -54 19 -108q0 -110 -63.5 -190.5t-218.5 -167.5q3 -36 3 -64v-103q0 -235 -89 -342q-111 -133 -379 -133q-249 0 -358 110.5t-109 364.5v159q0 234 89 341q111 133 378 133q199 0 306 -68.5t144 -219.5q64 63 64 145q0 76 -44 143zM743 474v115
q0 141 -38.5 200t-130.5 59q-110 0 -145 -82q-25 -60 -25 -177v-115q0 -142 38.5 -201t131.5 -59q109 0 144 82q25 60 25 178zM461 1186l172 324h332l-281 -324h-223z" />
    <glyph glyph-name="uni1EDC" unicode="&#x1edc;" horiz-adv-x="1462" 
d="M1250 1488h258q19 -54 19 -105q0 -151 -120 -253q-58 -49 -173 -115q5 -75 5 -113v-342q0 -175 -30 -271q-50 -158 -193 -244q-113 -68 -331 -68t-331 68q-123 74 -173 189.5t-50 325.5v342q0 174 30 271q50 159 193 244q115 69 329 69q159 0 266.5 -38.5t175.5 -120.5
q52 -62 81 -146q88 64 88 165q0 73 -44 142zM924 586v290q0 200 -52.5 277.5t-186.5 77.5q-81 0 -128.5 -26t-75.5 -84q-35 -76 -35 -245v-290q0 -200 52.5 -277.5t186.5 -77.5q80 0 128 26t76 84q35 76 35 245zM873 1587h-222l-281 324h331z" />
    <glyph glyph-name="uni1EDD" unicode="&#x1edd;" horiz-adv-x="1265" 
d="M1043 1085h258q19 -54 19 -108q0 -110 -63.5 -190.5t-218.5 -167.5q3 -36 3 -64v-103q0 -235 -89 -342q-111 -133 -379 -133q-249 0 -358 110.5t-109 364.5v159q0 234 89 341q111 133 378 133q199 0 306 -68.5t144 -219.5q64 63 64 145q0 76 -44 143zM743 474v115
q0 141 -38.5 200t-130.5 59q-110 0 -145 -82q-25 -60 -25 -177v-115q0 -142 38.5 -201t131.5 -59q109 0 144 82q25 60 25 178zM765 1186h-223l-281 324h332z" />
    <glyph glyph-name="uni1EDE" unicode="&#x1ede;" horiz-adv-x="1462" 
d="M1250 1488h258q19 -54 19 -105q0 -151 -120 -253q-58 -49 -173 -115q5 -75 5 -113v-342q0 -175 -30 -271q-50 -158 -193 -244q-113 -68 -331 -68t-331 68q-123 74 -173 189.5t-50 325.5v342q0 174 30 271q50 159 193 244q115 69 329 69q159 0 266.5 -38.5t175.5 -120.5
q52 -62 81 -146q88 64 88 165q0 73 -44 142zM924 586v290q0 200 -52.5 277.5t-186.5 77.5q-81 0 -128.5 -26t-75.5 -84q-35 -76 -35 -245v-290q0 -200 52.5 -277.5t186.5 -77.5q80 0 128 26t76 84q35 76 35 245zM804 1574h-202q2 103 10.5 133t50.5 85q19 24 19 42
q0 35 -45 35q-38 0 -118 -37l-47 162q123 40 215 40q123 0 182 -58q52 -51 52 -129q0 -44 -13.5 -69t-67.5 -81q-21 -23 -27.5 -45t-8.5 -78z" />
    <glyph glyph-name="uni1EDF" unicode="&#x1edf;" horiz-adv-x="1265" 
d="M1043 1085h258q19 -54 19 -108q0 -110 -63.5 -190.5t-218.5 -167.5q3 -36 3 -64v-103q0 -235 -89 -342q-111 -133 -379 -133q-249 0 -358 110.5t-109 364.5v159q0 234 89 341q111 133 378 133q199 0 306 -68.5t144 -219.5q64 63 64 145q0 76 -44 143zM743 474v115
q0 141 -38.5 200t-130.5 59q-110 0 -145 -82q-25 -60 -25 -177v-115q0 -142 38.5 -201t131.5 -59q109 0 144 82q25 60 25 178zM704 1179h-202q2 103 10 132.5t51 84.5q19 24 19 42q0 35 -46 35q-37 0 -117 -37l-48 163q120 40 215 40q124 0 183 -58q52 -52 52 -130
q0 -43 -13.5 -68.5t-67.5 -81.5q-22 -23 -28.5 -45t-7.5 -77z" />
    <glyph glyph-name="uni1EE0" unicode="&#x1ee0;" horiz-adv-x="1462" 
d="M1250 1488h258q19 -54 19 -105q0 -151 -120 -253q-58 -49 -173 -115q5 -75 5 -113v-342q0 -175 -30 -271q-50 -158 -193 -244q-113 -68 -331 -68t-331 68q-123 74 -173 189.5t-50 325.5v342q0 174 30 271q50 159 193 244q115 69 329 69q159 0 266.5 -38.5t175.5 -120.5
q52 -62 81 -146q88 64 88 165q0 73 -44 142zM924 586v290q0 200 -52.5 277.5t-186.5 77.5q-81 0 -128.5 -26t-75.5 -84q-35 -76 -35 -245v-290q0 -200 52.5 -277.5t186.5 -77.5q80 0 128 26t76 84q35 76 35 245zM498 1592h-179q26 135 53 190q66 130 201 130q91 0 163 -61
q51 -44 66 -53.5t34 -9.5q51 0 66 109h178q-18 -134 -41 -189q-54 -131 -201 -131q-98 0 -175 69q-40 37 -54.5 46t-33.5 9q-28 0 -49 -30t-28 -79z" />
    <glyph glyph-name="uni1EE1" unicode="&#x1ee1;" horiz-adv-x="1265" 
d="M1043 1085h258q19 -54 19 -108q0 -110 -63.5 -190.5t-218.5 -167.5q3 -36 3 -64v-103q0 -235 -89 -342q-111 -133 -379 -133q-249 0 -358 110.5t-109 364.5v159q0 234 89 341q111 133 378 133q199 0 306 -68.5t144 -219.5q64 63 64 145q0 76 -44 143zM743 474v115
q0 141 -38.5 200t-130.5 59q-110 0 -145 -82q-25 -60 -25 -177v-115q0 -142 38.5 -201t131.5 -59q109 0 144 82q25 60 25 178zM399 1190h-179q27 139 53 190q66 131 201 131q91 0 163 -61q52 -44 66.5 -53.5t33.5 -9.5q50 0 66 109h179q-20 -136 -41 -190
q-55 -131 -201 -131q-99 0 -176 69q-40 37 -55 46t-33 9q-28 0 -49 -29.5t-28 -79.5z" />
    <glyph glyph-name="uni1EE2" unicode="&#x1ee2;" horiz-adv-x="1462" 
d="M1250 1488h258q19 -54 19 -105q0 -151 -120 -253q-58 -49 -173 -115q5 -75 5 -113v-342q0 -175 -30 -271q-50 -158 -193 -244q-113 -68 -331 -68t-331 68q-123 74 -173 189.5t-50 325.5v342q0 174 30 271q50 159 193 244q115 69 329 69q159 0 266.5 -38.5t175.5 -120.5
q52 -62 81 -146q88 64 88 165q0 73 -44 142zM924 586v290q0 200 -52.5 277.5t-186.5 77.5q-81 0 -128.5 -26t-75.5 -84q-35 -76 -35 -245v-290q0 -200 52.5 -277.5t186.5 -77.5q80 0 128 26t76 84q35 76 35 245zM529 -437v274h290v-274h-290z" />
    <glyph glyph-name="uni1EE3" unicode="&#x1ee3;" horiz-adv-x="1265" 
d="M1043 1085h258q19 -54 19 -108q0 -110 -63.5 -190.5t-218.5 -167.5q3 -36 3 -64v-103q0 -235 -89 -342q-111 -133 -379 -133q-249 0 -358 110.5t-109 364.5v159q0 234 89 341q111 133 378 133q199 0 306 -68.5t144 -219.5q64 63 64 145q0 76 -44 143zM743 474v115
q0 141 -38.5 200t-130.5 59q-110 0 -145 -82q-25 -60 -25 -177v-115q0 -142 38.5 -201t131.5 -59q109 0 144 82q25 60 25 178zM420 -437v274h290v-274h-290z" />
    <glyph glyph-name="uni1EE4" unicode="&#x1ee4;" horiz-adv-x="1396" 
d="M158 1462h315v-915q0 -160 31 -221q26 -52 70 -73.5t124 -21.5q86 0 131.5 25t69.5 86q24 59 24 205v915h315v-915q0 -168 -19 -249q-36 -152 -171 -242q-116 -79 -350 -79t-350 78q-134 91 -171 243q-19 81 -19 249v915zM553 -437v274h290v-274h-290z" />
    <glyph glyph-name="uni1EE5" unicode="&#x1ee5;" horiz-adv-x="1152" 
d="M131 1062h298v-572q0 -110 18 -165q30 -93 124 -93q80 0 113 63t33 216v551h298v-1062h-201l-38 89q-30 -43 -63 -65q-72 -47 -208 -47q-269 0 -344 205q-30 82 -30 274v606zM431 -437v274h290v-274h-290z" />
    <glyph glyph-name="uni1EE6" unicode="&#x1ee6;" horiz-adv-x="1396" 
d="M158 1462h315v-915q0 -160 31 -221q26 -52 70 -73.5t124 -21.5q86 0 131.5 25t69.5 86q24 59 24 205v915h315v-915q0 -168 -19 -249q-36 -152 -171 -242q-116 -79 -350 -79t-350 78q-134 91 -171 243q-19 81 -19 249v915zM820 1574h-202q2 103 10.5 133t50.5 85
q19 24 19 42q0 35 -45 35q-38 0 -118 -37l-48 162q124 40 216 40q123 0 182 -58q52 -51 52 -129q0 -44 -13.5 -69t-67.5 -81q-21 -23 -27.5 -45t-8.5 -78z" />
    <glyph glyph-name="uni1EE7" unicode="&#x1ee7;" horiz-adv-x="1152" 
d="M131 1062h298v-572q0 -110 18 -165q30 -93 124 -93q80 0 113 63t33 216v551h298v-1062h-201l-38 89q-30 -43 -63 -65q-72 -47 -208 -47q-269 0 -344 205q-30 82 -30 274v606zM698 1179h-202q2 103 10.5 132.5t50.5 84.5q19 24 19 42q0 35 -46 35q-37 0 -117 -37l-48 163
q121 40 215 40q124 0 183 -58q52 -52 52 -130q0 -43 -13.5 -68.5t-67.5 -81.5q-21 -23 -27.5 -44.5t-8.5 -77.5z" />
    <glyph glyph-name="uni1EE8" unicode="&#x1ee8;" horiz-adv-x="1553" 
d="M158 1462h315v-915q0 -160 31 -221q26 -52 70 -73.5t124 -21.5q86 0 131.5 25t69.5 86q24 59 24 205v915h315v-320q83 38 118.5 84t35.5 116q0 78 -44 146h258q19 -55 19 -108q0 -93 -44 -163.5t-144 -139.5q-59 -40 -199 -112v-418q0 -168 -19 -249q-36 -152 -171 -242
q-116 -79 -350 -79t-350 78q-134 91 -171 243q-19 81 -19 249v915zM608 1587l171 324h332l-281 -324h-222z" />
    <glyph glyph-name="uni1EE9" unicode="&#x1ee9;" horiz-adv-x="1340" 
d="M131 1062h298v-572q0 -110 18 -165q30 -93 124 -93q79 0 112 63t33 216v551h298v-322q84 39 119 84.5t35 115.5q0 78 -44 145h258q19 -54 19 -108q0 -92 -44 -163t-144 -139q-53 -36 -199 -113v-562h-201l-39 89q-30 -44 -62 -65q-72 -47 -207 -47q-269 0 -344 205
q-30 82 -30 274v606zM479 1186l172 324h332l-282 -324h-222z" />
    <glyph glyph-name="uni1EEA" unicode="&#x1eea;" horiz-adv-x="1553" 
d="M158 1462h315v-915q0 -160 31 -221q26 -52 70 -73.5t124 -21.5q86 0 131.5 25t69.5 86q24 59 24 205v915h315v-320q83 38 118.5 84t35.5 116q0 78 -44 146h258q19 -55 19 -108q0 -93 -44 -163.5t-144 -139.5q-59 -40 -199 -112v-418q0 -168 -19 -249q-36 -152 -171 -242
q-116 -79 -350 -79t-350 78q-134 91 -171 243q-19 81 -19 249v915zM870 1587h-223l-281 324h332z" />
    <glyph glyph-name="uni1EEB" unicode="&#x1eeb;" horiz-adv-x="1340" 
d="M131 1062h298v-572q0 -110 18 -165q30 -93 124 -93q79 0 112 63t33 216v551h298v-322q84 39 119 84.5t35 115.5q0 78 -44 145h258q19 -54 19 -108q0 -92 -44 -163t-144 -139q-53 -36 -199 -113v-562h-201l-39 89q-30 -44 -62 -65q-72 -47 -207 -47q-269 0 -344 205
q-30 82 -30 274v606zM755 1186h-223l-281 324h332z" />
    <glyph glyph-name="uni1EEC" unicode="&#x1eec;" horiz-adv-x="1553" 
d="M158 1462h315v-915q0 -160 31 -221q26 -52 70 -73.5t124 -21.5q86 0 131.5 25t69.5 86q24 59 24 205v915h315v-320q83 38 118.5 84t35.5 116q0 78 -44 146h258q19 -55 19 -108q0 -93 -44 -163.5t-144 -139.5q-59 -40 -199 -112v-418q0 -168 -19 -249q-36 -152 -171 -242
q-116 -79 -350 -79t-350 78q-134 91 -171 243q-19 81 -19 249v915zM826 1574h-202q2 103 10.5 133t50.5 85q19 24 19 42q0 35 -45 35q-37 0 -118 -37l-48 162q124 40 216 40q123 0 182 -58q52 -51 52 -129q0 -44 -13.5 -69t-67.5 -81q-21 -23 -28 -45t-8 -78z" />
    <glyph glyph-name="uni1EED" unicode="&#x1eed;" horiz-adv-x="1340" 
d="M131 1062h298v-572q0 -110 18 -165q30 -93 124 -93q79 0 112 63t33 216v551h298v-322q84 39 119 84.5t35 115.5q0 78 -44 145h258q19 -54 19 -108q0 -92 -44 -163t-144 -139q-53 -36 -199 -113v-562h-201l-39 89q-30 -44 -62 -65q-72 -47 -207 -47q-269 0 -344 205
q-30 82 -30 274v606zM690 1179h-201q1 103 9.5 133t50.5 84q19 24 19 42q0 35 -45 35q-38 0 -117 -37l-48 163q120 40 214 40q125 0 183 -58q52 -52 52 -130q0 -43 -13.5 -68.5t-67.5 -81.5q-21 -23 -27.5 -44.5t-8.5 -77.5z" />
    <glyph glyph-name="uni1EEE" unicode="&#x1eee;" horiz-adv-x="1553" 
d="M158 1462h315v-915q0 -160 31 -221q26 -52 70 -73.5t124 -21.5q86 0 131.5 25t69.5 86q24 59 24 205v915h315v-320q83 38 118.5 84t35.5 116q0 78 -44 146h258q19 -55 19 -108q0 -93 -44 -163.5t-144 -139.5q-59 -40 -199 -112v-418q0 -168 -19 -249q-36 -152 -171 -242
q-116 -79 -350 -79t-350 78q-134 91 -171 243q-19 81 -19 249v915zM524 1592h-178q26 138 53 190q65 130 201 130q91 0 163 -61q51 -44 66 -53.5t34 -9.5q49 0 66 109h178q-18 -134 -41 -189q-54 -131 -201 -131q-98 0 -175 69q-40 37 -55 46t-33 9q-28 0 -49 -29.5
t-29 -79.5z" />
    <glyph glyph-name="uni1EEF" unicode="&#x1eef;" horiz-adv-x="1340" 
d="M131 1062h298v-572q0 -110 18 -165q30 -93 124 -93q79 0 112 63t33 216v551h298v-322q84 39 119 84.5t35 115.5q0 78 -44 145h258q19 -54 19 -108q0 -92 -44 -163t-144 -139q-53 -36 -199 -113v-562h-201l-39 89q-30 -44 -62 -65q-72 -47 -207 -47q-269 0 -344 205
q-30 82 -30 274v606zM380 1190h-178q27 139 53 190q65 131 201 131q91 0 163 -61q51 -45 66 -54t34 -9q50 0 66 109h178q-18 -133 -41 -190q-54 -131 -201 -131q-99 0 -175 69q-40 36 -55 45.5t-33 9.5q-28 0 -49.5 -30t-28.5 -79z" />
    <glyph glyph-name="uni1EF0" unicode="&#x1ef0;" horiz-adv-x="1553" 
d="M158 1462h315v-915q0 -160 31 -221q26 -52 70 -73.5t124 -21.5q86 0 131.5 25t69.5 86q24 59 24 205v915h315v-320q83 38 118.5 84t35.5 116q0 78 -44 146h258q19 -55 19 -108q0 -93 -44 -163.5t-144 -139.5q-59 -40 -199 -112v-418q0 -168 -19 -249q-36 -152 -171 -242
q-116 -79 -350 -79t-350 78q-134 91 -171 243q-19 81 -19 249v915zM548 -437v274h290v-274h-290z" />
    <glyph glyph-name="uni1EF1" unicode="&#x1ef1;" horiz-adv-x="1340" 
d="M131 1062h298v-572q0 -110 18 -165q30 -93 124 -93q79 0 112 63t33 216v551h298v-322q84 39 119 84.5t35 115.5q0 78 -44 145h258q19 -54 19 -108q0 -92 -44 -163t-144 -139q-53 -36 -199 -113v-562h-201l-39 89q-30 -44 -62 -65q-72 -47 -207 -47q-269 0 -344 205
q-30 82 -30 274v606zM475 -437v274h290v-274h-290z" />
    <glyph glyph-name="Ygrave" unicode="&#x1ef2;" horiz-adv-x="1122" 
d="M407 0v527l-450 935h333l275 -625l273 625h335l-451 -935v-527h-315zM721 1587h-222l-282 324h332z" />
    <glyph glyph-name="ygrave" unicode="&#x1ef3;" horiz-adv-x="1051" 
d="M371 27l-350 1035h301l206 -715l195 715h303l-369 -1119q-57 -176 -124 -276q-39 -61 -99.5 -90.5t-163.5 -39.5q-81 -8 -178 -8v241q114 0 158 22q54 27 101 173zM685 1186h-222l-282 324h332z" />
    <glyph glyph-name="uni1EF4" unicode="&#x1ef4;" horiz-adv-x="1122" 
d="M407 0v527l-450 935h333l275 -625l273 625h335l-451 -935v-527h-315zM415 -437v274h290v-274h-290z" />
    <glyph glyph-name="uni1EF5" unicode="&#x1ef5;" horiz-adv-x="1051" 
d="M371 27l-350 1035h301l206 -715l195 715h303l-369 -1119q-57 -176 -124 -276q-39 -61 -99.5 -90.5t-163.5 -39.5q-81 -8 -178 -8v241q114 0 158 22q54 27 101 173zM730 -437v274h290v-274h-290z" />
    <glyph glyph-name="uni1EF6" unicode="&#x1ef6;" horiz-adv-x="1122" 
d="M407 0v527l-450 935h333l275 -625l273 625h335l-451 -935v-527h-315zM683 1574h-202q2 103 10.5 133.5t50.5 84.5q19 24 19 42q0 35 -46 35q-37 0 -117 -37l-48 162q123 40 215 40q124 0 183 -58q52 -51 52 -129q0 -44 -13.5 -69t-67.5 -81q-22 -23 -28.5 -45t-7.5 -78z
" />
    <glyph glyph-name="uni1EF7" unicode="&#x1ef7;" horiz-adv-x="1051" 
d="M371 27l-350 1035h301l206 -715l195 715h303l-369 -1119q-57 -176 -124 -276q-39 -61 -99.5 -90.5t-163.5 -39.5q-81 -8 -178 -8v241q114 0 158 22q54 27 101 173zM647 1179h-201q1 103 9.5 133t50.5 84q19 24 19 42q0 35 -45 35q-38 0 -117 -37l-48 163q120 40 214 40
q124 0 183 -58q52 -52 52 -130q0 -43 -13.5 -68.5t-67.5 -81.5q-21 -23 -27.5 -44.5t-8.5 -77.5z" />
    <glyph glyph-name="uni1EF8" unicode="&#x1ef8;" horiz-adv-x="1122" 
d="M407 0v527l-450 935h333l275 -625l273 625h335l-451 -935v-527h-315zM359 1592h-179q27 138 53 190q65 130 201 130q91 0 163 -61q51 -44 66 -53.5t34 -9.5q51 0 66 109h178q-18 -134 -41 -189q-54 -131 -201 -131q-98 0 -175 69q-40 37 -55 46t-33 9q-28 0 -49 -30
t-28 -79z" />
    <glyph glyph-name="uni1EF9" unicode="&#x1ef9;" horiz-adv-x="1051" 
d="M371 27l-350 1035h301l206 -715l195 715h303l-369 -1119q-57 -176 -124 -276q-39 -61 -99.5 -90.5t-163.5 -39.5q-81 -8 -178 -8v241q114 0 158 22q54 27 101 173zM323 1190h-178q27 139 53 190q65 131 201 131q91 0 163 -61q51 -45 66 -54t34 -9q50 0 66 109h178
q-18 -133 -41 -190q-54 -131 -201 -131q-99 0 -175 69q-40 36 -55 45.5t-33 9.5q-28 0 -49.5 -30t-28.5 -79z" />
    <glyph glyph-name="uni2002" unicode="&#x2002;" horiz-adv-x="1024" 
 />
    <glyph glyph-name="uni2003" unicode="&#x2003;" horiz-adv-x="2048" 
 />
    <glyph glyph-name="uni2004" unicode="&#x2004;" horiz-adv-x="683" 
 />
    <glyph glyph-name="uni2005" unicode="&#x2005;" horiz-adv-x="512" 
 />
    <glyph glyph-name="uni2006" unicode="&#x2006;" horiz-adv-x="341" 
 />
    <glyph glyph-name="uni2007" unicode="&#x2007;" 
 />
    <glyph glyph-name="uni2008" unicode="&#x2008;" horiz-adv-x="0" 
 />
    <glyph glyph-name="uni2009" unicode="&#x2009;" horiz-adv-x="410" 
 />
    <glyph glyph-name="uni200A" unicode="&#x200a;" horiz-adv-x="256" 
 />
    <glyph glyph-name="uni2011" unicode="&#x2011;" horiz-adv-x="949" 
d="M142 594v256h664v-256h-664z" />
    <glyph glyph-name="figuredash" unicode="&#x2012;" 
d="M119 594v256h868v-256h-868z" />
    <glyph glyph-name="endash" unicode="&#x2013;" 
d="M119 594v256h868v-256h-868z" />
    <glyph glyph-name="emdash" unicode="&#x2014;" 
d="M-14 594v256h1134v-256h-1134z" />
    <glyph glyph-name="afii00208" unicode="&#x2015;" 
d="M-14 594v256h1134v-256h-1134z" />
    <glyph glyph-name="underscoredbl" unicode="&#x2017;" horiz-adv-x="963" 
d="M-51 -493v153h1065v-153h-1065zM-51 -268v153h1065v-153h-1065z" />
    <glyph glyph-name="quoteleft" unicode="&#x2018;" horiz-adv-x="472" 
d="M425 1462l-65 -544h-312l122 544h255z" />
    <glyph glyph-name="quoteright" unicode="&#x2019;" horiz-adv-x="472" 
d="M48 918l65 544h312l-123 -544h-254z" />
    <glyph glyph-name="quotesinglbase" unicode="&#x201a;" horiz-adv-x="472" 
d="M48 -261l65 544h312l-123 -544h-254z" />
    <glyph glyph-name="quotedblleft" unicode="&#x201c;" horiz-adv-x="920" 
d="M873 1462l-65 -544h-312l123 544h254zM425 1462l-65 -544h-312l122 544h255z" />
    <glyph glyph-name="quotedblright" unicode="&#x201d;" horiz-adv-x="920" 
d="M48 918l65 544h312l-123 -544h-254zM496 918l65 544h312l-123 -544h-254z" />
    <glyph glyph-name="quotedblbase" unicode="&#x201e;" horiz-adv-x="920" 
d="M48 -261l65 544h312l-123 -544h-254zM496 -261l65 544h312l-123 -544h-254z" />
    <glyph glyph-name="dagger" unicode="&#x2020;" 
d="M400 790h-312v254h312v418h305v-418h312v-254h-312v-1096h-305v1096z" />
    <glyph glyph-name="daggerdbl" unicode="&#x2021;" 
d="M400 790h-312v254h312v418h305v-418h312v-254h-312v-218h284v-254h-284v-624h-305v624h-284v254h284v218z" />
    <glyph glyph-name="bullet" unicode="&#x2022;" 
d="M553 1105q194 0 310 -142q85 -104 85 -243q0 -138 -85 -243q-115 -142 -309 -142q-196 0 -312 142q-85 105 -85 247q0 138 85 239q120 142 311 142z" />
    <glyph glyph-name="ellipsis" unicode="&#x2026;" horiz-adv-x="1815" 
d="M145 0v287h315v-287h-315zM750 0v287h315v-287h-315zM1356 0v287h315v-287h-315z" />
    <glyph glyph-name="perthousand" unicode="&#x2030;" horiz-adv-x="2818" 
d="M69 999v138q0 102 17.5 160t61.5 100q47 47 114 67.5t171 20.5q111 0 182 -24t117 -78q65 -75 65 -246v-138q0 -100 -17.5 -158.5t-61.5 -101.5q-47 -46 -113.5 -66.5t-171.5 -20.5q-112 0 -182.5 24t-116.5 78q-36 42 -50.5 97t-14.5 148zM547 1028v81q0 105 -26 149.5
t-88 44.5t-88 -44.5t-26 -149.5v-81q0 -102 23 -143q28 -51 91 -51q62 0 88 44.5t26 149.5zM1185 325v138q0 101 17.5 159t61.5 101q47 47 113.5 67.5t172.5 20.5q111 0 181.5 -24t116.5 -79q65 -75 65 -245v-138q0 -101 -17.5 -159.5t-61.5 -101.5q-47 -46 -113.5 -66.5
t-171.5 -20.5q-112 0 -182.5 24t-116.5 78q-36 42 -50.5 97t-14.5 149zM1663 353v81q0 106 -26 150.5t-88 44.5t-88 -44.5t-26 -150.5v-81q0 -105 26 -149.5t88 -44.5t88 44.5t26 149.5zM2023 325v138q0 103 17 160t61 100q48 47 114.5 67.5t171.5 20.5q111 0 181.5 -24
t117.5 -79q64 -74 64 -245v-138q0 -101 -17.5 -159.5t-60.5 -101.5q-48 -46 -114.5 -66.5t-170.5 -20.5q-112 0 -182.5 24t-117.5 78q-36 43 -50 96.5t-14 149.5zM2501 353v81q0 105 -26.5 150t-87.5 45q-62 0 -88.5 -45t-26.5 -150v-81q0 -105 26.5 -149.5t88.5 -44.5
q61 0 87.5 44.5t26.5 149.5zM620 0l465 1462h276l-464 -1462h-277z" />
    <glyph glyph-name="guilsinglleft" unicode="&#x2039;" horiz-adv-x="574" 
d="M359 604l170 -259l-185 -126l-304 385l304 385l185 -126z" />
    <glyph glyph-name="guilsinglright" unicode="&#x203a;" horiz-adv-x="574" 
d="M214 604l-169 259l185 126l304 -385l-304 -385l-185 126z" />
    <glyph glyph-name="uni203E" unicode="&#x203e;" horiz-adv-x="963" 
d="M-51 1649v203h1065v-203h-1065z" />
    <glyph glyph-name="fraction" unicode="&#x2044;" horiz-adv-x="390" 
d="M-141 0l464 1462h277l-464 -1462h-277z" />
    <glyph glyph-name="uni2070" unicode="&#x2070;" horiz-adv-x="742" 
d="M52 1125v208q0 100 15.5 159t52.5 101q42 47 100.5 67.5t151.5 20.5q97 0 159 -24.5t103 -78.5q56 -74 56 -245v-208q0 -183 -68 -260q-42 -47 -100.5 -67.5t-149.5 -20.5q-99 0 -161 24t-103 79q-56 75 -56 245zM461 1140v178q0 105 -20.5 150t-69.5 45q-48 0 -69 -45
t-21 -150v-178q0 -105 21 -150t69 -45q49 0 69.5 45t20.5 150z" />
    <glyph glyph-name="uni2074" unicode="&#x2074;" horiz-adv-x="741" 
d="M416 791v133h-382v135l293 608h250l-273 -565h112v146h208v-146h81v-179h-81v-132h-208z" />
    <glyph glyph-name="uni2075" unicode="&#x2075;" horiz-adv-x="739" 
d="M79 1176l44 491h527v-182h-325l-13 -134q42 8 71 8q156 0 231 -70q64 -60 64 -213q0 -160 -69 -224q-81 -75 -254 -75q-217 0 -283 126q-29 56 -31 138l225 26q11 -108 92 -108t81 107q0 67 -20 96t-65 29q-60 0 -96 -48z" />
    <glyph glyph-name="uni2076" unicode="&#x2076;" horiz-adv-x="741" 
d="M416 1367h16q92 -1 163 -47q50 -33 71 -88t21 -157q0 -96 -17.5 -149t-59.5 -87q-79 -62 -238 -62q-176 0 -254 76q-61 59 -61 215q0 90 17 147t67 136l200 316h277zM373 1206q-47 0 -67 -30.5t-20 -99.5q0 -70 20 -100.5t66 -30.5q86 0 86 130q0 131 -85 131z" />
    <glyph glyph-name="uni2077" unicode="&#x2077;" horiz-adv-x="595" 
d="M58 791l239 694h-284v182h541v-133l-238 -743h-258z" />
    <glyph glyph-name="uni2078" unicode="&#x2078;" horiz-adv-x="741" 
d="M124 1257q-49 60 -49 165q0 138 69 198.5t227 60.5q168 0 237 -70q59 -60 59 -187q0 -104 -50 -167q78 -60 78 -202q0 -149 -72 -210q-79 -68 -252 -68q-175 0 -249.5 64t-74.5 214q0 144 77 202zM372 1525q-85 0 -85 -105q0 -108 84 -108t84 107q0 106 -83 106z
M372 1170q-51 0 -73.5 -26.5t-22.5 -86.5t22 -86t73 -26q50 0 72.5 26t22.5 85q0 60 -22 87t-72 27z" />
    <glyph glyph-name="uni2079" unicode="&#x2079;" horiz-adv-x="741" 
d="M330 1120q-154 4 -215 65.5t-61 211.5q0 90 18 141t61 84q78 58 236 58q172 0 243.5 -63t71.5 -215q0 -87 -12 -131.5t-54 -114.5l-218 -365h-275zM370 1512q-87 0 -87 -115q0 -116 86 -116t86 116q0 115 -85 115z" />
    <glyph glyph-name="uni2080" unicode="&#x2080;" horiz-adv-x="742" 
d="M52 129v208q0 100 15.5 159t52.5 101q42 47 100.5 67.5t151.5 20.5q97 0 159 -24.5t103 -78.5q56 -74 56 -245v-208q0 -183 -68 -259q-42 -47 -100.5 -67.5t-149.5 -20.5q-99 0 -161 24t-103 79q-56 74 -56 244zM461 144v178q0 106 -20.5 150.5t-69.5 44.5t-69.5 -45
t-20.5 -150v-178q0 -105 21 -149.5t69 -44.5q49 0 69.5 44.5t20.5 149.5z" />
    <glyph glyph-name="uni2081" unicode="&#x2081;" horiz-adv-x="581" 
d="M202 -205v657l-143 -50l-62 166l284 104h160v-877h-239z" />
    <glyph glyph-name="uni2082" unicode="&#x2082;" horiz-adv-x="737" 
d="M62 -205v145l254 286q55 62 87 119.5t32 94.5q0 29 -20 47t-52 18q-82 0 -96 -112l-221 16q11 139 68 196q82 82 258 82q302 0 302 -255q0 -103 -61 -196q-30 -47 -134 -160l-89 -99h280v-182h-608z" />
    <glyph glyph-name="uni2083" unicode="&#x2083;" horiz-adv-x="736" 
d="M227 180v153h86q49 0 79.5 25.5t30.5 66.5q0 35 -22.5 57t-58.5 22q-77 0 -94 -89l-214 16q9 128 68 181q80 73 253 73q307 0 307 -249q0 -121 -79 -177q55 -38 78.5 -84.5t23.5 -119.5q0 -131 -65 -194q-82 -79 -263 -79q-206 0 -291 94q-45 51 -55 170l225 26
q7 -51 25 -72q29 -36 88 -36q97 0 97 94q0 122 -121 122h-98z" />
    <glyph glyph-name="uni2084" unicode="&#x2084;" horiz-adv-x="741" 
d="M416 -205v134h-382v134l293 609h250l-273 -565h112v146h208v-146h81v-179h-81v-133h-208z" />
    <glyph glyph-name="uni2085" unicode="&#x2085;" horiz-adv-x="739" 
d="M79 180l44 492h527v-182h-325l-13 -134q42 8 71 8q156 0 231 -70q64 -60 64 -213q0 -160 -69 -224q-81 -75 -254 -75q-217 0 -283 126q-29 56 -31 138l225 25q11 -107 92 -107t81 107q0 67 -20 96t-65 29q-60 0 -96 -48z" />
    <glyph glyph-name="uni2086" unicode="&#x2086;" horiz-adv-x="741" 
d="M416 372h16q91 -1 163 -47q50 -33 71 -88t21 -157q0 -96 -17.5 -149t-59.5 -87q-79 -62 -238 -62q-177 0 -254 76q-61 60 -61 215q0 90 17 147t67 136l200 316h277zM373 211q-47 0 -67 -30t-20 -100t20 -100.5t66 -30.5q86 0 86 130q0 131 -85 131z" />
    <glyph glyph-name="uni2087" unicode="&#x2087;" horiz-adv-x="595" 
d="M64 -205l239 695h-284v182h541v-133l-238 -744h-258z" />
    <glyph glyph-name="uni2088" unicode="&#x2088;" horiz-adv-x="741" 
d="M124 261q-49 61 -49 166q0 137 69 197.5t227 60.5q168 0 237 -70q59 -60 59 -186q0 -105 -50 -168q78 -59 78 -201q0 -150 -72 -211q-79 -68 -252 -68q-175 0 -249.5 64t-74.5 214q0 144 77 202zM372 529q-85 0 -85 -105q0 -107 84 -107t84 107q0 105 -83 105zM372 175
q-51 0 -73.5 -26.5t-22.5 -87.5q0 -60 22 -86t73 -26q50 0 72.5 26.5t22.5 85.5q0 114 -94 114z" />
    <glyph glyph-name="uni2089" unicode="&#x2089;" horiz-adv-x="741" 
d="M330 124q-154 4 -215 65.5t-61 211.5q0 90 18 141.5t61 83.5q78 59 236 59q172 0 243.5 -63.5t71.5 -215.5q0 -87 -12 -131.5t-54 -114.5l-218 -365h-275zM370 517q-87 0 -87 -116t86 -116t86 116t-85 116z" />
    <glyph glyph-name="franc" unicode="&#x20a3;" horiz-adv-x="1626" 
d="M159 0v1462h773v-256h-468v-351h370v-256h-370v-599h-305zM940 0v941h221l37 -73q57 54 105.5 75t116.5 21q99 0 214 -57l-125 -239q-67 57 -121 57q-83 0 -120.5 -79t-37.5 -255v-391h-290z" />
    <glyph glyph-name="lira" unicode="&#x20a4;" 
d="M99 0v221q101 22 157 83q65 69 72 157h-259v166h227q-30 62 -44 88h-183v166h105q-34 94 -34 189q0 206 116 314q110 101 315 101q250 0 372 -138q56 -62 108 -196l-250 -103q-48 106 -95 148t-118 42q-136 0 -136 -144q0 -96 66 -213h363v-166h-283q2 -7 12 -41
q4 -14 9 -47h262v-166h-266q-1 -7 -3 -29q-6 -82 -97 -176h574v-256h-990z" />
    <glyph glyph-name="peseta" unicode="&#x20a7;" 
d="M157 894h-162v166h162v402h367q130 0 204 -15t139 -55q153 -94 172 -332h137v-166h-136q-10 -157 -74 -254q-61 -92 -161.5 -130t-280.5 -38h-62v-472h-305v894zM457 894v-180h83q123 0 165 68q24 39 34 112h-282zM457 1060h279q-13 88 -57.5 124.5t-138.5 36.5h-83v-161
z" />
    <glyph glyph-name="dong" unicode="&#x20ab;" 
d="M52 -384v203h994v-203h-994zM656 1149h-284v183h284v130h298v-130h156v-183h-156v-1149h-229l-18 65q-10 -8 -16 -13q-87 -75 -256 -75q-156 0 -241 56q-103 68 -137 210q-21 85 -21 211v153q0 236 78 345q97 133 317 133q89 0 169 -29l56 -30v123zM333 585v-108
q0 -139 38.5 -201t123.5 -62q161 0 161 203v227q0 204 -162 204q-96 0 -134 -85q-27 -60 -27 -178z" />
    <glyph glyph-name="Euro" unicode="&#x20ac;" 
d="M140 616v91h-175l65 166h110v26q0 295 106 426q65 80 154.5 116t223.5 36q278 0 389 -172q61 -96 69 -262l-289 -21q-17 201 -165 201q-95 0 -134 -75.5t-39 -255.5v-19h484l-65 -166h-419v-91h377l-65 -166h-307q13 -126 59 -177t147 -51q158 0 181 139l267 -36
q-9 -155 -90 -239q-114 -118 -368 -118q-121 0 -206 25t-150 80q-144 122 -157 377h-176l65 166h108z" />
    <glyph glyph-name="uni20B4" unicode="&#x20b4;" 
d="M-14 625l43 160l169 -45q48 37 153 86l-289 77l43 160l503 -134q84 62 84 163q0 77 -41.5 119.5t-116.5 42.5q-120 0 -182 -120l-227 116q117 235 418 235q200 0 314 -103q116 -104 116 -313q0 -75 -9 -119.5t-36 -106.5l108 -29l-43 -160l-171 46q-64 -43 -167 -82
l306 -82l-44 -160l-507 136q-46 -54 -46 -133q0 -169 185 -169q173 0 248 114l233 -122q-129 -226 -487 -226q-237 0 -357 115q-103 100 -103 310q0 60 4 83.5t29 105.5z" />
    <glyph glyph-name="uni2101" unicode="&#x2101;" horiz-adv-x="1932" 
d="M861 706l240 756h242l-464 -1462h-242l186 586h-165l-51 145h-329l-52 -145h-253l369 876h200zM553 884l-111 306l-110 -306h221zM1154 157l191 107q32 -53 73.5 -75.5t109.5 -22.5q53 0 83 21.5t30 60.5q0 40 -32 60q-24 15 -144 43q-124 29 -185 79q-74 61 -74 183
q0 135 83 206t242 71q120 0 197 -38t128 -123l-185 -104q-60 87 -146 87q-89 0 -89 -75q0 -39 34.5 -62.5t121.5 -43.5q133 -31 188 -65q91 -57 91 -202q0 -142 -77 -206q-88 -72 -267 -72q-142 0 -229.5 40t-143.5 131z" />
    <glyph glyph-name="afii61248" unicode="&#x2105;" horiz-adv-x="1934" 
d="M595 908l175 -97q-101 -176 -340 -176q-365 0 -365 401v31q0 409 360 409q233 0 330 -177l-175 -97q-30 48 -61.5 67.5t-79.5 19.5q-71 0 -105 -54t-34 -168v-30q0 -215 146 -215q96 0 149 86zM1107 368v68q0 191 73 278q91 109 312 109q199 0 288 -91t89 -296v-68
q0 -189 -73 -277q-90 -109 -304 -109q-205 0 -295 90t-90 296zM1633 382v41q0 116 -33 166t-112 50q-78 0 -111.5 -50t-33.5 -166v-41q0 -116 33.5 -166t111.5 -50q79 0 112 49.5t33 166.5zM590 0l465 1462h242l-464 -1462h-243z" />
    <glyph glyph-name="afii61289" unicode="&#x2113;" 
d="M271 347q-70 -86 -91 -86q-17 0 -31 27.5t-14 59.5q0 28 10 44.5t69 82.5q30 34 75 95q58 358 149 594q124 326 329 326q110 0 165 -81q43 -65 43 -152q0 -152 -105 -331.5t-301 -363.5q-42 -284 -42 -355q0 -70 33 -70q18 0 30 15t37 68q29 64 67 64q49 0 49 -61
q0 -44 -24.5 -99.5t-63.5 -96.5q-73 -79 -171 -79q-141 0 -190 149q-23 70 -23 214v36zM594 757q80 96 145 214q84 154 84 259q0 74 -46 74q-61 0 -108 -169q-42 -152 -75 -378z" />
    <glyph glyph-name="afii61352" unicode="&#x2116;" horiz-adv-x="2421" 
d="M164 0v1462h306l518 -936v936h305v-1462h-306l-518 936v-936h-305zM1469 800v62q0 208 82 305q101 122 339 122q222 0 321.5 -101t99.5 -326v-62q0 -208 -81 -305q-102 -122 -340 -122q-222 0 -321.5 101t-99.5 326zM2021 819v25q0 116 -29 162.5t-102 46.5
q-72 0 -101.5 -46.5t-29.5 -162.5v-25q0 -116 29.5 -163t101.5 -47q73 0 102 47t29 163zM1469 0v235h842v-235h-842z" />
    <glyph glyph-name="trademark" unicode="&#x2122;" horiz-adv-x="1817" 
d="M249 586v694h-251v182h740v-182h-250v-694h-239zM818 586v876h222l229 -429l230 429h222v-876h-231v451l-142 -267h-157l-142 267v-451h-231z" />
    <glyph glyph-name="uni2126" unicode="&#x2126;" horiz-adv-x="1369" 
d="M108 0v226h245v60q-77 41 -118 97q-58 78 -81 169t-23 241v109q0 174 31 271q49 158 192 244q114 68 331 68t331 -68q122 -74 172.5 -190t50.5 -325v-109q0 -150 -23 -241t-81 -169q-42 -57 -118 -97v-60h245v-226h-488v451q78 22 115 100q36 75 36 244v82
q0 199 -52.5 276.5t-187.5 77.5q-81 0 -129 -26t-75 -84q-36 -76 -36 -244v-82q0 -164 34.5 -242.5t116.5 -101.5v-451h-488z" />
    <glyph glyph-name="estimated" unicode="&#x212e;" horiz-adv-x="1229" 
d="M1142 612h-756v-201q29 -95 57 -135q26 -37 77.5 -59.5t109.5 -22.5q95 0 165.5 57.5t98.5 157.5h212q-27 -115 -49 -170t-57 -100q-131 -164 -365 -164q-200 0 -336 116q-117 99 -172 284q-40 132 -40 298q0 327 152 532q137 185 384 185q185 0 317 -108
q83 -69 129 -169t62 -248q10 -89 11 -253zM860 805v162q-12 52 -37 92q-42 65 -85.5 89.5t-115.5 24.5q-99 0 -149 -51q-55 -55 -87 -154v-163h474z" />
    <glyph glyph-name="onethird" unicode="&#x2153;" horiz-adv-x="1871" 
d="M266 586v656l-143 -50l-62 166l284 104h160v-876h-239zM1277 384v153h86q50 0 80 25.5t30 66.5q0 35 -22 57t-58 22q-79 0 -94 -88l-215 15q11 129 68 182q80 73 253 73q307 0 307 -249q0 -123 -78 -178q55 -38 78 -84.5t23 -118.5q0 -131 -65 -194q-82 -79 -262 -79
q-207 0 -292 94q-44 49 -55 169l226 26q7 -50 24 -71q30 -36 88 -36q97 0 97 93q0 122 -120 122h-99zM459 0l465 1462h276l-464 -1462h-277z" />
    <glyph glyph-name="twothirds" unicode="&#x2154;" horiz-adv-x="1871" 
d="M66 585v145l254 286q55 62 87 119.5t32 94.5q0 29 -20 47t-52 18q-82 0 -96 -112l-221 16q11 139 68 196q82 82 258 82q302 0 302 -255q0 -103 -61 -196q-30 -46 -134 -160l-89 -99h280v-182h-608zM1362 384v153h86q50 0 80 25.5t30 66.5q0 35 -22.5 57t-57.5 22
q-79 0 -95 -88l-214 15q11 129 68 182q80 73 253 73q307 0 307 -249q0 -123 -78 -178q55 -38 78 -84.5t23 -118.5q0 -131 -65 -194q-82 -79 -263 -79q-206 0 -291 94q-45 50 -55 169l226 26q7 -51 24 -71q30 -36 88 -36q97 0 97 93q0 122 -120 122h-99zM569 0l464 1462h277
l-465 -1462h-276z" />
    <glyph glyph-name="uni2155" unicode="&#x2155;" horiz-adv-x="1871" 
d="M268 586v656l-143 -50l-62 166l284 104h160v-876h-239zM1129 385l45 492h526v-182h-325l-13 -134q41 8 71 8q157 0 231 -70q64 -61 64 -213q0 -160 -69 -224q-81 -75 -254 -75q-217 0 -282 126q-30 56 -31 138l224 25q13 -107 93 -107t80 106q0 67 -19.5 96.5t-64.5 29.5
q-61 0 -97 -48zM461 0l465 1462h276l-464 -1462h-277z" />
    <glyph glyph-name="uni2156" unicode="&#x2156;" horiz-adv-x="1871" 
d="M67 585v145l254 286q55 62 87 119.5t32 94.5q0 29 -20 47t-52 18q-82 0 -96 -112l-221 16q11 139 68 196q82 82 258 82q302 0 302 -255q0 -103 -61 -196q-30 -46 -134 -160l-89 -99h280v-182h-608zM1185 385l44 492h527v-182h-325l-13 -134q41 8 71 8q157 0 231 -70
q64 -60 64 -214q0 -158 -69 -223q-81 -75 -254 -75q-217 0 -283 126q-28 55 -31 138l225 25q13 -107 93 -107t80 107q0 67 -19.5 96t-64.5 29q-61 0 -97 -48zM577 0l464 1462h277l-464 -1462h-277z" />
    <glyph glyph-name="uni2157" unicode="&#x2157;" horiz-adv-x="1871" 
d="M234 970v153h86q49 0 79.5 25t30.5 66q0 35 -22.5 57t-58.5 22q-77 0 -94 -88l-214 16q9 128 67 181q81 73 254 73q307 0 307 -249q0 -122 -79 -177q56 -38 79 -84.5t23 -119.5q0 -130 -65 -194q-82 -79 -263 -79q-206 0 -291 94q-45 51 -55 170l225 26q7 -50 25 -72
q29 -36 88 -36q97 0 97 94q0 122 -121 122h-98zM1163 385l44 492h527v-182h-325l-13 -134q41 8 71 8q156 0 231 -70q64 -60 64 -213q0 -160 -69 -224q-81 -75 -255 -75q-216 0 -282 126q-29 56 -31 138l224 25q12 -107 93 -107t81 107q0 67 -20 96t-65 29q-61 0 -96 -48z
M548 0l464 1462h277l-464 -1462h-277z" />
    <glyph glyph-name="uni2158" unicode="&#x2158;" horiz-adv-x="1871" 
d="M418 586v134h-381v134l292 608h249l-272 -564h112v145h208v-145h82v-179h-82v-133h-208zM1182 385l44 492h527v-182h-325l-13 -134q41 8 71 8q157 0 231 -70q64 -60 64 -213q0 -160 -69 -224q-81 -75 -254 -75q-217 0 -283 126q-29 56 -31 138l225 25q12 -107 93 -107
q80 0 80 106q0 67 -19.5 96.5t-65.5 29.5q-60 0 -96 -48zM574 0l465 1462h276l-464 -1462h-277z" />
    <glyph glyph-name="uni2159" unicode="&#x2159;" horiz-adv-x="1871" 
d="M297 586v656l-143 -50l-62 166l284 104h160v-876h-239zM1456 577h16q92 -1 163 -47q51 -33 72 -88.5t21 -156.5q0 -95 -17.5 -149t-59.5 -87q-80 -62 -238 -62q-177 0 -255 76q-61 59 -61 215q0 90 17 146.5t68 136.5l200 316h276zM1414 416q-47 0 -67.5 -30t-20.5 -100
t20 -100.5t67 -30.5q86 0 86 130q0 131 -85 131zM495 0l464 1462h277l-464 -1462h-277z" />
    <glyph glyph-name="uni215A" unicode="&#x215a;" horiz-adv-x="1871" 
d="M104 971l44 491h527v-182h-325l-13 -133q41 8 71 8q156 0 231 -70q64 -60 64 -213q0 -160 -69 -224q-81 -76 -254 -76q-309 0 -314 264l225 26q11 -108 92 -108t81 107q0 67 -20 96.5t-65 29.5q-61 0 -96 -48zM1502 577h16q92 -1 163 -47q51 -33 72 -88.5t21 -156.5
q0 -95 -17.5 -149t-59.5 -87q-80 -62 -238 -62q-177 0 -255 76q-61 59 -61 216q0 89 17 145.5t67 136.5l200 316h277zM1459 416q-87 0 -87 -130q0 -131 86 -131q87 0 87 130q0 131 -86 131zM588 0l464 1462h277l-464 -1462h-277z" />
    <glyph glyph-name="oneeighth" unicode="&#x215b;" horiz-adv-x="1871" 
d="M285 586v656l-143 -50l-62 166l284 104h160v-876h-239zM1172 466q-49 60 -49 166q0 137 69 197.5t226 60.5q168 0 237 -70q59 -60 59 -186q0 -105 -49 -168q77 -60 77 -201q0 -150 -72 -211q-79 -68 -252 -68q-174 0 -248.5 64.5t-74.5 214.5q0 144 77 201zM1420 734
q-85 0 -85 -105q0 -107 84 -107q83 0 83 107q0 105 -82 105zM1420 380q-52 0 -74 -26.5t-22 -87.5q0 -60 22 -86t72 -26q51 0 73 26t22 86q0 114 -93 114zM478 0l465 1462h276l-464 -1462h-277z" />
    <glyph glyph-name="threeeighths" unicode="&#x215c;" horiz-adv-x="1871" 
d="M254 970v153h86q49 0 79.5 25t30.5 66q0 35 -22.5 57t-58.5 22q-77 0 -94 -88l-214 16q9 128 67 181q81 73 254 73q307 0 307 -249q0 -122 -79 -177q56 -38 79 -84.5t23 -119.5q0 -130 -65 -194q-82 -79 -263 -79q-206 0 -291 94q-45 51 -55 170l225 26q7 -50 25 -72
q29 -36 88 -36q97 0 97 94q0 122 -121 122h-98zM1234 466q-49 60 -49 166q0 137 69 197.5t226 60.5q168 0 237 -70q60 -59 60 -186q0 -104 -50 -168q78 -59 78 -201q0 -150 -73 -211q-79 -68 -252 -68q-174 0 -248.5 64t-74.5 214q0 145 77 202zM1482 734q-85 0 -85 -105
q0 -107 84 -107t84 107q0 105 -83 105zM1482 380q-52 0 -74 -26.5t-22 -87.5q0 -60 22 -86t72 -26q51 0 73.5 26t22.5 86t-22.5 87t-71.5 27zM568 0l464 1462h277l-464 -1462h-277z" />
    <glyph glyph-name="fiveeighths" unicode="&#x215d;" horiz-adv-x="1871" 
d="M104 971l44 491h527v-182h-325l-13 -133q41 8 71 8q156 0 231 -70q64 -60 64 -213q0 -160 -69 -224q-81 -76 -254 -76q-309 0 -314 264l225 26q11 -108 92 -108t81 107q0 67 -20 96.5t-65 29.5q-61 0 -96 -48zM1236 466q-49 61 -49 165q0 138 69 198.5t226 60.5
q168 0 236 -70q60 -60 60 -186q0 -104 -50 -168q78 -59 78 -201q0 -150 -72 -211q-79 -68 -252 -68q-174 0 -248.5 64t-74.5 214q0 144 77 202zM1483 734q-84 0 -84 -105q0 -107 83 -107q84 0 84 107q0 105 -83 105zM1483 380q-51 0 -73 -26.5t-22 -87.5q0 -60 22 -86
t72 -26q51 0 73 26t22 86q0 114 -94 114zM568 0l465 1462h276l-464 -1462h-277z" />
    <glyph glyph-name="seveneighths" unicode="&#x215e;" horiz-adv-x="1871" 
d="M156 586l280 694h-325v182h582v-133l-279 -743h-258zM1189 466q-49 61 -49 166q0 137 69 197.5t227 60.5q168 0 237 -70q59 -60 59 -187q0 -103 -50 -167q78 -61 78 -201q0 -150 -72 -211q-80 -68 -252 -68q-175 0 -249.5 64.5t-74.5 214.5q0 143 77 201zM1437 734
q-85 0 -85 -105q0 -107 84 -107t84 107q0 105 -83 105zM1437 380q-52 0 -74 -26.5t-22 -87.5q0 -60 22 -86t73 -26t73 26t22 86t-22 87t-72 27zM498 0l464 1462h276l-464 -1462h-276z" />
    <glyph glyph-name="arrowleft" unicode="&#x2190;" horiz-adv-x="1638" 
d="M1521 594h-1028l327 -328l-181 -181l-559 583v108l559 583l181 -181l-327 -328h1028v-256z" />
    <glyph glyph-name="arrowup" unicode="&#x2191;" horiz-adv-x="1638" 
d="M682 0v1060l-327 -328l-182 182l583 559h109l583 -559l-182 -182l-327 327v-1059h-257z" />
    <glyph glyph-name="arrowright" unicode="&#x2192;" horiz-adv-x="1638" 
d="M117 594v256h1028l-327 328l181 181l559 -583v-108l-559 -583l-181 181l327 328h-1028z" />
    <glyph glyph-name="arrowdown" unicode="&#x2193;" horiz-adv-x="1638" 
d="M682 403v1059h257v-1060l327 328l182 -182l-583 -558h-109l-583 558l182 182z" />
    <glyph glyph-name="arrowboth" unicode="&#x2194;" horiz-adv-x="1638" 
d="M1210 594h-781l251 -251l-182 -181l-482 506v108l482 506l182 -181l-251 -251h781l-251 251l182 181l482 -506v-108l-482 -506l-182 181z" />
    <glyph glyph-name="arrowupdn" unicode="&#x2195;" horiz-adv-x="1638" 
d="M682 334v794l-251 -251l-181 182l506 482h108l506 -482l-182 -182l-250 251v-794l250 250l182 -181l-506 -482h-108l-506 482l181 181z" />
    <glyph glyph-name="uni2196" unicode="&#x2196;" horiz-adv-x="1638" 
d="M1254 121l-729 731v-464h-257v803l99 99h802v-257h-463l730 -731z" />
    <glyph glyph-name="uni2197" unicode="&#x2197;" horiz-adv-x="1638" 
d="M383 122l-181 181l729 730h-462v257h802l98 -99v-802h-257v463z" />
    <glyph glyph-name="uni2198" unicode="&#x2198;" horiz-adv-x="1638" 
d="M383 1292l729 -730v463h257v-803l-98 -98h-802v257h462l-729 730z" />
    <glyph glyph-name="uni2199" unicode="&#x2199;" horiz-adv-x="1638" 
d="M1255 1292l181 -181l-730 -730h464v-257h-804l-98 99v802h257v-463z" />
    <glyph glyph-name="partialdiff" unicode="&#x2202;" 
d="M649 1018q-61 121 -155 185t-250 91l37 190q328 -39 494 -216q235 -248 243 -693v-125q0 -233 -89 -340q-111 -133 -371 -133q-251 0 -360.5 110t-109.5 363v125q0 234 89 341q107 130 329 130q91 0 143 -28zM728 472v82q0 143 -40 204t-135 61q-112 0 -149 -84
q-26 -62 -26 -181v-82q0 -143 40 -204t135 -61q112 0 149 84q26 62 26 181z" />
    <glyph glyph-name="emptyset" unicode="&#x2205;" 
d="M702 1212l149 299l158 -58l-156 -313q193 -152 193 -410q0 -220 -136 -361q-142 -146 -357 -146q-65 0 -139 18l-168 -338l-157 57l172 348q-210 145 -210 421q0 220 136 361q60 61 141 99q100 47 208 47q66 0 166 -24zM621 1038q-10 2 -14 3q-65 10 -77 10
q-51 0 -107 -24t-96 -64q-84 -83 -84 -231q0 -84 21.5 -137t78.5 -112zM769 962l-272 -545q40 -9 68 -9q53 0 109.5 24t95.5 64q84 85 84 231q0 74 -19.5 127.5t-65.5 107.5z" />
    <glyph glyph-name="uni2206" unicode="&#x2206;" 
d="M1238 0h-1364l550 1462h264zM819 244l-263 798l-263 -798h526z" />
    <glyph glyph-name="product" unicode="&#x220f;" horiz-adv-x="1312" 
d="M155 -422v1884h1001v-1884h-304v1618h-393v-1618h-304z" />
    <glyph glyph-name="summation" unicode="&#x2211;" horiz-adv-x="1209" 
d="M85 -422v212l402 768l-377 683v221h990v-256h-615l365 -644l-359 -728h639v-256h-1045z" />
    <glyph glyph-name="minus" unicode="&#x2212;" 
d="M93 605v235h920v-235h-920z" />
    <glyph glyph-name="uni2215" unicode="&#x2215;" horiz-adv-x="390" 
d="M-141 0l464 1462h277l-464 -1462h-277z" />
    <glyph glyph-name="uni2218" unicode="&#x2218;" 
d="M553 1122q127 0 231 -66q103 -66 150 -178q32 -77 32 -158q0 -144 -89 -254q-57 -70 -142 -109t-181 -39q-204 0 -325 148q-89 109 -89 258q0 144 89 250q125 148 324 148zM553 989q-132 0 -209 -99q-57 -73 -57 -167q0 -100 57 -173q76 -99 210 -99q133 0 209 99
q56 73 56 170t-56 170q-76 99 -210 99z" />
    <glyph glyph-name="uni2219" unicode="&#x2219;" horiz-adv-x="604" 
d="M145 579v286h315v-286h-315z" />
    <glyph glyph-name="radical" unicode="&#x221a;" 
d="M351 0l-217 557h-134v250h353l136 -399l361 1444h628v-203h-376l-444 -1649h-307z" />
    <glyph glyph-name="infinity" unicode="&#x221e;" horiz-adv-x="1672" 
d="M835 541q-65 -75 -108 -103q-115 -79 -261 -79q-187 0 -283 107q-86 97 -86 251q0 155 86 252q96 107 282 107q159 0 278 -89q31 -23 92 -92q67 76 108 103q115 78 263 78q186 0 281 -107q87 -97 87 -252q0 -154 -87 -251q-96 -107 -282 -107q-158 0 -278 90
q-33 25 -92 92zM727 718l-20 20q-123 127 -227 127q-69 0 -111 -40.5t-42 -106.5t42 -107t111 -41q57 0 102.5 25.5t121.5 100.5zM944 718l23 -22q73 -73 120.5 -99.5t103.5 -26.5q68 0 110.5 41t42.5 107t-42.5 106.5t-111.5 40.5q-103 0 -227 -127z" />
    <glyph glyph-name="integral" unicode="&#x222b;" horiz-adv-x="929" 
d="M96 -182l54 229q51 -24 90 -24q61 0 81 48q13 33 13 221v738q0 188 5.5 262.5t23.5 137.5q57 194 276 194q98 0 221 -34l-54 -229q-51 24 -90 24q-61 0 -81 -49q-13 -32 -13 -218v-740q0 -188 -5.5 -263.5t-25.5 -138.5q-58 -192 -276 -192q-97 0 -219 34z" />
    <glyph glyph-name="similar" unicode="&#x223c;" 
d="M253 548l-174 38q35 145 87 212q80 102 219 102q54 0 92.5 -12t101.5 -50q109 -65 153 -65q72 0 127 119l168 -51q-38 -120 -87 -181q-89 -109 -222 -109q-57 0 -100 16t-133 72q-64 39 -111 39q-77 0 -121 -130z" />
    <glyph glyph-name="uni2243" unicode="&#x2243;" 
d="M126 420v225h847v-225h-847zM249 760l-174 38q34 145 87 212q80 102 220 102q53 0 92 -12.5t101 -49.5q109 -65 153 -65q71 0 127 119l168 -51q-38 -120 -87 -181q-89 -109 -222 -109q-56 0 -99 16t-134 72q-64 39 -111 39q-77 0 -121 -130z" />
    <glyph glyph-name="approxequal" unicode="&#x2248;" 
d="M253 336l-174 38q34 145 87 212q80 102 219 102q54 0 93 -12.5t101 -49.5q109 -65 153 -65q72 0 127 119l168 -51q-38 -120 -87 -181q-89 -109 -222 -109q-57 0 -99.5 16t-133.5 72q-64 39 -111 39q-77 0 -121 -130zM253 760l-174 38q34 145 87 212q80 102 220 102
q53 0 92 -12.5t101 -49.5q109 -65 153 -65q71 0 127 119l168 -51q-38 -120 -87 -181q-89 -109 -222 -109q-56 0 -99 16t-134 72q-64 39 -111 39q-77 0 -121 -130z" />
    <glyph glyph-name="notequal" unicode="&#x2260;" 
d="M129 420v225h256l71 154h-327v225h431l111 241l217 -101l-65 -140h153v-225h-256l-71 -154h327v-225h-431l-111 -241l-217 101l65 140h-153z" />
    <glyph glyph-name="lessequal" unicode="&#x2264;" 
d="M462 787l469 -179v-271l-801 354v191l801 354v-271zM130 0v235h801v-235h-801z" />
    <glyph glyph-name="greaterequal" unicode="&#x2265;" 
d="M644 787l-469 178v271l801 -354v-191l-801 -354v271zM175 0v235h801v-235h-801z" />
    <glyph glyph-name="dotmath" unicode="&#x22c5;" horiz-adv-x="604" 
d="M145 579v286h315v-286h-315z" />
    <glyph glyph-name="filledrect" unicode="&#x25ac;" 
d="M195 361v716h717v-716h-717z" />
    <glyph glyph-name="uni25B4" unicode="&#x25b4;" 
d="M117 349l436 870l436 -870h-872z" />
    <glyph glyph-name="uni25B8" unicode="&#x25b8;" 
d="M227 284v871l870 -435z" />
    <glyph glyph-name="uni25BE" unicode="&#x25be;" 
d="M117 1091h872l-436 -870z" />
    <glyph glyph-name="uni25C2" unicode="&#x25c2;" 
d="M878 284l-870 436l870 435v-871z" />
    <glyph glyph-name="lozenge" unicode="&#x25ca;" 
d="M-35 726l588 791l587 -791l-587 -790zM311 726l242 -342l241 342l-241 342z" />
    <glyph glyph-name="openbullet" unicode="&#x25e6;" 
d="M553 1122q127 0 231 -66q103 -66 150 -178q32 -77 32 -158q0 -144 -89 -254q-57 -70 -142 -109t-181 -39q-204 0 -325 148q-89 109 -89 258q0 144 89 250q125 148 324 148zM553 989q-132 0 -209 -99q-57 -73 -57 -167q0 -100 57 -173q76 -99 210 -99q133 0 209 99
q56 73 56 170t-56 170q-76 99 -210 99z" />
    <glyph glyph-name="glyph155" horiz-adv-x="410" 
 />
    <glyph glyph-name="glyph166" horiz-adv-x="410" 
 />
    <glyph glyph-name="glyph172" 
 />
    <glyph glyph-name="glyph210" horiz-adv-x="410" 
 />
    <glyph glyph-name="Gcircumflex.aalt" horiz-adv-x="1137" 
d="M571 438v213h472v-212q0 -128 -18 -199.5t-64 -127.5q-58 -70 -148.5 -102.5t-229.5 -32.5q-190 0 -285 52q-103 57 -144 148t-41 263v234q0 146 24 224q40 130 146 192.5t288 62.5q276 0 376 -133q54 -71 63 -221l-281 -18q-12 73 -46.5 104t-104.5 31
q-91 0 -126.5 -53.5t-35.5 -189.5v-215q0 -137 35.5 -190.5t127.5 -53.5q164 0 164 173v51h-172zM570 1417l-112 -156h-279l282 319h218l282 -319h-279z" />
    <glyph glyph-name="i.locl" horiz-adv-x="579" 
d="M140 1197v281h298v-281h-298zM140 0v1062h298v-1062h-298z" />
    <glyph glyph-name="one.pnum" horiz-adv-x="791" 
d="M281 0v1137l-225 -92l-98 240l431 177h207v-1462h-315z" />
    <glyph glyph-name="two.pnum" horiz-adv-x="1055" 
d="M19 0v203l410 491q39 47 91 124t73 118q39 80 39 161q0 133 -136 133q-54 0 -86 -19.5t-54 -64.5q-26 -53 -33 -110l-289 21q24 428 472 428q252 0 360 -141q78 -102 78 -264q0 -163 -98 -321q-40 -62 -67.5 -97t-155.5 -182l-193 -224h512v-256h-923z" />
    <glyph glyph-name="three.pnum" horiz-adv-x="1037" 
d="M303 649v242h107q97 0 148 44t51 129q0 167 -141 167q-137 0 -159 -156l-279 21q11 173 96 264q115 125 358 125q229 0 339 -116q98 -103 98 -290q0 -114 -34 -184t-113 -122q73 -48 106 -92q76 -97 76 -263q0 -441 -468 -441q-293 0 -415 160q-67 90 -78 247l295 36
q23 -189 185 -189q87 0 126 51q43 56 43 144q0 102 -58.5 162.5t-156.5 60.5h-126z" />
    <glyph glyph-name="four.pnum" horiz-adv-x="1108" 
d="M630 0v251h-576v189l447 1022h332l-421 -960h218v326h281v-326h127v-252h-127v-250h-281z" />
    </font>
</defs>
</svg>
